<?xml version="1.0" standalone="no"?>
<!DOCTYPE svg PUBLIC "-//W3C//DTD SVG 1.1//EN" "http://www.w3.org/Graphics/SVG/1.1/DTD/svg11.dtd" >
<svg xmlns="http://www.w3.org/2000/svg" xmlns:xlink="http://www.w3.org/1999/xlink" version="1.1">
<metadata>
Created by FontForge 20170910 at Sun Dec 22 13:07:48 2013
 By Jimmy Wärting
Copyright (c) 2013 by Andrew Paglinawan. All rights reserved.
</metadata>
<defs>
<font id="QuicksandPro-Regular" horiz-adv-x="566" >
  <font-face 
    font-family="Quicksand Pro"
    font-weight="400"
    font-stretch="normal"
    units-per-em="1000"
    panose-1="0 0 5 0 0 0 0 0 0 0"
    ascent="800"
    descent="-200"
    x-height="509"
    cap-height="700"
    bbox="-45 -300.256 1081 980"
    underline-thickness="50"
    underline-position="-100"
    unicode-range="U+0020-FB02"
  />
<missing-glyph horiz-adv-x="600" 
d="M40 35v630c0 23 12 35 35 35h434c23 0 35 -12 35 -35v-630c0 -23 -12 -35 -35 -35h-434c-23 0 -35 12 -35 35zM509 670h-414c-4 0 -5 -3 -3 -6l416 -599c3 -4 6 -3 6 2v598c0 3 -2 5 -5 5zM70 633v-598c0 -3 2 -5 5 -5h413c4 0 5 3 3 6l-415 599c-3 4 -6 3 -6 -2z" />
    <glyph glyph-name="fi" unicode="fi" horiz-adv-x="513" 
d="M176 515h232c21 0 36 -15 36 -36v-443c0 -21 -15 -36 -35 -36s-35 15 -35 36v402c0 5 -2 7 -7 7h-191c-5 0 -7 -2 -7 -7v-403c0 -21 -15 -36 -35 -36s-35 15 -35 36v403c0 5 -2 7 -7 7h-35c-26 0 -40 14 -40 35s14 35 40 35h35c5 0 7 2 7 7v72c0 108 82 148 166 148
c70 0 124 -21 157 -51c20 -18 30 -46 14 -66c-15 -19 -47 -23 -72 4s-53 44 -99 45c-50 1 -96 -27 -96 -100v-52c0 -5 2 -7 7 -7z" />
    <glyph glyph-name="fl" unicode="fl" horiz-adv-x="556" 
d="M442 740c20 0 34 -15 34 -36v-668c0 -21 -15 -36 -36 -36c-20 0 -34 15 -34 36v547c0 2 -1 4 -3 6c-52 42 -107 69 -154 66c-52 -3 -72 -48 -72 -89v-44c0 -5 2 -7 7 -7h83c26 0 35 -19 35 -35s-9 -35 -35 -35h-83c-5 0 -7 -2 -7 -7v-403c0 -16 -9 -35 -35 -35
s-35 19 -35 35v403c0 5 -2 7 -7 7h-40c-26 0 -35 19 -35 35s9 35 35 35h40c5 0 7 2 7 7v64c0 75 56 138 143 138c63 0 114 -24 150 -46c3 -3 6 -1 6 3v23c0 21 15 36 36 36z" />
    <glyph glyph-name=".notdef" horiz-adv-x="600" 
d="M40 35v630c0 23 12 35 35 35h434c23 0 35 -12 35 -35v-630c0 -23 -12 -35 -35 -35h-434c-23 0 -35 12 -35 35zM509 670h-414c-4 0 -5 -3 -3 -6l416 -599c3 -4 6 -3 6 2v598c0 3 -2 5 -5 5zM70 633v-598c0 -3 2 -5 5 -5h413c4 0 5 3 3 6l-415 599c-3 4 -6 3 -6 -2z" />
    <glyph glyph-name="A" unicode="A" horiz-adv-x="600" 
d="M334 679l253 -633c8 -19 -1 -39 -21 -46c-18 -7 -37 2 -45 21l-50 131c-1 3 -3 4 -6 4h-331c-3 0 -5 -1 -6 -4l-50 -131c-7 -20 -26 -28 -46 -21c-18 7 -27 26 -19 45l254 634c6 16 19 25 35 23c13 0 26 -8 32 -23zM163 226h273c4 0 6 2 4 6l-137 331c-2 4 -5 4 -7 0
l-137 -331c-2 -4 0 -6 4 -6z" />
    <glyph glyph-name="Aacute" unicode="&#xc1;" horiz-adv-x="600" 
d="M401 862l-70 -67c-12 -11 -22 -15 -38 -15c-23 0 -30 16 -16 36l56 86c10 15 24 19 40 11l21 -10c20 -9 23 -25 7 -41zM334 679l253 -633c8 -19 -1 -39 -21 -46c-18 -7 -37 2 -45 21l-50 131c-1 3 -3 4 -6 4h-331c-3 0 -5 -1 -6 -4l-50 -131c-7 -20 -26 -28 -46 -21
c-18 7 -27 26 -19 45l254 634c6 16 19 25 35 23c13 0 26 -8 32 -23zM163 226h273c4 0 6 2 4 6l-137 331c-2 4 -5 4 -7 0l-137 -331c-2 -4 0 -6 4 -6z" />
    <glyph glyph-name="Abreve" unicode="&#x102;" horiz-adv-x="600" 
d="M410 913h18c13 0 21 -8 18 -21c-14 -71 -69 -112 -145 -112s-131 41 -145 112c-3 13 5 21 18 21h18c12 0 18 -5 23 -16c14 -33 42 -53 86 -53s72 20 86 53c5 11 11 16 23 16zM334 679l253 -633c8 -19 -1 -39 -21 -46c-18 -7 -37 2 -45 21l-50 131c-1 3 -3 4 -6 4h-331
c-3 0 -5 -1 -6 -4l-50 -131c-7 -20 -26 -28 -46 -21c-18 7 -27 26 -19 45l254 634c6 16 19 25 35 23c13 0 26 -8 32 -23zM163 226h273c4 0 6 2 4 6l-137 331c-2 4 -5 4 -7 0l-137 -331c-2 -4 0 -6 4 -6z" />
    <glyph glyph-name="Acircumflex" unicode="&#xc2;" horiz-adv-x="600" 
d="M358 794l-38 34c-14 13 -28 13 -42 0l-38 -34c-11 -10 -22 -14 -37 -14c-23 0 -29 17 -13 37l62 77c10 12 21 17 36 17h24c15 0 26 -5 36 -17l62 -77c16 -20 15 -37 -3 -37h-12c-15 0 -26 4 -37 14zM334 679l253 -633c8 -19 -1 -39 -21 -46c-18 -7 -37 2 -45 21l-50 131
c-1 3 -3 4 -6 4h-331c-3 0 -5 -1 -6 -4l-50 -131c-7 -20 -26 -28 -46 -21c-18 7 -27 26 -19 45l254 634c6 16 19 25 35 23c13 0 26 -8 32 -23zM163 226h273c4 0 6 2 4 6l-137 331c-2 4 -5 4 -7 0l-137 -331c-2 -4 0 -6 4 -6z" />
    <glyph glyph-name="Adieresis" unicode="&#xc4;" horiz-adv-x="600" 
d="M258 828c0 -28 -19 -48 -45 -48s-45 20 -45 48c0 27 19 47 45 47s45 -20 45 -47zM434 828c0 -28 -19 -48 -45 -48s-45 20 -45 48c0 27 19 47 45 47s45 -20 45 -47zM334 679l253 -633c8 -19 -1 -39 -21 -46c-18 -7 -37 2 -45 21l-50 131c-1 3 -3 4 -6 4h-331
c-3 0 -5 -1 -6 -4l-50 -131c-7 -20 -26 -28 -46 -21c-18 7 -27 26 -19 45l254 634c6 16 19 25 35 23c13 0 26 -8 32 -23zM163 226h273c4 0 6 2 4 6l-137 331c-2 4 -5 4 -7 0l-137 -331c-2 -4 0 -6 4 -6z" />
    <glyph glyph-name="Agrave" unicode="&#xc0;" horiz-adv-x="600" 
d="M265 795l-70 67c-16 16 -13 32 7 41l21 10c16 8 30 4 40 -11l56 -86c14 -20 7 -36 -16 -36c-16 0 -26 4 -38 15zM334 679l253 -633c8 -19 -1 -39 -21 -46c-18 -7 -37 2 -45 21l-50 131c-1 3 -3 4 -6 4h-331c-3 0 -5 -1 -6 -4l-50 -131c-7 -20 -26 -28 -46 -21
c-18 7 -27 26 -19 45l254 634c6 16 19 25 35 23c13 0 26 -8 32 -23zM163 226h273c4 0 6 2 4 6l-137 331c-2 4 -5 4 -7 0l-137 -331c-2 -4 0 -6 4 -6z" />
    <glyph glyph-name="Amacron" unicode="&#x100;" horiz-adv-x="600" 
d="M459 814c0 -20 -12 -34 -36 -34h-244c-21 0 -36 14 -36 34c0 19 15 33 36 33h244c24 0 36 -14 36 -33zM334 679l253 -633c8 -19 -1 -39 -21 -46c-18 -7 -37 2 -45 21l-50 131c-1 3 -3 4 -6 4h-331c-3 0 -5 -1 -6 -4l-50 -131c-7 -20 -26 -28 -46 -21c-18 7 -27 26 -19 45
l254 634c6 16 19 25 35 23c13 0 26 -8 32 -23zM163 226h273c4 0 6 2 4 6l-137 331c-2 4 -5 4 -7 0l-137 -331c-2 -4 0 -6 4 -6z" />
    <glyph glyph-name="Aogonek" unicode="&#x104;" horiz-adv-x="600" 
d="M609 -140c8 -17 0 -30 -13 -37c-62 -34 -182 -23 -182 79c0 69 53 113 101 133l-44 117c-1 3 -3 4 -6 4h-331c-3 0 -5 -1 -6 -4l-50 -131c-7 -20 -26 -28 -46 -21c-18 7 -27 26 -19 45l254 634c6 16 19 25 35 23c13 0 26 -8 32 -23l253 -633c8 -19 -1 -39 -21 -46
c-11 -4 -23 -2 -32 4c-51 -39 -59 -84 -47 -110c17 -38 70 -32 89 -24c13 5 27 2 33 -10zM163 226h273c4 0 6 2 4 6l-137 331c-2 4 -5 4 -7 0l-137 -331c-2 -4 0 -6 4 -6z" />
    <glyph glyph-name="Aring" unicode="&#xc5;" horiz-adv-x="600" 
d="M337 671l250 -625c8 -19 -1 -39 -21 -46c-18 -7 -37 2 -45 21l-50 131c-1 3 -3 4 -6 4h-331c-3 0 -5 -1 -6 -4l-50 -131c-7 -20 -26 -28 -46 -21c-18 7 -27 26 -19 45l251 626c-38 15 -67 51 -67 93c0 55 49 100 104 100s104 -45 104 -100c0 -42 -29 -79 -68 -93z
M301 814c-27 0 -50 -23 -50 -50s23 -50 50 -50s50 23 50 50s-23 50 -50 50zM163 226h273c4 0 6 2 4 6l-137 331c-2 4 -5 4 -7 0l-137 -331c-2 -4 0 -6 4 -6z" />
    <glyph glyph-name="Atilde" unicode="&#xc3;" horiz-adv-x="600" 
d="M442 892c15 -5 21 -18 14 -37c-19 -53 -45 -75 -86 -75c-45 0 -100 40 -134 40c-19 0 -29 -7 -40 -24c-9 -16 -21 -23 -39 -18c-13 4 -18 16 -11 36c19 53 45 75 86 75c45 0 100 -40 134 -40c19 0 30 7 40 24c9 16 20 23 36 19zM334 679l253 -633c8 -19 -1 -39 -21 -46
c-18 -7 -37 2 -45 21l-50 131c-1 3 -3 4 -6 4h-331c-3 0 -5 -1 -6 -4l-50 -131c-7 -20 -26 -28 -46 -21c-18 7 -27 26 -19 45l254 634c6 16 19 25 35 23c13 0 26 -8 32 -23zM163 226h273c4 0 6 2 4 6l-137 331c-2 4 -5 4 -7 0l-137 -331c-2 -4 0 -6 4 -6z" />
    <glyph glyph-name="AE" unicode="&#xc6;" horiz-adv-x="938" 
d="M537 70h315c21 0 36 -15 36 -35s-15 -35 -36 -35h-355c-20 0 -35 15 -35 36v122c0 3 -2 5 -5 5h-266c-2 0 -4 -1 -6 -3l-101 -145c-12 -17 -32 -21 -49 -9s-21 32 -8 50l440 628c2 3 4 5 6 7l5 4c5 3 11 5 16 5h358c21 0 36 -15 36 -35s-15 -35 -36 -35h-315
c-3 0 -5 -2 -5 -5v-275c0 -3 2 -5 5 -5h272c21 0 36 -15 36 -35s-15 -35 -36 -35h-272c-3 0 -5 -2 -5 -5v-195c0 -3 2 -5 5 -5zM244 233h213c3 0 5 2 5 5v317l-221 -316c-3 -3 -1 -6 3 -6z" />
    <glyph glyph-name="B" unicode="B" horiz-adv-x="599" 
d="M126 700h154c107 0 196 -73 196 -181c0 -51 -20 -95 -52 -127c-3 -3 -2 -5 1 -7c75 -30 126 -96 126 -184c0 -123 -101 -201 -224 -201h-201c-21 0 -36 15 -36 36v628c0 21 15 36 36 36zM280 630h-115c-3 0 -5 -2 -5 -5v-216c0 -3 2 -5 5 -5h115c70 0 126 45 126 115
c0 71 -56 111 -126 111zM165 70h162c86 0 154 45 154 131c0 85 -68 133 -154 133h-162c-3 0 -5 -2 -5 -5v-254c0 -3 2 -5 5 -5z" />
    <glyph glyph-name="C" unicode="C" horiz-adv-x="656" 
d="M619 653c19 -12 21 -35 8 -52c-12 -15 -30 -17 -47 -6c-47 29 -100 45 -161 45c-166 0 -299 -131 -299 -290c0 -160 133 -290 299 -290c61 0 114 16 161 45c17 11 35 9 47 -6c14 -17 11 -40 -8 -52c-58 -36 -126 -57 -200 -57c-204 0 -369 161 -369 360s165 360 369 360
c74 0 143 -21 200 -57z" />
    <glyph glyph-name="Cacute" unicode="&#x106;" horiz-adv-x="656" 
d="M429 862l-70 -67c-12 -11 -22 -15 -38 -15c-23 0 -30 16 -16 36l56 86c10 15 24 19 40 11l21 -10c20 -9 23 -25 7 -41zM619 653c19 -12 21 -35 8 -52c-12 -15 -30 -17 -47 -6c-47 29 -100 45 -161 45c-166 0 -299 -131 -299 -290c0 -160 133 -290 299 -290
c61 0 114 16 161 45c17 11 35 9 47 -6c14 -17 11 -40 -8 -52c-58 -36 -126 -57 -200 -57c-204 0 -369 161 -369 360s165 360 369 360c74 0 143 -21 200 -57z" />
    <glyph glyph-name="Ccaron" unicode="&#x10c;" horiz-adv-x="656" 
d="M348 863l38 34c11 10 22 14 37 14h12c18 0 19 -17 3 -37l-62 -77c-10 -12 -21 -17 -36 -17h-24c-15 0 -26 5 -36 17l-62 77c-16 20 -10 37 13 37c15 0 26 -4 37 -14l38 -34c14 -13 28 -13 42 0zM619 653c19 -12 21 -35 8 -52c-12 -15 -30 -17 -47 -6
c-47 29 -100 45 -161 45c-166 0 -299 -131 -299 -290c0 -160 133 -290 299 -290c61 0 114 16 161 45c17 11 35 9 47 -6c14 -17 11 -40 -8 -52c-58 -36 -126 -57 -200 -57c-204 0 -369 161 -369 360s165 360 369 360c74 0 143 -21 200 -57z" />
    <glyph glyph-name="Ccedilla" unicode="&#xc7;" horiz-adv-x="656" 
d="M627 99c14 -17 11 -40 -8 -52c-58 -36 -126 -57 -200 -57c-19 0 -38 1 -56 4l-48 -122c-7 -18 -21 -23 -39 -15l-18 8c-19 9 -24 24 -11 41l75 96c-157 42 -272 182 -272 348c0 199 165 360 369 360c74 0 143 -21 200 -57c19 -12 21 -35 8 -52c-12 -15 -30 -17 -47 -6
c-47 29 -100 45 -161 45c-166 0 -299 -131 -299 -290c0 -160 133 -290 299 -290c61 0 114 16 161 45c17 11 35 9 47 -6z" />
    <glyph glyph-name="Cdotaccent" unicode="&#x10a;" horiz-adv-x="655" 
d="M428 828c0 -28 -20 -48 -47 -48s-47 20 -47 48s20 48 47 48s47 -20 47 -48zM619 653c19 -12 21 -35 8 -52c-12 -15 -30 -17 -47 -6c-47 29 -100 45 -161 45c-166 0 -299 -131 -299 -290c0 -160 133 -290 299 -290c61 0 114 16 161 45c17 11 35 9 47 -6
c14 -17 11 -40 -8 -52c-58 -36 -126 -57 -200 -57c-204 0 -369 161 -369 360s165 360 369 360c74 0 143 -21 200 -57z" />
    <glyph glyph-name="D" unicode="D" horiz-adv-x="670" 
d="M126 700h174c213 0 320 -127 320 -350s-107 -350 -320 -350h-174c-21 0 -36 15 -36 36v628c0 21 15 36 36 36zM166 70h134c174 0 250 95 250 280s-76 280 -250 280h-134c-3 0 -5 -2 -5 -5v-550c0 -3 2 -5 5 -5z" />
    <glyph glyph-name="Eth" unicode="&#xd0;" horiz-adv-x="669" 
d="M137 700h174c213 0 320 -127 320 -350s-107 -350 -320 -350h-174c-21 0 -36 15 -36 36v269c0 3 -2 5 -5 5h-31c-24 0 -41 17 -41 41c0 23 17 40 41 40h31c3 0 5 2 5 5v268c0 21 15 36 36 36zM177 70h134c174 0 250 95 250 280s-76 280 -250 280h-134c-3 0 -5 -2 -5 -5
v-229c0 -3 2 -5 5 -5h84c24 0 41 -17 41 -40c0 -24 -17 -41 -41 -41h-84c-3 0 -5 -2 -5 -5v-230c0 -3 2 -5 5 -5z" />
    <glyph glyph-name="Dcaron" unicode="&#x10e;" horiz-adv-x="670" 
d="M355 863l38 34c11 10 22 14 37 14h12c18 0 19 -17 3 -37l-62 -77c-10 -12 -21 -17 -36 -17h-24c-15 0 -26 5 -36 17l-62 77c-16 20 -10 37 13 37c15 0 26 -4 37 -14l38 -34c14 -13 28 -13 42 0zM126 700h174c213 0 320 -127 320 -350s-107 -350 -320 -350h-174
c-21 0 -36 15 -36 36v628c0 21 15 36 36 36zM166 70h134c174 0 250 95 250 280s-76 280 -250 280h-134c-3 0 -5 -2 -5 -5v-550c0 -3 2 -5 5 -5z" />
    <glyph glyph-name="Dcroat" unicode="&#x110;" horiz-adv-x="669" 
d="M137 700h174c213 0 320 -127 320 -350s-107 -350 -320 -350h-174c-21 0 -36 15 -36 36v269c0 3 -2 5 -5 5h-31c-24 0 -41 17 -41 41c0 23 17 40 41 40h31c3 0 5 2 5 5v268c0 21 15 36 36 36zM177 70h134c174 0 250 95 250 280s-76 280 -250 280h-134c-3 0 -5 -2 -5 -5
v-229c0 -3 2 -5 5 -5h84c24 0 41 -17 41 -40c0 -24 -17 -41 -41 -41h-84c-3 0 -5 -2 -5 -5v-230c0 -3 2 -5 5 -5z" />
    <glyph glyph-name="E" unicode="E" 
d="M165 70h315c21 0 36 -15 36 -35s-15 -35 -36 -35h-355c-20 0 -35 15 -35 36v628c0 21 15 36 35 36h355c21 0 36 -15 36 -35s-15 -35 -36 -35h-315c-3 0 -5 -2 -5 -5v-275c0 -3 2 -5 5 -5h272c21 0 36 -15 36 -35s-15 -35 -36 -35h-272c-3 0 -5 -2 -5 -5v-195
c0 -3 2 -5 5 -5z" />
    <glyph glyph-name="Eacute" unicode="&#xc9;" 
d="M383 862l-70 -67c-12 -11 -22 -15 -38 -15c-23 0 -30 16 -16 36l56 86c10 15 24 19 40 11l21 -10c20 -9 23 -25 7 -41zM165 70h315c21 0 36 -15 36 -35s-15 -35 -36 -35h-355c-20 0 -35 15 -35 36v628c0 21 15 36 35 36h355c21 0 36 -15 36 -35s-15 -35 -36 -35h-315
c-3 0 -5 -2 -5 -5v-275c0 -3 2 -5 5 -5h272c21 0 36 -15 36 -35s-15 -35 -36 -35h-272c-3 0 -5 -2 -5 -5v-195c0 -3 2 -5 5 -5z" />
    <glyph glyph-name="Ecaron" unicode="&#x11a;" 
d="M302 863l38 34c11 10 22 14 37 14h12c18 0 19 -17 3 -37l-62 -77c-10 -12 -21 -17 -36 -17h-24c-15 0 -26 5 -36 17l-62 77c-16 20 -10 37 13 37c15 0 26 -4 37 -14l38 -34c14 -13 28 -13 42 0zM165 70h315c21 0 36 -15 36 -35s-15 -35 -36 -35h-355c-20 0 -35 15 -35 36
v628c0 21 15 36 35 36h355c21 0 36 -15 36 -35s-15 -35 -36 -35h-315c-3 0 -5 -2 -5 -5v-275c0 -3 2 -5 5 -5h272c21 0 36 -15 36 -35s-15 -35 -36 -35h-272c-3 0 -5 -2 -5 -5v-195c0 -3 2 -5 5 -5z" />
    <glyph glyph-name="Ecircumflex" unicode="&#xca;" 
d="M340 794l-38 34c-14 13 -28 13 -42 0l-38 -34c-11 -10 -22 -14 -37 -14c-23 0 -29 17 -13 37l62 77c10 12 21 17 36 17h24c15 0 26 -5 36 -17l62 -77c16 -20 15 -37 -3 -37h-12c-15 0 -26 4 -37 14zM165 70h315c21 0 36 -15 36 -35s-15 -35 -36 -35h-355
c-20 0 -35 15 -35 36v628c0 21 15 36 35 36h355c21 0 36 -15 36 -35s-15 -35 -36 -35h-315c-3 0 -5 -2 -5 -5v-275c0 -3 2 -5 5 -5h272c21 0 36 -15 36 -35s-15 -35 -36 -35h-272c-3 0 -5 -2 -5 -5v-195c0 -3 2 -5 5 -5z" />
    <glyph glyph-name="Edieresis" unicode="&#xcb;" 
d="M240 828c0 -28 -19 -48 -45 -48s-45 20 -45 48c0 27 19 47 45 47s45 -20 45 -47zM416 828c0 -28 -19 -48 -45 -48s-45 20 -45 48c0 27 19 47 45 47s45 -20 45 -47zM165 70h315c21 0 36 -15 36 -35s-15 -35 -36 -35h-355c-20 0 -35 15 -35 36v628c0 21 15 36 35 36h355
c21 0 36 -15 36 -35s-15 -35 -36 -35h-315c-3 0 -5 -2 -5 -5v-275c0 -3 2 -5 5 -5h272c21 0 36 -15 36 -35s-15 -35 -36 -35h-272c-3 0 -5 -2 -5 -5v-195c0 -3 2 -5 5 -5z" />
    <glyph glyph-name="Edotaccent" unicode="&#x116;" 
d="M330 828c0 -28 -20 -48 -47 -48s-47 20 -47 48s20 48 47 48s47 -20 47 -48zM165 70h315c21 0 36 -15 36 -35s-15 -35 -36 -35h-355c-20 0 -35 15 -35 36v628c0 21 15 36 35 36h355c21 0 36 -15 36 -35s-15 -35 -36 -35h-315c-3 0 -5 -2 -5 -5v-275c0 -3 2 -5 5 -5h272
c21 0 36 -15 36 -35s-15 -35 -36 -35h-272c-3 0 -5 -2 -5 -5v-195c0 -3 2 -5 5 -5z" />
    <glyph glyph-name="Egrave" unicode="&#xc8;" 
d="M247 795l-70 67c-16 16 -13 32 7 41l21 10c16 8 30 4 40 -11l56 -86c14 -20 7 -36 -16 -36c-16 0 -26 4 -38 15zM165 70h315c21 0 36 -15 36 -35s-15 -35 -36 -35h-355c-20 0 -35 15 -35 36v628c0 21 15 36 35 36h355c21 0 36 -15 36 -35s-15 -35 -36 -35h-315
c-3 0 -5 -2 -5 -5v-275c0 -3 2 -5 5 -5h272c21 0 36 -15 36 -35s-15 -35 -36 -35h-272c-3 0 -5 -2 -5 -5v-195c0 -3 2 -5 5 -5z" />
    <glyph glyph-name="Emacron" unicode="&#x112;" 
d="M441 814c0 -20 -12 -34 -36 -34h-244c-21 0 -36 14 -36 34c0 19 15 33 36 33h244c24 0 36 -14 36 -33zM165 70h315c21 0 36 -15 36 -35s-15 -35 -36 -35h-355c-20 0 -35 15 -35 36v628c0 21 15 36 35 36h355c21 0 36 -15 36 -35s-15 -35 -36 -35h-315c-3 0 -5 -2 -5 -5
v-275c0 -3 2 -5 5 -5h272c21 0 36 -15 36 -35s-15 -35 -36 -35h-272c-3 0 -5 -2 -5 -5v-195c0 -3 2 -5 5 -5z" />
    <glyph glyph-name="Eogonek" unicode="&#x118;" 
d="M480 0h-55c-46 -38 -52 -81 -41 -106c17 -38 70 -32 89 -24c13 5 27 2 33 -10c8 -17 0 -30 -13 -37c-62 -34 -182 -23 -182 79c0 42 19 74 45 98h-231c-20 0 -35 15 -35 36v628c0 21 15 36 35 36h355c21 0 36 -15 36 -35s-15 -35 -36 -35h-315c-3 0 -5 -2 -5 -5v-275
c0 -3 2 -5 5 -5h272c21 0 36 -15 36 -35s-15 -35 -36 -35h-272c-3 0 -5 -2 -5 -5v-195c0 -3 2 -5 5 -5h315c21 0 36 -15 36 -35s-15 -35 -36 -35z" />
    <glyph glyph-name="F" unicode="F" 
d="M125 700h355c21 0 36 -15 36 -35s-15 -35 -36 -35h-315c-3 0 -5 -2 -5 -5v-275c0 -3 2 -5 5 -5h272c21 0 36 -15 36 -35s-15 -35 -36 -35h-272c-3 0 -5 -2 -5 -5v-234c0 -21 -15 -36 -35 -36s-35 15 -35 36v628c0 21 15 36 35 36z" />
    <glyph glyph-name="G" unicode="G" horiz-adv-x="691" 
d="M456 342h159c21 0 36 -15 36 -36v-220c0 -9 -4 -17 -11 -23c-67 -53 -140 -73 -221 -73c-204 0 -369 161 -369 360s165 360 369 360c74 0 143 -21 200 -56c18 -12 22 -34 9 -50v-1c-12 -16 -32 -18 -49 -7c-47 29 -99 44 -160 44c-166 0 -299 -130 -299 -290
c0 -159 133 -290 299 -290c64 0 111 12 159 43c2 1 3 3 3 6v158c0 3 -2 5 -5 5h-120c-21 0 -36 15 -36 35s15 35 36 35z" />
    <glyph glyph-name="Gbreve" unicode="&#x11e;" horiz-adv-x="691" 
d="M456 913h18c13 0 21 -8 18 -21c-14 -71 -69 -112 -145 -112s-131 41 -145 112c-3 13 5 21 18 21h18c12 0 18 -5 23 -16c14 -33 42 -53 86 -53s72 20 86 53c5 11 11 16 23 16zM456 342h159c21 0 36 -15 36 -36v-220c0 -9 -4 -17 -11 -23c-67 -53 -140 -73 -221 -73
c-204 0 -369 161 -369 360s165 360 369 360c74 0 143 -21 200 -56c18 -12 22 -34 9 -50v-1c-12 -16 -32 -18 -49 -7c-47 29 -99 44 -160 44c-166 0 -299 -130 -299 -290c0 -159 133 -290 299 -290c64 0 111 12 159 43c2 1 3 3 3 6v158c0 3 -2 5 -5 5h-120
c-21 0 -36 15 -36 35s15 35 36 35z" />
    <glyph glyph-name="Gcommaaccent" unicode="&#x122;" horiz-adv-x="691" 
d="M456 342h159c21 0 36 -15 36 -36v-220c0 -9 -4 -17 -11 -23c-67 -53 -140 -73 -221 -73c-204 0 -369 161 -369 360s165 360 369 360c74 0 143 -21 200 -56c18 -12 22 -34 9 -50v-1c-12 -16 -32 -18 -49 -7c-47 29 -99 44 -160 44c-166 0 -299 -130 -299 -290
c0 -159 133 -290 299 -290c64 0 111 12 159 43c2 1 3 3 3 6v158c0 3 -2 5 -5 5h-120c-21 0 -36 15 -36 35s15 35 36 35zM289 -290c-4 11 8 22 26 33c26 16 37 38 35 67c0 3 -2 5 -5 5c-18 3 -31 19 -31 41v23c0 24 17 41 41 41h10c24 0 41 -17 41 -41v-49
c0 -67 -24 -105 -74 -126c-21 -8 -39 -4 -43 6z" />
    <glyph glyph-name="Gdotaccent" unicode="&#x120;" horiz-adv-x="691" 
d="M394 828c0 -28 -20 -48 -47 -48s-47 20 -47 48s20 48 47 48s47 -20 47 -48zM456 342h159c21 0 36 -15 36 -36v-220c0 -9 -4 -17 -11 -23c-67 -53 -140 -73 -221 -73c-204 0 -369 161 -369 360s165 360 369 360c74 0 143 -21 200 -56c18 -12 22 -34 9 -50v-1
c-12 -16 -32 -18 -49 -7c-47 29 -99 44 -160 44c-166 0 -299 -130 -299 -290c0 -159 133 -290 299 -290c64 0 111 12 159 43c2 1 3 3 3 6v158c0 3 -2 5 -5 5h-120c-21 0 -36 15 -36 35s15 35 36 35z" />
    <glyph glyph-name="H" unicode="H" horiz-adv-x="699" 
d="M574 700c20 0 35 -15 35 -36v-628c0 -21 -15 -36 -36 -36c-20 0 -34 15 -34 36v235c0 3 -2 5 -5 5h-369c-3 0 -5 -2 -5 -5v-235c0 -21 -15 -36 -36 -36c-20 0 -34 15 -34 36v628c0 21 15 36 36 36c20 0 34 -15 34 -36v-313c0 -3 2 -5 5 -5h369c3 0 5 2 5 5v313
c0 21 15 36 35 36z" />
    <glyph glyph-name="Hbar" unicode="&#x126;" horiz-adv-x="785" 
d="M657 544h42c21 0 36 -15 36 -35s-15 -35 -36 -35h-42c-3 0 -5 -2 -5 -5v-433c0 -21 -15 -36 -36 -36c-20 0 -34 15 -34 36v235c0 3 -2 5 -5 5h-369c-3 0 -5 -2 -5 -5v-235c0 -21 -15 -36 -36 -36c-20 0 -34 15 -34 36v433c0 3 -2 5 -5 5h-42c-21 0 -36 15 -36 35
s15 35 36 35h42c3 0 5 2 5 5v115c0 21 15 36 36 36c20 0 34 -15 34 -36v-115c0 -3 2 -5 5 -5h369c3 0 5 2 5 5v115c0 21 15 36 35 36s35 -15 35 -36v-115c0 -3 2 -5 5 -5zM582 351v118c0 3 -2 5 -5 5h-369c-3 0 -5 -2 -5 -5v-118c0 -3 2 -5 5 -5h369c3 0 5 2 5 5z" />
    <glyph glyph-name="I" unicode="I" horiz-adv-x="250" 
d="M160 664v-628c0 -21 -15 -36 -35 -36s-35 15 -35 36v628c0 21 15 36 35 36s35 -15 35 -36z" />
    <glyph glyph-name="IJ" unicode="&#x132;" horiz-adv-x="818" 
d="M160 664v-628c0 -21 -15 -36 -35 -36s-35 15 -35 36v628c0 21 15 36 35 36s35 -15 35 -36zM692 699c21 0 35 -15 35 -35l1 -443c0 -128 -104 -232 -233 -232c-89 0 -167 51 -206 125c-10 20 -1 39 18 47c21 9 37 -1 46 -18c28 -50 81 -84 142 -84c90 0 163 73 163 162
l-1 442c0 21 15 36 35 36z" />
    <glyph glyph-name="Iacute" unicode="&#xcd;" horiz-adv-x="250" 
d="M224 862l-70 -67c-12 -11 -22 -15 -38 -15c-23 0 -30 16 -16 36l56 86c10 15 24 19 40 11l21 -10c20 -9 23 -25 7 -41zM160 664v-628c0 -21 -15 -36 -35 -36s-35 15 -35 36v628c0 21 15 36 35 36s35 -15 35 -36z" />
    <glyph glyph-name="Icircumflex" unicode="&#xce;" horiz-adv-x="250" 
d="M181 794l-38 34c-14 13 -28 13 -42 0l-38 -34c-11 -10 -22 -14 -37 -14c-23 0 -29 17 -13 37l62 77c10 12 21 17 36 17h24c15 0 26 -5 36 -17l62 -77c16 -20 15 -37 -3 -37h-12c-15 0 -26 4 -37 14zM160 664v-628c0 -21 -15 -36 -35 -36s-35 15 -35 36v628
c0 21 15 36 35 36s35 -15 35 -36z" />
    <glyph glyph-name="Idieresis" unicode="&#xcf;" horiz-adv-x="250" 
d="M81 828c0 -28 -19 -48 -45 -48s-45 20 -45 48c0 27 19 47 45 47s45 -20 45 -47zM257 828c0 -28 -19 -48 -45 -48s-45 20 -45 48c0 27 19 47 45 47s45 -20 45 -47zM160 664v-628c0 -21 -15 -36 -35 -36s-35 15 -35 36v628c0 21 15 36 35 36s35 -15 35 -36z" />
    <glyph glyph-name="Idotaccent" unicode="&#x130;" horiz-adv-x="250" 
d="M171 828c0 -28 -20 -48 -47 -48s-47 20 -47 48s20 48 47 48s47 -20 47 -48zM160 664v-628c0 -21 -15 -36 -35 -36s-35 15 -35 36v628c0 21 15 36 35 36s35 -15 35 -36z" />
    <glyph glyph-name="Igrave" unicode="&#xcc;" horiz-adv-x="250" 
d="M88 795l-70 67c-16 16 -13 32 7 41l21 10c16 8 30 4 40 -11l56 -86c14 -20 7 -36 -16 -36c-16 0 -26 4 -38 15zM160 664v-628c0 -21 -15 -36 -35 -36s-35 15 -35 36v628c0 21 15 36 35 36s35 -15 35 -36z" />
    <glyph glyph-name="Imacron" unicode="&#x12a;" horiz-adv-x="250" 
d="M282 814c0 -20 -12 -34 -36 -34h-244c-21 0 -36 14 -36 34c0 19 15 33 36 33h244c24 0 36 -14 36 -33zM160 664v-628c0 -21 -15 -36 -35 -36s-35 15 -35 36v628c0 21 15 36 35 36s35 -15 35 -36z" />
    <glyph glyph-name="Iogonek" unicode="&#x12e;" horiz-adv-x="260" 
d="M205 -140c8 -17 0 -30 -13 -37c-62 -34 -182 -23 -182 79c0 60 39 101 81 124c-1 3 -1 6 -1 10v628c0 21 15 36 35 36s35 -15 35 -36v-628l-1 -8l3 -3l-4 -2c-5 -14 -18 -23 -34 -23c-46 -38 -52 -81 -41 -106c17 -38 70 -32 89 -24c13 5 27 2 33 -10z" />
    <glyph glyph-name="J" unicode="J" horiz-adv-x="568" 
d="M442 699c21 0 35 -15 35 -35l1 -443c0 -128 -104 -232 -233 -232c-89 0 -167 51 -206 125c-10 20 -1 39 18 47c21 9 37 -1 46 -18c28 -50 81 -84 142 -84c90 0 163 73 163 162l-1 442c0 21 15 36 35 36z" />
    <glyph glyph-name="K" unicode="K" horiz-adv-x="681" 
d="M367 388l270 -331c13 -16 11 -37 -5 -50s-37 -11 -50 6l-264 325c-2 2 -4 2 -7 0l-148 -151c-2 -2 -3 -4 -3 -6v-145c0 -21 -15 -36 -35 -36s-35 15 -35 36v628c0 21 15 36 35 36s35 -15 35 -36v-372c0 -5 3 -6 6 -3l393 401c14 15 35 15 50 1s15 -35 0 -50l-242 -246
c-2 -2 -2 -4 0 -7z" />
    <glyph glyph-name="Kcommaaccent" unicode="&#x136;" horiz-adv-x="681" 
d="M367 388l270 -331c13 -16 11 -37 -5 -50s-37 -11 -50 6l-264 325c-2 2 -4 2 -7 0l-148 -151c-2 -2 -3 -4 -3 -6v-145c0 -21 -15 -36 -35 -36s-35 15 -35 36v628c0 21 15 36 35 36s35 -15 35 -36v-372c0 -5 3 -6 6 -3l393 401c14 15 35 15 50 1s15 -35 0 -50l-242 -246
c-2 -2 -2 -4 0 -7zM287 -290c-4 11 8 22 26 33c26 16 37 38 35 67c0 3 -2 5 -5 5c-18 3 -31 19 -31 41v23c0 24 17 41 41 41h10c24 0 41 -17 41 -41v-49c0 -67 -24 -105 -74 -126c-21 -8 -39 -4 -43 6z" />
    <glyph glyph-name="L" unicode="L" horiz-adv-x="526" 
d="M165 70h310c21 0 36 -15 36 -35s-15 -35 -36 -35h-350c-20 0 -35 15 -35 36v628c0 21 15 36 35 36s35 -15 35 -36v-589c0 -3 2 -5 5 -5z" />
    <glyph glyph-name="Lacute" unicode="&#x139;" horiz-adv-x="526" 
d="M224 862l-70 -67c-12 -11 -22 -15 -38 -15c-23 0 -30 16 -16 36l56 86c10 15 24 19 40 11l21 -10c20 -9 23 -25 7 -41zM165 70h310c21 0 36 -15 36 -35s-15 -35 -36 -35h-350c-20 0 -35 15 -35 36v628c0 21 15 36 35 36s35 -15 35 -36v-589c0 -3 2 -5 5 -5z" />
    <glyph glyph-name="Lcaron" unicode="&#x13d;" horiz-adv-x="533" 
d="M281 438c-11 0 -16 6 -15 18l21 219c2 21 18 35 39 35h16h10c19 -1 28 -17 22 -36l-70 -218c-5 -17 -10 -18 -23 -18zM165 70h310c21 0 36 -15 36 -35s-15 -35 -36 -35h-350c-20 0 -35 15 -35 36v628c0 21 15 36 35 36s35 -15 35 -36v-589c0 -3 2 -5 5 -5z" />
    <glyph glyph-name="Lcommaaccent" unicode="&#x13b;" horiz-adv-x="526" 
d="M165 70h310c21 0 36 -15 36 -35s-15 -35 -36 -35h-350c-20 0 -35 15 -35 36v628c0 21 15 36 35 36s35 -15 35 -36v-589c0 -3 2 -5 5 -5zM203 -290c-4 11 8 22 26 33c26 16 37 38 35 67c0 3 -2 5 -5 5c-18 3 -31 19 -31 41v23c0 24 17 41 41 41h10c24 0 41 -17 41 -41v-49
c0 -67 -24 -105 -74 -126c-21 -8 -39 -4 -43 6z" />
    <glyph glyph-name="Ldot" unicode="&#x13f;" horiz-adv-x="526" 
d="M165 70h310c21 0 36 -15 36 -35s-15 -35 -36 -35h-350c-20 0 -35 15 -35 36v628c0 21 15 36 35 36s35 -15 35 -36v-589c0 -3 2 -5 5 -5zM373 362v-23c0 -24 -17 -41 -41 -41h-10c-24 0 -41 17 -41 41v23c0 24 17 41 41 41h10c24 0 41 -17 41 -41z" />
    <glyph glyph-name="Lslash" unicode="&#x141;" horiz-adv-x="610" 
d="M248 70h310c21 0 36 -15 36 -35s-15 -35 -36 -35h-350c-20 0 -35 15 -35 36v278c0 4 -2 5 -6 4l-58 -26c-19 -9 -39 -2 -47 17s0 38 18 46l89 39c3 2 4 3 4 6v264c0 21 15 36 35 36s35 -15 35 -36v-231c0 -3 2 -5 6 -3l134 59c19 9 39 2 47 -17s0 -38 -19 -46l-164 -73
c-3 -1 -4 -3 -4 -6v-272c0 -3 2 -5 5 -5z" />
    <glyph glyph-name="M" unicode="M" horiz-adv-x="846" 
d="M431 315l259 369c9 12 21 17 33 16c20 -1 33 -16 33 -36v-628c0 -21 -14 -36 -34 -36c-21 0 -36 15 -36 36v514c0 5 -3 6 -6 2l-222 -315c-8 -11 -19 -16 -30 -16s-22 5 -30 16l-232 316c-3 3 -6 2 -6 -2v-515c0 -21 -15 -36 -36 -36c-20 0 -34 15 -34 36v628
c0 20 14 35 33 36c12 1 24 -4 33 -16l268 -369c2 -3 5 -3 7 0z" />
    <glyph glyph-name="N" unicode="N" horiz-adv-x="744" 
d="M584 146v518c0 21 15 36 36 36c20 0 34 -15 34 -36v-628c0 -21 -15 -36 -36 -36c-9 0 -18 3 -24 9c-2 2 -4 4 -6 7l-422 540c-3 4 -6 3 -6 -2v-518c0 -21 -15 -36 -36 -36c-20 0 -34 15 -34 36v628c0 21 15 36 36 36c9 0 18 -3 24 -9c2 -2 4 -4 6 -7l422 -540
c3 -4 6 -3 6 2z" />
    <glyph glyph-name="Nacute" unicode="&#x143;" horiz-adv-x="744" 
d="M472 862l-70 -67c-12 -11 -22 -15 -38 -15c-23 0 -30 16 -16 36l56 86c10 15 24 19 40 11l21 -10c20 -9 23 -25 7 -41zM584 146v518c0 21 15 36 36 36c20 0 34 -15 34 -36v-628c0 -21 -15 -36 -36 -36c-9 0 -18 3 -24 9c-2 2 -4 4 -6 7l-422 540c-3 4 -6 3 -6 -2v-518
c0 -21 -15 -36 -36 -36c-20 0 -34 15 -34 36v628c0 21 15 36 36 36c9 0 18 -3 24 -9c2 -2 4 -4 6 -7l422 -540c3 -4 6 -3 6 2z" />
    <glyph glyph-name="Ncaron" unicode="&#x147;" horiz-adv-x="744" 
d="M391 863l38 34c11 10 22 14 37 14h12c18 0 19 -17 3 -37l-62 -77c-10 -12 -21 -17 -36 -17h-24c-15 0 -26 5 -36 17l-62 77c-16 20 -10 37 13 37c15 0 26 -4 37 -14l38 -34c14 -13 28 -13 42 0zM584 146v518c0 21 15 36 36 36c20 0 34 -15 34 -36v-628
c0 -21 -15 -36 -36 -36c-9 0 -18 3 -24 9c-2 2 -4 4 -6 7l-422 540c-3 4 -6 3 -6 -2v-518c0 -21 -15 -36 -36 -36c-20 0 -34 15 -34 36v628c0 21 15 36 36 36c9 0 18 -3 24 -9c2 -2 4 -4 6 -7l422 -540c3 -4 6 -3 6 2z" />
    <glyph glyph-name="Ncommaaccent" unicode="&#x145;" horiz-adv-x="744" 
d="M584 146v518c0 21 15 36 36 36c20 0 34 -15 34 -36v-628c0 -21 -15 -36 -36 -36c-9 0 -18 3 -24 9c-2 2 -4 4 -6 7l-422 540c-3 4 -6 3 -6 -2v-518c0 -21 -15 -36 -36 -36c-20 0 -34 15 -34 36v628c0 21 15 36 36 36c9 0 18 -3 24 -9c2 -2 4 -4 6 -7l422 -540
c3 -4 6 -3 6 2zM314 -290c-4 11 8 22 26 33c26 16 37 38 35 67c0 3 -2 5 -5 5c-18 3 -31 19 -31 41v23c0 24 17 41 41 41h10c24 0 41 -17 41 -41v-49c0 -67 -24 -105 -74 -126c-21 -8 -39 -4 -43 6z" />
    <glyph glyph-name="Eng" unicode="&#x14a;" horiz-adv-x="688" 
d="M621 700c20 0 34 -15 34 -36v-724c0 -106 -100 -140 -179 -140c-21 0 -33 15 -33 35c0 16 13 34 37 34c72 0 105 29 105 90v59c0 2 -1 4 -2 6l-416 532c-3 4 -6 3 -6 -2v-518c0 -21 -15 -36 -36 -36c-20 0 -34 15 -34 36v628c0 21 15 36 36 36c9 0 18 -3 24 -9
c2 -2 4 -4 6 -7l422 -540c3 -4 6 -3 6 2v518c0 21 15 36 36 36z" />
    <glyph glyph-name="Ntilde" unicode="&#xd1;" horiz-adv-x="744" 
d="M513 892c15 -5 21 -18 14 -37c-19 -53 -45 -75 -86 -75c-45 0 -100 40 -134 40c-19 0 -29 -7 -40 -24c-9 -16 -21 -23 -39 -18c-13 4 -18 16 -11 36c19 53 45 75 86 75c45 0 100 -40 134 -40c19 0 30 7 40 24c9 16 20 23 36 19zM584 146v518c0 21 15 36 36 36
c20 0 34 -15 34 -36v-628c0 -21 -15 -36 -36 -36c-9 0 -18 3 -24 9c-2 2 -4 4 -6 7l-422 540c-3 4 -6 3 -6 -2v-518c0 -21 -15 -36 -36 -36c-20 0 -34 15 -34 36v628c0 21 15 36 36 36c9 0 18 -3 24 -9c2 -2 4 -4 6 -7l422 -540c3 -4 6 -3 6 2z" />
    <glyph glyph-name="O" unicode="O" horiz-adv-x="778" 
d="M728 350c0 -199 -152 -360 -339 -360s-339 161 -339 360s152 360 339 360s339 -161 339 -360zM658 350c0 161 -122 290 -269 290s-269 -129 -269 -290s122 -290 269 -290s269 129 269 290z" />
    <glyph glyph-name="Oacute" unicode="&#xd3;" horiz-adv-x="778" 
d="M487 862l-70 -67c-12 -11 -22 -15 -38 -15c-23 0 -30 16 -16 36l56 86c10 15 24 19 40 11l21 -10c20 -9 23 -25 7 -41zM728 350c0 -199 -152 -360 -339 -360s-339 161 -339 360s152 360 339 360s339 -161 339 -360zM658 350c0 161 -122 290 -269 290s-269 -129 -269 -290
s122 -290 269 -290s269 129 269 290z" />
    <glyph glyph-name="Ocircumflex" unicode="&#xd4;" horiz-adv-x="778" 
d="M444 794l-38 34c-14 13 -28 13 -42 0l-38 -34c-11 -10 -22 -14 -37 -14c-23 0 -29 17 -13 37l62 77c10 12 21 17 36 17h24c15 0 26 -5 36 -17l62 -77c16 -20 15 -37 -3 -37h-12c-15 0 -26 4 -37 14zM728 350c0 -199 -152 -360 -339 -360s-339 161 -339 360
s152 360 339 360s339 -161 339 -360zM658 350c0 161 -122 290 -269 290s-269 -129 -269 -290s122 -290 269 -290s269 129 269 290z" />
    <glyph glyph-name="Odieresis" unicode="&#xd6;" horiz-adv-x="778" 
d="M344 828c0 -28 -19 -48 -45 -48s-45 20 -45 48c0 27 19 47 45 47s45 -20 45 -47zM520 828c0 -28 -19 -48 -45 -48s-45 20 -45 48c0 27 19 47 45 47s45 -20 45 -47zM728 350c0 -199 -152 -360 -339 -360s-339 161 -339 360s152 360 339 360s339 -161 339 -360zM658 350
c0 161 -122 290 -269 290s-269 -129 -269 -290s122 -290 269 -290s269 129 269 290z" />
    <glyph glyph-name="Ograve" unicode="&#xd2;" horiz-adv-x="778" 
d="M351 795l-70 67c-16 16 -13 32 7 41l21 10c16 8 30 4 40 -11l56 -86c14 -20 7 -36 -16 -36c-16 0 -26 4 -38 15zM728 350c0 -199 -152 -360 -339 -360s-339 161 -339 360s152 360 339 360s339 -161 339 -360zM658 350c0 161 -122 290 -269 290s-269 -129 -269 -290
s122 -290 269 -290s269 129 269 290z" />
    <glyph glyph-name="Ohungarumlaut" unicode="&#x150;" horiz-adv-x="778" 
d="M397 854l-54 -54c-14 -14 -28 -20 -49 -20c-19 0 -19 21 -1 48l42 65c14 21 32 26 55 15c25 -12 28 -33 7 -54zM561 854l-54 -54c-15 -14 -29 -20 -50 -20c-18 0 -18 21 0 48l42 65c14 21 32 26 55 15c25 -12 28 -33 7 -54zM728 350c0 -199 -152 -360 -339 -360
s-339 161 -339 360s152 360 339 360s339 -161 339 -360zM658 350c0 161 -122 290 -269 290s-269 -129 -269 -290s122 -290 269 -290s269 129 269 290z" />
    <glyph glyph-name="Omacron" unicode="&#x14c;" horiz-adv-x="778" 
d="M545 814c0 -20 -12 -34 -36 -34h-244c-21 0 -36 14 -36 34c0 19 15 33 36 33h244c24 0 36 -14 36 -33zM728 350c0 -199 -152 -360 -339 -360s-339 161 -339 360s152 360 339 360s339 -161 339 -360zM658 350c0 161 -122 290 -269 290s-269 -129 -269 -290
s122 -290 269 -290s269 129 269 290z" />
    <glyph glyph-name="Oslash" unicode="&#xd8;" horiz-adv-x="768" 
d="M697 678l-63 -78c-2 -2 -2 -4 0 -7c55 -64 89 -149 89 -243c0 -199 -152 -360 -339 -360c-71 0 -137 23 -191 63c-3 2 -5 1 -7 -1l-59 -72c-14 -16 -35 -19 -51 -5c-15 12 -16 33 -3 49l62 75c1 3 1 5 -1 7c-55 64 -89 150 -89 244c0 199 152 360 339 360
c71 0 137 -23 192 -63c2 -2 5 -2 7 1l60 74c14 16 35 19 51 5c15 -12 16 -33 3 -49zM115 350c0 -72 24 -137 64 -188c2 -2 5 -2 7 0l346 424c2 2 2 5 -1 7c-43 30 -93 47 -147 47c-147 0 -269 -129 -269 -290zM384 60c147 0 269 129 269 290c0 72 -24 137 -64 187
c-2 3 -5 3 -7 0l-346 -423c-2 -2 -1 -5 1 -7c43 -30 93 -47 147 -47z" />
    <glyph glyph-name="Otilde" unicode="&#xd5;" horiz-adv-x="778" 
d="M528 892c15 -5 21 -18 14 -37c-19 -53 -45 -75 -86 -75c-45 0 -100 40 -134 40c-19 0 -29 -7 -40 -24c-9 -16 -21 -23 -39 -18c-13 4 -18 16 -11 36c19 53 45 75 86 75c45 0 100 -40 134 -40c19 0 30 7 40 24c9 16 20 23 36 19zM728 350c0 -199 -152 -360 -339 -360
s-339 161 -339 360s152 360 339 360s339 -161 339 -360zM658 350c0 161 -122 290 -269 290s-269 -129 -269 -290s122 -290 269 -290s269 129 269 290z" />
    <glyph glyph-name="OE" unicode="&#x152;" horiz-adv-x="976" 
d="M575 70h315c21 0 36 -15 36 -35s-15 -35 -36 -35h-356h-1h-174c-213 0 -320 127 -320 350s107 350 320 350h174h1h1h355c21 0 36 -15 36 -35s-15 -35 -36 -35h-315c-3 0 -5 -2 -5 -5v-275c0 -3 2 -5 5 -5h272c21 0 36 -15 36 -35s-15 -35 -36 -35h-272c-3 0 -5 -2 -5 -5
v-195c0 -3 2 -5 5 -5zM498 75v550c0 3 -2 5 -5 5h-134c-174 0 -250 -95 -250 -280s76 -280 250 -280h134c3 0 5 2 5 5z" />
    <glyph glyph-name="P" unicode="P" horiz-adv-x="595" 
d="M126 700h245c105 0 189 -84 189 -214c0 -129 -84 -213 -189 -213h-206c-3 0 -5 -2 -5 -5v-232c0 -21 -15 -36 -36 -36c-20 0 -34 15 -34 36v628c0 21 15 36 36 36zM165 343h206c66 0 119 53 119 143c0 91 -53 144 -119 144h-206c-3 0 -5 -2 -5 -5v-277c0 -3 2 -5 5 -5z
" />
    <glyph glyph-name="Thorn" unicode="&#xde;" horiz-adv-x="541" 
d="M513 371c0 -209 -124 -214 -324 -214c-3 0 -5 -2 -5 -5v-116c0 -21 -15 -36 -36 -36c-20 0 -34 15 -34 36v668c0 21 15 36 36 36c20 0 34 -15 34 -36v-114c0 -3 2 -5 5 -5c209 0 324 -5 324 -214zM184 510v-278c0 -3 2 -5 5 -5c173 -1 254 -6 254 144
c0 149 -81 145 -254 144c-3 0 -5 -2 -5 -5z" />
    <glyph glyph-name="Q" unicode="Q" horiz-adv-x="774" 
d="M533 24l-115 -56c-5 -3 -4 -6 1 -7c87 -23 88 -68 185 -68c66 0 125 36 159 68c14 13 31 15 46 4c18 -13 21 -37 4 -52c-44 -42 -122 -90 -209 -90c-97 0 -180 66 -218 74c-49 10 -91 4 -142 -16c-19 -7 -38 -1 -47 17s-3 38 16 48l106 52c-153 34 -269 178 -269 352
c0 199 152 360 339 360s339 -161 339 -360c0 -144 -80 -269 -195 -326zM120 350c0 -161 122 -290 269 -290s269 129 269 290s-122 290 -269 290s-269 -129 -269 -290z" />
    <glyph glyph-name="R" unicode="R" horiz-adv-x="633" 
d="M126 700h245c105 0 189 -84 189 -204c0 -81 -39 -146 -97 -179c-3 -2 -3 -4 0 -7c42 -28 74 -68 74 -120c0 -75 4 -101 34 -122c15 -10 27 -27 20 -46c-8 -22 -35 -28 -53 -16c-59 39 -71 107 -71 190c0 64 -62 97 -118 97h-184c-3 0 -5 -2 -5 -5v-252
c0 -21 -15 -36 -36 -36c-20 0 -34 15 -34 36v628c0 21 15 36 36 36zM165 363h206c66 0 119 53 119 133c0 81 -53 134 -119 134h-206c-3 0 -5 -2 -5 -5v-257c0 -3 2 -5 5 -5z" />
    <glyph glyph-name="Racute" unicode="&#x154;" horiz-adv-x="633" 
d="M392 862l-70 -67c-12 -11 -22 -15 -38 -15c-23 0 -30 16 -16 36l56 86c10 15 24 19 40 11l21 -10c20 -9 23 -25 7 -41zM126 700h245c105 0 189 -84 189 -204c0 -81 -39 -146 -97 -179c-3 -2 -3 -4 0 -7c42 -28 74 -68 74 -120c0 -75 4 -101 34 -122c15 -10 27 -27 20 -46
c-8 -22 -35 -28 -53 -16c-59 39 -71 107 -71 190c0 64 -62 97 -118 97h-184c-3 0 -5 -2 -5 -5v-252c0 -21 -15 -36 -36 -36c-20 0 -34 15 -34 36v628c0 21 15 36 36 36zM165 363h206c66 0 119 53 119 133c0 81 -53 134 -119 134h-206c-3 0 -5 -2 -5 -5v-257c0 -3 2 -5 5 -5z
" />
    <glyph glyph-name="Rcaron" unicode="&#x158;" horiz-adv-x="633" 
d="M336 863l38 34c11 10 22 14 37 14h12c18 0 19 -17 3 -37l-62 -77c-10 -12 -21 -17 -36 -17h-24c-15 0 -26 5 -36 17l-62 77c-16 20 -10 37 13 37c15 0 26 -4 37 -14l38 -34c14 -13 28 -13 42 0zM126 700h245c105 0 189 -84 189 -204c0 -81 -39 -146 -97 -179
c-3 -2 -3 -4 0 -7c42 -28 74 -68 74 -120c0 -75 4 -101 34 -122c15 -10 27 -27 20 -46c-8 -22 -35 -28 -53 -16c-59 39 -71 107 -71 190c0 64 -62 97 -118 97h-184c-3 0 -5 -2 -5 -5v-252c0 -21 -15 -36 -36 -36c-20 0 -34 15 -34 36v628c0 21 15 36 36 36zM165 363h206
c66 0 119 53 119 133c0 81 -53 134 -119 134h-206c-3 0 -5 -2 -5 -5v-257c0 -3 2 -5 5 -5z" />
    <glyph glyph-name="Rcommaaccent" unicode="&#x156;" horiz-adv-x="633" 
d="M126 700h245c105 0 189 -84 189 -204c0 -81 -39 -146 -97 -179c-3 -2 -3 -4 0 -7c42 -28 74 -68 74 -120c0 -75 4 -101 34 -122c15 -10 27 -27 20 -46c-8 -22 -35 -28 -53 -16c-59 39 -71 107 -71 190c0 64 -62 97 -118 97h-184c-3 0 -5 -2 -5 -5v-252
c0 -21 -15 -36 -36 -36c-20 0 -34 15 -34 36v628c0 21 15 36 36 36zM165 363h206c66 0 119 53 119 133c0 81 -53 134 -119 134h-206c-3 0 -5 -2 -5 -5v-257c0 -3 2 -5 5 -5zM259 -290c-4 11 8 22 26 33c26 16 37 38 35 67c0 3 -2 5 -5 5c-18 3 -31 19 -31 41v23
c0 24 17 41 41 41h10c24 0 41 -17 41 -41v-49c0 -67 -24 -105 -74 -126c-21 -8 -39 -4 -43 6z" />
    <glyph glyph-name="S" unicode="S" horiz-adv-x="612" 
d="M55 94c-15 19 -13 38 2 50c16 13 36 9 49 -3c42 -38 101 -80 195 -80c106 0 196 36 196 124c0 71 -49 104 -174 140c-122 36 -272 63 -272 199c0 129 133 186 233 186c105 0 171 -41 223 -78c17 -12 22 -34 9 -52c-11 -15 -32 -18 -46 -7c-43 33 -94 67 -186 67
c-76 0 -163 -39 -163 -116c0 -78 96 -95 222 -131c123 -36 224 -83 224 -208c0 -144 -140 -194 -266 -194c-105 0 -214 57 -246 103z" />
    <glyph glyph-name="Sacute" unicode="&#x15a;" horiz-adv-x="612" 
d="M411 862l-70 -67c-12 -11 -22 -15 -38 -15c-23 0 -30 16 -16 36l56 86c10 15 24 19 40 11l21 -10c20 -9 23 -25 7 -41zM55 94c-15 19 -13 38 2 50c16 13 36 9 49 -3c42 -38 101 -80 195 -80c106 0 196 36 196 124c0 71 -49 104 -174 140c-122 36 -272 63 -272 199
c0 129 133 186 233 186c105 0 171 -41 223 -78c17 -12 22 -34 9 -52c-11 -15 -32 -18 -46 -7c-43 33 -94 67 -186 67c-76 0 -163 -39 -163 -116c0 -78 96 -95 222 -131c123 -36 224 -83 224 -208c0 -144 -140 -194 -266 -194c-105 0 -214 57 -246 103z" />
    <glyph glyph-name="Scaron" unicode="&#x160;" horiz-adv-x="612" 
d="M330 863l38 34c11 10 22 14 37 14h12c18 0 19 -17 3 -37l-62 -77c-10 -12 -21 -17 -36 -17h-24c-15 0 -26 5 -36 17l-62 77c-16 20 -10 37 13 37c15 0 26 -4 37 -14l38 -34c14 -13 28 -13 42 0zM55 94c-15 19 -13 38 2 50c16 13 36 9 49 -3c42 -38 101 -80 195 -80
c106 0 196 36 196 124c0 71 -49 104 -174 140c-122 36 -272 63 -272 199c0 129 133 186 233 186c105 0 171 -41 223 -78c17 -12 22 -34 9 -52c-11 -15 -32 -18 -46 -7c-43 33 -94 67 -186 67c-76 0 -163 -39 -163 -116c0 -78 96 -95 222 -131c123 -36 224 -83 224 -208
c0 -144 -140 -194 -266 -194c-105 0 -214 57 -246 103z" />
    <glyph glyph-name="Scedilla" unicode="&#x15e;" horiz-adv-x="612" 
d="M567 185c0 -128 -110 -181 -223 -192l-47 -121c-7 -18 -21 -23 -39 -15l-18 8c-19 9 -24 24 -11 41l66 85c-103 2 -209 58 -240 103c-15 19 -13 38 2 50c16 13 36 9 49 -3c42 -38 101 -80 195 -80c106 0 196 36 196 124c0 71 -49 104 -174 140c-122 36 -272 63 -272 199
c0 129 133 186 233 186c105 0 171 -41 223 -78c17 -12 22 -34 9 -52c-11 -15 -32 -18 -46 -7c-43 33 -94 67 -186 67c-76 0 -163 -39 -163 -116c0 -78 96 -95 222 -131c123 -36 224 -83 224 -208z" />
    <glyph glyph-name="Scommaaccent" unicode="&#x218;" horiz-adv-x="612" 
d="M55 94c-15 19 -13 38 2 50c16 13 36 9 49 -3c42 -38 101 -80 195 -80c106 0 196 36 196 124c0 71 -49 104 -174 140c-122 36 -272 63 -272 199c0 129 133 186 233 186c105 0 171 -41 223 -78c17 -12 22 -34 9 -52c-11 -15 -32 -18 -46 -7c-43 33 -94 67 -186 67
c-76 0 -163 -39 -163 -116c0 -78 96 -95 222 -131c123 -36 224 -83 224 -208c0 -144 -140 -194 -266 -194c-105 0 -214 57 -246 103zM253 -290c-4 11 8 22 26 33c26 16 37 38 35 67c0 3 -2 5 -5 5c-18 3 -31 19 -31 41v23c0 24 17 41 41 41h10c24 0 41 -17 41 -41v-49
c0 -67 -24 -105 -74 -126c-21 -8 -39 -4 -43 6z" />
    <glyph glyph-name="T" unicode="T" horiz-adv-x="563" 
d="M533 665c0 -20 -15 -35 -36 -35h-175c-3 0 -5 -2 -5 -5v-589c0 -21 -15 -36 -36 -36c-20 0 -34 15 -34 36v589c0 3 -2 5 -5 5h-176c-21 0 -36 15 -36 36c0 20 15 34 36 34h431c21 0 36 -15 36 -35z" />
    <glyph glyph-name="Tbar" unicode="&#x166;" horiz-adv-x="558" 
d="M59 700h431c21 0 36 -15 36 -35s-15 -35 -36 -35h-175c-3 0 -5 -2 -5 -5v-165c0 -3 2 -5 5 -5h127c21 0 36 -15 36 -36c0 -20 -15 -34 -36 -34h-127c-3 0 -5 -2 -5 -5v-344c0 -21 -15 -36 -36 -36c-20 0 -34 15 -34 36v344c0 3 -2 5 -5 5h-127c-22 0 -36 15 -36 36
c0 20 14 34 36 34h127c3 0 5 2 5 5v165c0 3 -2 5 -5 5h-176c-21 0 -36 15 -36 36c0 20 15 34 36 34z" />
    <glyph glyph-name="Tcaron" unicode="&#x164;" horiz-adv-x="563" 
d="M301 863l38 34c11 10 22 14 37 14h12c18 0 19 -17 3 -37l-62 -77c-10 -12 -21 -17 -36 -17h-24c-15 0 -26 5 -36 17l-62 77c-16 20 -10 37 13 37c15 0 26 -4 37 -14l38 -34c14 -13 28 -13 42 0zM533 665c0 -20 -15 -35 -36 -35h-175c-3 0 -5 -2 -5 -5v-589
c0 -21 -15 -36 -36 -36c-20 0 -34 15 -34 36v589c0 3 -2 5 -5 5h-176c-21 0 -36 15 -36 36c0 20 15 34 36 34h431c21 0 36 -15 36 -35z" />
    <glyph glyph-name="Tcedilla" unicode="&#x162;" horiz-adv-x="558" 
d="M66 700h431c21 0 36 -15 36 -35s-15 -35 -36 -35h-175c-3 0 -5 -2 -5 -5v-589c0 -15 -8 -28 -21 -33l-51 -131c-7 -18 -21 -23 -39 -15l-18 8c-19 9 -24 24 -11 41l80 103c-6 7 -10 16 -10 27v589c0 3 -2 5 -5 5h-176c-21 0 -36 15 -36 36c0 20 15 34 36 34z" />
    <glyph glyph-name="uni021A" unicode="&#x21a;" horiz-adv-x="563" 
d="M533 665c0 -20 -15 -35 -36 -35h-175c-3 0 -5 -2 -5 -5v-589c0 -21 -15 -36 -36 -36c-20 0 -34 15 -34 36v589c0 3 -2 5 -5 5h-176c-21 0 -36 15 -36 36c0 20 15 34 36 34h431c21 0 36 -15 36 -35zM224 -290c-4 11 8 22 26 33c26 16 37 38 35 67c0 3 -2 5 -5 5
c-18 3 -31 19 -31 41v23c0 24 17 41 41 41h10c24 0 41 -17 41 -41v-49c0 -67 -24 -105 -74 -126c-21 -8 -39 -4 -43 6z" />
    <glyph glyph-name="U" unicode="U" horiz-adv-x="724" 
d="M609 700c20 0 35 -15 35 -36v-393c0 -155 -126 -281 -282 -281s-282 126 -282 281v393c0 21 15 36 36 36c20 0 34 -15 34 -36v-393c0 -117 95 -211 212 -211s212 94 212 211v393c0 21 15 36 35 36z" />
    <glyph glyph-name="Uacute" unicode="&#xda;" horiz-adv-x="724" 
d="M462 862l-70 -67c-12 -11 -22 -15 -38 -15c-23 0 -30 16 -16 36l56 86c10 15 24 19 40 11l21 -10c20 -9 23 -25 7 -41zM609 700c20 0 35 -15 35 -36v-393c0 -155 -126 -281 -282 -281s-282 126 -282 281v393c0 21 15 36 36 36c20 0 34 -15 34 -36v-393
c0 -117 95 -211 212 -211s212 94 212 211v393c0 21 15 36 35 36z" />
    <glyph glyph-name="Ucircumflex" unicode="&#xdb;" horiz-adv-x="724" 
d="M419 794l-38 34c-14 13 -28 13 -42 0l-38 -34c-11 -10 -22 -14 -37 -14c-23 0 -29 17 -13 37l62 77c10 12 21 17 36 17h24c15 0 26 -5 36 -17l62 -77c16 -20 15 -37 -3 -37h-12c-15 0 -26 4 -37 14zM609 700c20 0 35 -15 35 -36v-393c0 -155 -126 -281 -282 -281
s-282 126 -282 281v393c0 21 15 36 36 36c20 0 34 -15 34 -36v-393c0 -117 95 -211 212 -211s212 94 212 211v393c0 21 15 36 35 36z" />
    <glyph glyph-name="Udieresis" unicode="&#xdc;" horiz-adv-x="724" 
d="M319 828c0 -28 -19 -48 -45 -48s-45 20 -45 48c0 27 19 47 45 47s45 -20 45 -47zM495 828c0 -28 -19 -48 -45 -48s-45 20 -45 48c0 27 19 47 45 47s45 -20 45 -47zM609 700c20 0 35 -15 35 -36v-393c0 -155 -126 -281 -282 -281s-282 126 -282 281v393c0 21 15 36 36 36
c20 0 34 -15 34 -36v-393c0 -117 95 -211 212 -211s212 94 212 211v393c0 21 15 36 35 36z" />
    <glyph glyph-name="Ugrave" unicode="&#xd9;" horiz-adv-x="724" 
d="M326 795l-70 67c-16 16 -13 32 7 41l21 10c16 8 30 4 40 -11l56 -86c14 -20 7 -36 -16 -36c-16 0 -26 4 -38 15zM609 700c20 0 35 -15 35 -36v-393c0 -155 -126 -281 -282 -281s-282 126 -282 281v393c0 21 15 36 36 36c20 0 34 -15 34 -36v-393c0 -117 95 -211 212 -211
s212 94 212 211v393c0 21 15 36 35 36z" />
    <glyph glyph-name="Uhungarumlaut" unicode="&#x170;" horiz-adv-x="724" 
d="M372 854l-54 -54c-14 -14 -28 -20 -49 -20c-19 0 -19 21 -1 48l42 65c14 21 32 26 55 15c25 -12 28 -33 7 -54zM536 854l-54 -54c-15 -14 -29 -20 -50 -20c-18 0 -18 21 0 48l42 65c14 21 32 26 55 15c25 -12 28 -33 7 -54zM609 700c20 0 35 -15 35 -36v-393
c0 -155 -126 -281 -282 -281s-282 126 -282 281v393c0 21 15 36 36 36c20 0 34 -15 34 -36v-393c0 -117 95 -211 212 -211s212 94 212 211v393c0 21 15 36 35 36z" />
    <glyph glyph-name="Umacron" unicode="&#x16a;" horiz-adv-x="724" 
d="M520 814c0 -20 -12 -34 -36 -34h-244c-21 0 -36 14 -36 34c0 19 15 33 36 33h244c24 0 36 -14 36 -33zM609 700c20 0 35 -15 35 -36v-393c0 -155 -126 -281 -282 -281s-282 126 -282 281v393c0 21 15 36 36 36c20 0 34 -15 34 -36v-393c0 -117 95 -211 212 -211
s212 94 212 211v393c0 21 15 36 35 36z" />
    <glyph glyph-name="Uogonek" unicode="&#x172;" horiz-adv-x="719" 
d="M609 700c20 0 35 -15 35 -36v-393c0 -153 -122 -277 -275 -281c-36 -35 -40 -73 -30 -96c17 -38 70 -32 89 -24c13 5 27 2 33 -10c8 -17 0 -30 -13 -37c-62 -34 -182 -23 -182 79c0 39 17 70 40 93c-129 26 -226 140 -226 276v393c0 21 15 36 36 36c20 0 34 -15 34 -36
v-393c0 -117 95 -211 212 -211s212 94 212 211v393c0 21 15 36 35 36z" />
    <glyph glyph-name="Uring" unicode="&#x16e;" horiz-adv-x="724" 
d="M466 880c0 -55 -49 -100 -104 -100s-104 45 -104 100s49 100 104 100s104 -45 104 -100zM412 880c0 27 -23 50 -50 50s-50 -23 -50 -50s23 -50 50 -50s50 23 50 50zM609 700c20 0 35 -15 35 -36v-393c0 -155 -126 -281 -282 -281s-282 126 -282 281v393c0 21 15 36 36 36
c20 0 34 -15 34 -36v-393c0 -117 95 -211 212 -211s212 94 212 211v393c0 21 15 36 35 36z" />
    <glyph glyph-name="V" unicode="V" horiz-adv-x="670" 
d="M338 128l244 551c8 19 28 27 46 19c19 -8 27 -28 19 -47l-279 -629c-6 -14 -19 -23 -33 -22c-14 -1 -27 8 -33 22l-279 629c-8 19 0 39 19 47c18 8 38 0 46 -19l244 -551c1 -4 5 -4 6 0z" />
    <glyph glyph-name="W" unicode="W" horiz-adv-x="934" 
d="M667 138l179 537c7 20 24 30 43 24c20 -6 30 -25 23 -45l-209 -629c-6 -17 -19 -26 -34 -26c-17 -1 -31 8 -37 25l-162 387c-1 4 -5 4 -6 0l-162 -387c-7 -17 -21 -26 -37 -25c-15 0 -28 9 -34 26l-209 629c-7 20 3 39 23 45c19 6 36 -4 43 -24l179 -537c1 -5 4 -5 6 -1
l159 381c7 16 20 25 35 25c16 0 29 -9 35 -25l158 -380c2 -5 6 -5 7 0z" />
    <glyph glyph-name="Wacute" unicode="&#x1e82;" horiz-adv-x="934" 
d="M577 862l-70 -67c-12 -11 -22 -15 -38 -15c-23 0 -30 16 -16 36l56 86c10 15 24 19 40 11l21 -10c20 -9 23 -25 7 -41zM667 138l179 537c7 20 24 30 43 24c20 -6 30 -25 23 -45l-209 -629c-6 -17 -19 -26 -34 -26c-17 -1 -31 8 -37 25l-162 387c-1 4 -5 4 -6 0l-162 -387
c-7 -17 -21 -26 -37 -25c-15 0 -28 9 -34 26l-209 629c-7 20 3 39 23 45c19 6 36 -4 43 -24l179 -537c1 -5 4 -5 6 -1l159 381c7 16 20 25 35 25c16 0 29 -9 35 -25l158 -380c2 -5 6 -5 7 0z" />
    <glyph glyph-name="Wcircumflex" unicode="&#x174;" horiz-adv-x="934" 
d="M534 794l-38 34c-14 13 -28 13 -42 0l-38 -34c-11 -10 -22 -14 -37 -14c-23 0 -29 17 -13 37l62 77c10 12 21 17 36 17h24c15 0 26 -5 36 -17l62 -77c16 -20 15 -37 -3 -37h-12c-15 0 -26 4 -37 14zM667 138l179 537c7 20 24 30 43 24c20 -6 30 -25 23 -45l-209 -629
c-6 -17 -19 -26 -34 -26c-17 -1 -31 8 -37 25l-162 387c-1 4 -5 4 -6 0l-162 -387c-7 -17 -21 -26 -37 -25c-15 0 -28 9 -34 26l-209 629c-7 20 3 39 23 45c19 6 36 -4 43 -24l179 -537c1 -5 4 -5 6 -1l159 381c7 16 20 25 35 25c16 0 29 -9 35 -25l158 -380c2 -5 6 -5 7 0z
" />
    <glyph glyph-name="Wdieresis" unicode="&#x1e84;" horiz-adv-x="934" 
d="M434 828c0 -28 -19 -48 -45 -48s-45 20 -45 48c0 27 19 47 45 47s45 -20 45 -47zM610 828c0 -28 -19 -48 -45 -48s-45 20 -45 48c0 27 19 47 45 47s45 -20 45 -47zM667 138l179 537c7 20 24 30 43 24c20 -6 30 -25 23 -45l-209 -629c-6 -17 -19 -26 -34 -26
c-17 -1 -31 8 -37 25l-162 387c-1 4 -5 4 -6 0l-162 -387c-7 -17 -21 -26 -37 -25c-15 0 -28 9 -34 26l-209 629c-7 20 3 39 23 45c19 6 36 -4 43 -24l179 -537c1 -5 4 -5 6 -1l159 381c7 16 20 25 35 25c16 0 29 -9 35 -25l158 -380c2 -5 6 -5 7 0z" />
    <glyph glyph-name="Wgrave" unicode="&#x1e80;" horiz-adv-x="934" 
d="M441 795l-70 67c-16 16 -13 32 7 41l21 10c16 8 30 4 40 -11l56 -86c14 -20 7 -36 -16 -36c-16 0 -26 4 -38 15zM667 138l179 537c7 20 24 30 43 24c20 -6 30 -25 23 -45l-209 -629c-6 -17 -19 -26 -34 -26c-17 -1 -31 8 -37 25l-162 387c-1 4 -5 4 -6 0l-162 -387
c-7 -17 -21 -26 -37 -25c-15 0 -28 9 -34 26l-209 629c-7 20 3 39 23 45c19 6 36 -4 43 -24l179 -537c1 -5 4 -5 6 -1l159 381c7 16 20 25 35 25c16 0 29 -9 35 -25l158 -380c2 -5 6 -5 7 0z" />
    <glyph glyph-name="X" unicode="X" horiz-adv-x="585" 
d="M557 646l-218 -292c-2 -3 -2 -5 0 -8l218 -292c12 -16 9 -37 -8 -49c-16 -12 -36 -8 -49 9l-203 273c-3 3 -5 3 -8 0l-205 -274c-12 -17 -33 -20 -50 -8c-16 12 -19 32 -7 49l219 293c2 3 2 5 0 8l-218 291c-12 16 -9 37 8 49c16 12 36 8 49 -9l204 -272c3 -3 5 -3 8 0
l204 273c12 17 33 20 50 8c16 -12 19 -32 6 -49z" />
    <glyph glyph-name="Y" unicode="Y" horiz-adv-x="594" 
d="M301 389l210 297c12 17 33 20 49 8s18 -33 7 -49l-233 -329c-1 -2 -2 -4 -2 -6v-274c0 -21 -15 -36 -35 -36s-35 15 -35 36v274c0 2 -1 4 -2 6l-233 329c-11 16 -9 37 7 49s37 9 49 -8l210 -297c3 -3 5 -3 8 0z" />
    <glyph glyph-name="Yacute" unicode="&#xdd;" horiz-adv-x="594" 
d="M396 862l-70 -67c-12 -11 -22 -15 -38 -15c-23 0 -30 16 -16 36l56 86c10 15 24 19 40 11l21 -10c20 -9 23 -25 7 -41zM301 389l210 297c12 17 33 20 49 8s18 -33 7 -49l-233 -329c-1 -2 -2 -4 -2 -6v-274c0 -21 -15 -36 -35 -36s-35 15 -35 36v274c0 2 -1 4 -2 6
l-233 329c-11 16 -9 37 7 49s37 9 49 -8l210 -297c3 -3 5 -3 8 0z" />
    <glyph glyph-name="Ycircumflex" unicode="&#x176;" horiz-adv-x="594" 
d="M353 794l-38 34c-14 13 -28 13 -42 0l-38 -34c-11 -10 -22 -14 -37 -14c-23 0 -29 17 -13 37l62 77c10 12 21 17 36 17h24c15 0 26 -5 36 -17l62 -77c16 -20 15 -37 -3 -37h-12c-15 0 -26 4 -37 14zM301 389l210 297c12 17 33 20 49 8s18 -33 7 -49l-233 -329
c-1 -2 -2 -4 -2 -6v-274c0 -21 -15 -36 -35 -36s-35 15 -35 36v274c0 2 -1 4 -2 6l-233 329c-11 16 -9 37 7 49s37 9 49 -8l210 -297c3 -3 5 -3 8 0z" />
    <glyph glyph-name="Ydieresis" unicode="&#x178;" horiz-adv-x="594" 
d="M253 828c0 -28 -19 -48 -45 -48s-45 20 -45 48c0 27 19 47 45 47s45 -20 45 -47zM429 828c0 -28 -19 -48 -45 -48s-45 20 -45 48c0 27 19 47 45 47s45 -20 45 -47zM301 389l210 297c12 17 33 20 49 8s18 -33 7 -49l-233 -329c-1 -2 -2 -4 -2 -6v-274
c0 -21 -15 -36 -35 -36s-35 15 -35 36v274c0 2 -1 4 -2 6l-233 329c-11 16 -9 37 7 49s37 9 49 -8l210 -297c3 -3 5 -3 8 0z" />
    <glyph glyph-name="Ygrave" unicode="&#x1ef2;" horiz-adv-x="594" 
d="M260 795l-70 67c-16 16 -13 32 7 41l21 10c16 8 30 4 40 -11l56 -86c14 -20 7 -36 -16 -36c-16 0 -26 4 -38 15zM301 389l210 297c12 17 33 20 49 8s18 -33 7 -49l-233 -329c-1 -2 -2 -4 -2 -6v-274c0 -21 -15 -36 -35 -36s-35 15 -35 36v274c0 2 -1 4 -2 6l-233 329
c-11 16 -9 37 7 49s37 9 49 -8l210 -297c3 -3 5 -3 8 0z" />
    <glyph glyph-name="Z" unicode="Z" horiz-adv-x="641" 
d="M115 700h447c4 0 8 0 11 -1c13 -2 22 -10 26 -22c4 -11 3 -23 -6 -34l-441 -567c-2 -3 -1 -6 3 -6h400c21 0 36 -15 36 -36c0 -20 -15 -34 -36 -34h-476c-9 -1 -18 2 -26 8c-14 13 -18 32 -6 47l442 569c2 3 1 6 -3 6h-371c-21 0 -36 15 -36 36c0 20 15 34 36 34z" />
    <glyph glyph-name="Zacute" unicode="&#x179;" horiz-adv-x="641" 
d="M423 862l-70 -67c-12 -11 -22 -15 -38 -15c-23 0 -30 16 -16 36l56 86c10 15 24 19 40 11l21 -10c20 -9 23 -25 7 -41zM115 700h447c4 0 8 0 11 -1c13 -2 22 -10 26 -22c4 -11 3 -23 -6 -34l-441 -567c-2 -3 -1 -6 3 -6h400c21 0 36 -15 36 -36c0 -20 -15 -34 -36 -34
h-476c-9 -1 -18 2 -26 8c-14 13 -18 32 -6 47l442 569c2 3 1 6 -3 6h-371c-21 0 -36 15 -36 36c0 20 15 34 36 34z" />
    <glyph glyph-name="Zcaron" unicode="&#x17d;" horiz-adv-x="641" 
d="M342 863l38 34c11 10 22 14 37 14h12c18 0 19 -17 3 -37l-62 -77c-10 -12 -21 -17 -36 -17h-24c-15 0 -26 5 -36 17l-62 77c-16 20 -10 37 13 37c15 0 26 -4 37 -14l38 -34c14 -13 28 -13 42 0zM115 700h447c4 0 8 0 11 -1c13 -2 22 -10 26 -22c4 -11 3 -23 -6 -34
l-441 -567c-2 -3 -1 -6 3 -6h400c21 0 36 -15 36 -36c0 -20 -15 -34 -36 -34h-476c-9 -1 -18 2 -26 8c-14 13 -18 32 -6 47l442 569c2 3 1 6 -3 6h-371c-21 0 -36 15 -36 36c0 20 15 34 36 34z" />
    <glyph glyph-name="Zdotaccent" unicode="&#x17b;" horiz-adv-x="641" 
d="M370 828c0 -28 -20 -48 -47 -48s-47 20 -47 48s20 48 47 48s47 -20 47 -48zM115 700h447c4 0 8 0 11 -1c13 -2 22 -10 26 -22c4 -11 3 -23 -6 -34l-441 -567c-2 -3 -1 -6 3 -6h400c21 0 36 -15 36 -36c0 -20 -15 -34 -36 -34h-476c-9 -1 -18 2 -26 8c-14 13 -18 32 -6 47
l442 569c2 3 1 6 -3 6h-371c-21 0 -36 15 -36 36c0 20 15 34 36 34z" />
    <glyph glyph-name="A.ss01" horiz-adv-x="818" 
d="M693 700c20 0 35 -15 35 -36v-628c0 -21 -15 -36 -36 -36c-20 0 -34 15 -34 36v94c0 5 -3 6 -6 2c-54 -82 -158 -142 -263 -142c-187 0 -339 161 -339 360s152 360 339 360c105 0 209 -60 263 -142c3 -4 6 -3 6 2v94c0 21 15 36 35 36zM389 60c147 0 269 129 269 290
s-122 290 -269 290s-269 -129 -269 -290s122 -290 269 -290z" />
    <glyph glyph-name="E.ss01" horiz-adv-x="794" 
d="M744 371v-9c0 -21 -15 -36 -36 -36h-582c-3 0 -5 -2 -5 -5c14 -147 133 -261 277 -261c95 0 163 18 222 79c12 12 29 15 43 6c20 -12 23 -37 6 -55c-70 -72 -156 -100 -271 -100c-192 0 -348 161 -348 360s156 360 348 360c202 0 346 -160 346 -339zM129 396h537
c3 0 5 2 5 5c-23 136 -138 239 -273 239c-136 0 -250 -102 -274 -239c0 -3 1 -5 5 -5z" />
    <glyph glyph-name="M.ss01" horiz-adv-x="1156" 
d="M160 665v-66c0 -5 3 -6 6 -2c44 67 113 113 216 113c109 0 171 -61 210 -150c1 -4 4 -4 6 0c36 74 116 150 252 150c155 0 231 -126 231 -282v-392c0 -21 -15 -36 -36 -36c-20 0 -34 15 -34 36v392c0 117 -45 212 -161 212c-137 0 -232 -95 -232 -252v-352
c0 -21 -15 -36 -36 -36c-20 0 -34 15 -34 36v392c0 117 -45 212 -166 212c-137 0 -222 -95 -222 -252v-352c0 -21 -15 -36 -36 -36c-20 0 -34 15 -34 36v629c0 21 15 36 36 36c20 0 34 -15 34 -36z" />
    <glyph glyph-name="N.ss01" horiz-adv-x="733" 
d="M160 665v-66c0 -5 3 -6 6 -2c54 67 133 113 226 113c165 0 261 -126 261 -282v-392c0 -21 -15 -36 -36 -36c-20 0 -34 15 -34 36v392c0 117 -65 212 -191 212c-127 0 -232 -95 -232 -252v-352c0 -21 -15 -36 -36 -36c-20 0 -34 15 -34 36v629c0 21 15 36 36 36
c20 0 34 -15 34 -36z" />
    <glyph glyph-name="Q.ss01" horiz-adv-x="778" 
d="M728 350c0 -185 -131 -337 -299 -358c-3 0 -5 -2 -5 -5v-100c0 -21 -15 -36 -35 -36s-35 15 -35 36v100c0 3 -2 5 -5 5c-168 21 -299 173 -299 358c0 199 152 360 339 360s339 -161 339 -360zM389 60c147 0 269 129 269 290s-122 290 -269 290s-269 -129 -269 -290
s122 -290 269 -290z" />
    <glyph glyph-name="R.ss01" horiz-adv-x="474" 
d="M160 664v-105c0 -5 3 -6 6 -2c74 100 184 148 251 151c24 1 39 -9 44 -24c5 -14 5 -39 -24 -47c-125 -34 -277 -84 -277 -320v-281c0 -21 -15 -36 -35 -36s-35 15 -35 36v628c0 21 15 36 35 36s35 -15 35 -36z" />
    <glyph glyph-name="U.ss01" horiz-adv-x="733" 
d="M573 45v66c0 5 -3 6 -6 2c-54 -67 -133 -113 -226 -113c-165 0 -261 126 -261 282v392c0 21 15 36 36 36c20 0 34 -15 34 -36v-392c0 -117 65 -212 191 -212c127 0 232 95 232 252v352c0 21 15 36 36 36c20 0 34 -15 34 -36v-629c0 -21 -15 -36 -36 -36
c-20 0 -34 15 -34 36z" />
    <glyph glyph-name="W.ss01" horiz-adv-x="1138" 
d="M988 271v393c0 21 15 36 35 36s35 -15 35 -36v-393c0 -155 -126 -281 -262 -281c-103 0 -194 65 -227 146c-33 -81 -124 -146 -227 -146c-156 0 -262 126 -262 281v393c0 21 15 36 36 36c20 0 34 -15 34 -36v-393c0 -117 75 -211 192 -211s192 94 192 211v394
c1 21 15 35 35 35h1c20 0 34 -15 34 -36v-393c0 -117 75 -211 192 -211c97 0 192 94 192 211z" />
    <glyph glyph-name="a" unicode="a" horiz-adv-x="628" 
d="M513 515c20 0 35 -15 35 -36v-443c0 -21 -15 -36 -36 -36c-20 0 -34 15 -34 36v39c0 5 -3 6 -6 2c-34 -54 -108 -87 -175 -87c-139 0 -252 120 -252 267c0 148 113 268 252 268c67 0 141 -33 175 -87c3 -4 6 -3 6 2v39c0 21 15 36 35 36zM297 60c99 0 181 87 181 197
c0 111 -82 198 -181 198s-182 -87 -182 -198c0 -110 83 -197 182 -197z" />
    <glyph glyph-name="aacute" unicode="&#xe1;" horiz-adv-x="628" 
d="M412 697l-70 -67c-12 -11 -22 -15 -38 -15c-23 0 -30 16 -16 36l56 86c10 15 24 19 40 11l21 -10c20 -9 23 -25 7 -41zM513 515c20 0 35 -15 35 -36v-443c0 -21 -15 -36 -36 -36c-20 0 -34 15 -34 36v39c0 5 -3 6 -6 2c-34 -54 -108 -87 -175 -87
c-139 0 -252 120 -252 267c0 148 113 268 252 268c67 0 141 -33 175 -87c3 -4 6 -3 6 2v39c0 21 15 36 35 36zM297 60c99 0 181 87 181 197c0 111 -82 198 -181 198s-182 -87 -182 -198c0 -110 83 -197 182 -197z" />
    <glyph glyph-name="abreve" unicode="&#x103;" horiz-adv-x="628" 
d="M422 748h18c13 0 21 -8 18 -21c-14 -71 -69 -112 -145 -112s-131 41 -145 112c-3 13 5 21 18 21h18c12 0 18 -5 23 -16c14 -33 42 -53 86 -53s72 20 86 53c5 11 11 16 23 16zM513 515c20 0 35 -15 35 -36v-443c0 -21 -15 -36 -36 -36c-20 0 -34 15 -34 36v39
c0 5 -3 6 -6 2c-34 -54 -108 -87 -175 -87c-139 0 -252 120 -252 267c0 148 113 268 252 268c67 0 141 -33 175 -87c3 -4 6 -3 6 2v39c0 21 15 36 35 36zM297 60c99 0 181 87 181 197c0 111 -82 198 -181 198s-182 -87 -182 -198c0 -110 83 -197 182 -197z" />
    <glyph glyph-name="acircumflex" unicode="&#xe2;" horiz-adv-x="628" 
d="M370 629l-38 34c-14 13 -28 13 -42 0l-38 -34c-11 -10 -22 -14 -37 -14c-23 0 -29 17 -13 37l62 77c10 12 21 17 36 17h24c15 0 26 -5 36 -17l62 -77c16 -20 15 -37 -3 -37h-12c-15 0 -26 4 -37 14zM513 515c20 0 35 -15 35 -36v-443c0 -21 -15 -36 -36 -36
c-20 0 -34 15 -34 36v39c0 5 -3 6 -6 2c-34 -54 -108 -87 -175 -87c-139 0 -252 120 -252 267c0 148 113 268 252 268c67 0 141 -33 175 -87c3 -4 6 -3 6 2v39c0 21 15 36 35 36zM297 60c99 0 181 87 181 197c0 111 -82 198 -181 198s-182 -87 -182 -198
c0 -110 83 -197 182 -197z" />
    <glyph glyph-name="adieresis" unicode="&#xe4;" horiz-adv-x="628" 
d="M270 663c0 -28 -19 -48 -45 -48s-45 20 -45 48c0 27 19 47 45 47s45 -20 45 -47zM446 663c0 -28 -19 -48 -45 -48s-45 20 -45 48c0 27 19 47 45 47s45 -20 45 -47zM513 515c20 0 35 -15 35 -36v-443c0 -21 -15 -36 -36 -36c-20 0 -34 15 -34 36v39c0 5 -3 6 -6 2
c-34 -54 -108 -87 -175 -87c-139 0 -252 120 -252 267c0 148 113 268 252 268c67 0 141 -33 175 -87c3 -4 6 -3 6 2v39c0 21 15 36 35 36zM297 60c99 0 181 87 181 197c0 111 -82 198 -181 198s-182 -87 -182 -198c0 -110 83 -197 182 -197z" />
    <glyph glyph-name="agrave" unicode="&#xe0;" horiz-adv-x="628" 
d="M278 630l-70 67c-16 16 -13 32 7 41l21 10c16 8 30 4 40 -11l56 -86c14 -20 7 -36 -16 -36c-16 0 -26 4 -38 15zM513 515c20 0 35 -15 35 -36v-443c0 -21 -15 -36 -36 -36c-20 0 -34 15 -34 36v39c0 5 -3 6 -6 2c-34 -54 -108 -87 -175 -87c-139 0 -252 120 -252 267
c0 148 113 268 252 268c67 0 141 -33 175 -87c3 -4 6 -3 6 2v39c0 21 15 36 35 36zM297 60c99 0 181 87 181 197c0 111 -82 198 -181 198s-182 -87 -182 -198c0 -110 83 -197 182 -197z" />
    <glyph glyph-name="amacron" unicode="&#x101;" horiz-adv-x="628" 
d="M471 649c0 -20 -17 -34 -41 -34h-234c-24 0 -41 12 -41 36c0 15 17 31 41 31h234c24 0 41 -14 41 -33zM513 515c20 0 35 -15 35 -36v-443c0 -21 -15 -36 -36 -36c-20 0 -34 15 -34 36v39c0 5 -3 6 -6 2c-34 -54 -108 -87 -175 -87c-139 0 -252 120 -252 267
c0 148 113 268 252 268c67 0 141 -33 175 -87c3 -4 6 -3 6 2v39c0 21 15 36 35 36zM297 60c99 0 181 87 181 197c0 111 -82 198 -181 198s-182 -87 -182 -198c0 -110 83 -197 182 -197z" />
    <glyph glyph-name="aogonek" unicode="&#x105;" horiz-adv-x="626" 
d="M587 -140c8 -17 0 -30 -13 -37c-62 -34 -182 -23 -182 79c0 62 43 104 87 127l-1 7v39c0 5 -3 6 -6 2c-34 -54 -108 -87 -175 -87c-139 0 -252 120 -252 267c0 148 113 268 252 268c67 0 141 -33 175 -87c3 -4 6 -3 6 2v39c0 21 15 36 35 36s35 -15 35 -36v-443
c0 -21 -15 -36 -36 -36h-5c-47 -38 -53 -81 -42 -106c17 -38 70 -32 89 -24c13 5 27 2 33 -10zM297 60c99 0 181 87 181 197c0 111 -82 198 -181 198s-182 -87 -182 -198c0 -110 83 -197 182 -197z" />
    <glyph glyph-name="aring" unicode="&#xe5;" horiz-adv-x="628" 
d="M417 695c0 -55 -49 -100 -104 -100s-104 45 -104 100s49 100 104 100s104 -45 104 -100zM363 695c0 27 -23 50 -50 50s-50 -23 -50 -50s23 -50 50 -50s50 23 50 50zM513 515c20 0 35 -15 35 -36v-443c0 -21 -15 -36 -36 -36c-20 0 -34 15 -34 36v39c0 5 -3 6 -6 2
c-34 -54 -108 -87 -175 -87c-139 0 -252 120 -252 267c0 148 113 268 252 268c67 0 141 -33 175 -87c3 -4 6 -3 6 2v39c0 21 15 36 35 36zM297 60c99 0 181 87 181 197c0 111 -82 198 -181 198s-182 -87 -182 -198c0 -110 83 -197 182 -197z" />
    <glyph glyph-name="atilde" unicode="&#xe3;" horiz-adv-x="628" 
d="M454 727c15 -5 21 -18 14 -37c-19 -53 -45 -75 -86 -75c-45 0 -100 40 -134 40c-19 0 -29 -7 -40 -24c-9 -16 -21 -23 -39 -18c-13 4 -18 16 -11 36c19 53 45 75 86 75c45 0 100 -40 134 -40c19 0 30 7 40 24c9 16 20 23 36 19zM513 515c20 0 35 -15 35 -36v-443
c0 -21 -15 -36 -36 -36c-20 0 -34 15 -34 36v39c0 5 -3 6 -6 2c-34 -54 -108 -87 -175 -87c-139 0 -252 120 -252 267c0 148 113 268 252 268c67 0 141 -33 175 -87c3 -4 6 -3 6 2v39c0 21 15 36 35 36zM297 60c99 0 181 87 181 197c0 111 -82 198 -181 198
s-182 -87 -182 -198c0 -110 83 -197 182 -197z" />
    <glyph glyph-name="ae" unicode="&#xe6;" horiz-adv-x="1224" 
d="M737 525c140 0 257 -109 257 -243v-16c0 -20 -15 -36 -36 -36h-402c-3 0 -5 -2 -4 -5c14 -94 93 -165 195 -165c70 0 111 25 142 49c16 13 33 11 46 0c11 -9 15 -31 4 -44c-32 -37 -99 -75 -192 -75c-83 0 -156 36 -204 92v-46c0 -21 -15 -36 -36 -36
c-20 0 -34 15 -34 36v39c0 5 -3 6 -6 2c-34 -54 -108 -87 -175 -87c-139 0 -252 120 -252 267c0 148 113 268 252 268c67 0 141 -33 175 -87c3 -4 6 -3 6 2v39c0 21 15 36 35 36s35 -15 35 -36v-37c0 -4 3 -6 6 -3c47 53 114 86 188 86zM292 60c99 0 181 87 181 197
c0 111 -82 198 -181 198s-182 -87 -182 -198c0 -110 83 -197 182 -197zM559 300h356c4 0 6 2 5 6c-21 86 -96 149 -183 149s-162 -63 -183 -149c-1 -4 1 -6 5 -6z" />
    <glyph glyph-name="b" unicode="b" horiz-adv-x="628" 
d="M115 740c20 0 35 -15 35 -36v-264c0 -5 3 -6 6 -2c34 54 108 87 175 87c139 0 252 -120 252 -268c0 -147 -113 -267 -252 -267c-67 0 -141 33 -175 87c-3 4 -6 3 -6 -2v-39c0 -21 -14 -36 -34 -36c-21 0 -36 15 -36 36v668c0 21 15 36 35 36zM331 60c99 0 182 87 182 197
c0 111 -83 198 -182 198s-181 -87 -181 -198c0 -110 82 -197 181 -197z" />
    <glyph glyph-name="c" unicode="c" horiz-adv-x="507" 
d="M460 488c19 -11 22 -34 8 -52c-11 -15 -29 -16 -46 -7c-30 17 -64 26 -102 26c-114 0 -205 -89 -205 -198c0 -108 91 -197 205 -197c38 0 72 9 102 26c17 9 35 7 47 -8c13 -17 10 -40 -9 -51c-41 -24 -89 -37 -140 -37c-152 0 -275 120 -275 267c0 148 123 268 275 268
c51 0 99 -13 140 -37z" />
    <glyph glyph-name="cacute" unicode="&#x107;" horiz-adv-x="507" 
d="M353 697l-70 -67c-12 -11 -22 -15 -38 -15c-23 0 -30 16 -16 36l56 86c10 15 24 19 40 11l21 -10c20 -9 23 -25 7 -41zM460 488c19 -11 22 -34 8 -52c-11 -15 -29 -16 -46 -7c-30 17 -64 26 -102 26c-114 0 -205 -89 -205 -198c0 -108 91 -197 205 -197c38 0 72 9 102 26
c17 9 35 7 47 -8c13 -17 10 -40 -9 -51c-41 -24 -89 -37 -140 -37c-152 0 -275 120 -275 267c0 148 123 268 275 268c51 0 99 -13 140 -37z" />
    <glyph glyph-name="ccaron" unicode="&#x10d;" horiz-adv-x="507" 
d="M273 698l38 34c11 10 22 14 37 14h12c18 0 19 -17 3 -37l-62 -77c-10 -12 -21 -17 -36 -17h-24c-15 0 -26 5 -36 17l-62 77c-16 20 -10 37 13 37c15 0 26 -4 37 -14l38 -34c14 -13 28 -13 42 0zM460 488c19 -11 22 -34 8 -52c-11 -15 -29 -16 -46 -7
c-30 17 -64 26 -102 26c-114 0 -205 -89 -205 -198c0 -108 91 -197 205 -197c38 0 72 9 102 26c17 9 35 7 47 -8c13 -17 10 -40 -9 -51c-41 -24 -89 -37 -140 -37c-152 0 -275 120 -275 267c0 148 123 268 275 268c51 0 99 -13 140 -37z" />
    <glyph glyph-name="ccedilla" unicode="&#xe7;" horiz-adv-x="507" 
d="M469 78c13 -17 10 -40 -9 -51c-41 -24 -89 -37 -140 -37c-11 0 -22 1 -33 2l-47 -120c-7 -18 -21 -23 -39 -15l-18 8c-19 9 -24 24 -11 41l73 94c-115 32 -200 135 -200 257c0 148 123 268 275 268c51 0 99 -13 140 -37c19 -11 22 -34 8 -52c-11 -15 -29 -16 -46 -7
c-30 17 -64 26 -102 26c-114 0 -205 -89 -205 -198c0 -108 91 -197 205 -197c38 0 72 9 102 26c17 9 35 7 47 -8z" />
    <glyph glyph-name="cdotaccent" unicode="&#x10b;" horiz-adv-x="463" 
d="M288 648c0 -28 -20 -48 -47 -48s-47 20 -47 48s20 48 47 48s47 -20 47 -48zM414 475c24 -12 27 -41 10 -61c-12 -16 -32 -17 -51 -8c-25 13 -53 19 -83 19c-100 0 -181 -79 -181 -175c0 -95 81 -175 181 -175c30 0 59 7 84 20c19 10 39 7 52 -9c15 -20 11 -47 -11 -59
c-37 -20 -82 -32 -125 -32c-144 0 -261 114 -261 255c0 142 117 255 261 255c43 0 87 -11 124 -30z" />
    <glyph glyph-name="d" unicode="d" horiz-adv-x="628" 
d="M513 740c20 0 35 -15 35 -36v-668c0 -21 -15 -36 -36 -36c-20 0 -34 15 -34 36v39c0 5 -3 6 -6 2c-34 -54 -108 -87 -175 -87c-139 0 -252 120 -252 267c0 148 113 268 252 268c67 0 141 -33 175 -87c3 -4 6 -3 6 2v264c0 21 15 36 35 36zM297 60c99 0 181 87 181 197
c0 111 -82 198 -181 198s-182 -87 -182 -198c0 -110 83 -197 182 -197z" />
    <glyph glyph-name="eth" unicode="&#xf0;" horiz-adv-x="527" 
d="M450 598l-52 -20c-4 -1 -4 -4 -2 -7c91 -114 114 -270 106 -363c-11 -126 -105 -218 -228 -218s-223 103 -223 228c0 124 100 227 223 227c45 0 86 -14 121 -36c4 -3 7 -1 5 4c-15 47 -38 95 -73 133c-2 3 -4 3 -7 2l-143 -55c-17 -6 -33 2 -40 19c-5 15 2 30 18 36
l109 42c4 2 5 5 1 7c-24 14 -51 26 -83 33c-20 5 -32 20 -29 41c3 20 21 33 43 28c59 -15 108 -41 148 -75c2 -1 4 -2 7 -1l77 30c17 6 33 -2 40 -19c5 -15 -2 -30 -18 -36zM274 60c85 0 153 69 153 158c0 88 -68 157 -153 157s-153 -69 -153 -157c0 -89 68 -158 153 -158z
" />
    <glyph glyph-name="dcaron" unicode="&#x10f;" horiz-adv-x="626" 
d="M513 740c20 0 35 -15 35 -36v-668c0 -21 -15 -36 -36 -36c-20 0 -34 15 -34 36v39c0 5 -3 6 -6 2c-34 -54 -108 -87 -175 -87c-139 0 -252 120 -252 267c0 148 113 268 252 268c67 0 141 -33 175 -87c3 -4 6 -3 6 2v264c0 21 15 36 35 36zM663 438c-11 0 -16 6 -15 18
l21 219c2 21 18 35 39 35h16h10c19 -1 28 -17 22 -36l-70 -218c-5 -17 -10 -18 -23 -18zM297 60c99 0 181 87 181 197c0 111 -82 198 -181 198s-182 -87 -182 -198c0 -110 83 -197 182 -197z" />
    <glyph glyph-name="dcroat" unicode="&#x111;" horiz-adv-x="667" 
d="M553 627h63c24 0 41 -14 41 -33c0 -20 -17 -34 -41 -34h-63c-3 0 -5 -2 -5 -5v-519c0 -21 -15 -36 -36 -36c-20 0 -34 15 -34 36v39c0 5 -3 6 -6 2c-34 -54 -108 -87 -175 -87c-139 0 -252 120 -252 267c0 148 113 268 252 268c67 0 141 -33 175 -87c3 -4 6 -3 6 2v115
c0 3 -2 5 -5 5h-91c-24 0 -41 12 -41 36c0 15 17 31 41 31h91c3 0 5 2 5 5v72c0 21 15 36 35 36s35 -15 35 -36v-72c0 -3 2 -5 5 -5zM297 60c99 0 181 87 181 197c0 111 -82 198 -181 198s-182 -87 -182 -198c0 -110 83 -197 182 -197z" />
    <glyph glyph-name="e" unicode="e" horiz-adv-x="605" 
d="M560 282v-16c0 -20 -15 -36 -36 -36h-402c-3 0 -5 -2 -4 -5c14 -94 93 -165 195 -165c70 0 111 25 142 49c16 13 33 11 46 0c11 -9 15 -31 4 -44c-32 -37 -99 -75 -192 -75c-153 0 -268 120 -268 267c0 148 115 268 258 268c140 0 257 -109 257 -243zM125 300h356
c4 0 6 2 5 6c-21 86 -96 149 -183 149s-162 -63 -183 -149c-1 -4 1 -6 5 -6z" />
    <glyph glyph-name="eacute" unicode="&#xe9;" horiz-adv-x="605" 
d="M399 697l-70 -67c-12 -11 -22 -15 -38 -15c-23 0 -30 16 -16 36l56 86c10 15 24 19 40 11l21 -10c20 -9 23 -25 7 -41zM560 282v-16c0 -20 -15 -36 -36 -36h-402c-3 0 -5 -2 -4 -5c14 -94 93 -165 195 -165c70 0 111 25 142 49c16 13 33 11 46 0c11 -9 15 -31 4 -44
c-32 -37 -99 -75 -192 -75c-153 0 -268 120 -268 267c0 148 115 268 258 268c140 0 257 -109 257 -243zM125 300h356c4 0 6 2 5 6c-21 86 -96 149 -183 149s-162 -63 -183 -149c-1 -4 1 -6 5 -6z" />
    <glyph glyph-name="ecaron" unicode="&#x11b;" horiz-adv-x="605" 
d="M319 698l38 34c11 10 22 14 37 14h12c18 0 19 -17 3 -37l-62 -77c-10 -12 -21 -17 -36 -17h-24c-15 0 -26 5 -36 17l-62 77c-16 20 -10 37 13 37c15 0 26 -4 37 -14l38 -34c14 -13 28 -13 42 0zM560 282v-16c0 -20 -15 -36 -36 -36h-402c-3 0 -5 -2 -4 -5
c14 -94 93 -165 195 -165c70 0 111 25 142 49c16 13 33 11 46 0c11 -9 15 -31 4 -44c-32 -37 -99 -75 -192 -75c-153 0 -268 120 -268 267c0 148 115 268 258 268c140 0 257 -109 257 -243zM125 300h356c4 0 6 2 5 6c-21 86 -96 149 -183 149s-162 -63 -183 -149
c-1 -4 1 -6 5 -6z" />
    <glyph glyph-name="ecircumflex" unicode="&#xea;" horiz-adv-x="605" 
d="M357 629l-38 34c-14 13 -28 13 -42 0l-38 -34c-11 -10 -22 -14 -37 -14c-23 0 -29 17 -13 37l62 77c10 12 21 17 36 17h24c15 0 26 -5 36 -17l62 -77c16 -20 15 -37 -3 -37h-12c-15 0 -26 4 -37 14zM560 282v-16c0 -20 -15 -36 -36 -36h-402c-3 0 -5 -2 -4 -5
c14 -94 93 -165 195 -165c70 0 111 25 142 49c16 13 33 11 46 0c11 -9 15 -31 4 -44c-32 -37 -99 -75 -192 -75c-153 0 -268 120 -268 267c0 148 115 268 258 268c140 0 257 -109 257 -243zM125 300h356c4 0 6 2 5 6c-21 86 -96 149 -183 149s-162 -63 -183 -149
c-1 -4 1 -6 5 -6z" />
    <glyph glyph-name="edieresis" unicode="&#xeb;" horiz-adv-x="605" 
d="M257 663c0 -28 -19 -48 -45 -48s-45 20 -45 48c0 27 19 47 45 47s45 -20 45 -47zM433 663c0 -28 -19 -48 -45 -48s-45 20 -45 48c0 27 19 47 45 47s45 -20 45 -47zM560 282v-16c0 -20 -15 -36 -36 -36h-402c-3 0 -5 -2 -4 -5c14 -94 93 -165 195 -165c70 0 111 25 142 49
c16 13 33 11 46 0c11 -9 15 -31 4 -44c-32 -37 -99 -75 -192 -75c-153 0 -268 120 -268 267c0 148 115 268 258 268c140 0 257 -109 257 -243zM125 300h356c4 0 6 2 5 6c-21 86 -96 149 -183 149s-162 -63 -183 -149c-1 -4 1 -6 5 -6z" />
    <glyph glyph-name="edotaccent" unicode="&#x117;" horiz-adv-x="605" 
d="M347 663c0 -28 -20 -48 -47 -48s-47 20 -47 48s20 48 47 48s47 -20 47 -48zM560 282v-16c0 -20 -15 -36 -36 -36h-402c-3 0 -5 -2 -4 -5c14 -94 93 -165 195 -165c70 0 111 25 142 49c16 13 33 11 46 0c11 -9 15 -31 4 -44c-32 -37 -99 -75 -192 -75
c-153 0 -268 120 -268 267c0 148 115 268 258 268c140 0 257 -109 257 -243zM125 300h356c4 0 6 2 5 6c-21 86 -96 149 -183 149s-162 -63 -183 -149c-1 -4 1 -6 5 -6z" />
    <glyph glyph-name="egrave" unicode="&#xe8;" horiz-adv-x="605" 
d="M265 630l-70 67c-16 16 -13 32 7 41l21 10c16 8 30 4 40 -11l56 -86c14 -20 7 -36 -16 -36c-16 0 -26 4 -38 15zM560 282v-16c0 -20 -15 -36 -36 -36h-402c-3 0 -5 -2 -4 -5c14 -94 93 -165 195 -165c70 0 111 25 142 49c16 13 33 11 46 0c11 -9 15 -31 4 -44
c-32 -37 -99 -75 -192 -75c-153 0 -268 120 -268 267c0 148 115 268 258 268c140 0 257 -109 257 -243zM125 300h356c4 0 6 2 5 6c-21 86 -96 149 -183 149s-162 -63 -183 -149c-1 -4 1 -6 5 -6z" />
    <glyph glyph-name="emacron" unicode="&#x113;" horiz-adv-x="605" 
d="M458 649c0 -20 -17 -34 -41 -34h-234c-24 0 -41 12 -41 36c0 15 17 31 41 31h234c24 0 41 -14 41 -33zM560 282v-16c0 -20 -15 -36 -36 -36h-402c-3 0 -5 -2 -4 -5c14 -94 93 -165 195 -165c70 0 111 25 142 49c16 13 33 11 46 0c11 -9 15 -31 4 -44
c-32 -37 -99 -75 -192 -75c-153 0 -268 120 -268 267c0 148 115 268 258 268c140 0 257 -109 257 -243zM125 300h356c4 0 6 2 5 6c-21 86 -96 149 -183 149s-162 -63 -183 -149c-1 -4 1 -6 5 -6z" />
    <glyph glyph-name="eogonek" unicode="&#x119;" horiz-adv-x="598" 
d="M303 525c140 0 257 -109 257 -243v-16c0 -20 -15 -36 -36 -36h-402c-3 0 -5 -2 -4 -5c14 -94 93 -165 195 -165c70 0 111 25 142 49c16 13 33 11 46 0c11 -9 15 -31 4 -44c-32 -37 -99 -75 -192 -75h-8c-36 -35 -40 -73 -30 -96c17 -38 70 -32 89 -24c13 5 27 2 33 -10
c8 -17 0 -30 -13 -37c-62 -34 -182 -23 -182 79c0 41 18 73 43 96c-118 30 -200 135 -200 259c0 148 115 268 258 268zM125 300h356c4 0 6 2 5 6c-21 86 -96 149 -183 149s-162 -63 -183 -149c-1 -4 1 -6 5 -6z" />
    <glyph glyph-name="f" unicode="f" horiz-adv-x="326" 
d="M107 522v64c0 112 94 154 153 154c26 0 46 -13 46 -39v-1c0 -31 -30 -27 -56 -29c-46 -4 -73 -42 -73 -105v-44c0 -5 2 -7 7 -7h83c26 0 35 -19 35 -35s-9 -35 -35 -35h-83c-5 0 -7 -2 -7 -7v-403c0 -16 -9 -35 -35 -35s-35 19 -35 35v403c0 5 -2 7 -7 7h-40
c-26 0 -35 19 -35 35s9 35 35 35h40c5 0 7 2 7 7z" />
    <glyph glyph-name="g" unicode="g" horiz-adv-x="628" 
d="M478 440v39c0 21 14 36 34 36c21 0 36 -15 36 -36v-475c0 -144 -128 -214 -234 -214c-71 0 -142 24 -176 55c-10 9 -17 30 -6 45c10 14 30 21 47 8c27 -20 70 -38 135 -38c68 0 164 36 164 144v71c0 5 -3 6 -6 2c-34 -54 -108 -87 -175 -87c-139 0 -252 120 -252 268
c0 147 113 267 252 267c67 0 141 -33 175 -87c3 -4 6 -3 6 2zM297 60c99 0 181 87 181 198c0 110 -82 197 -181 197s-182 -87 -182 -197c0 -111 83 -198 182 -198z" />
    <glyph glyph-name="gbreve" unicode="&#x11f;" horiz-adv-x="628" 
d="M422 748h18c13 0 21 -8 18 -21c-14 -71 -69 -112 -145 -112s-131 41 -145 112c-3 13 5 21 18 21h18c12 0 18 -5 23 -16c14 -33 42 -53 86 -53s72 20 86 53c5 11 11 16 23 16zM478 440v39c0 21 14 36 34 36c21 0 36 -15 36 -36v-475c0 -144 -128 -214 -234 -214
c-71 0 -142 24 -176 55c-10 9 -17 30 -6 45c10 14 30 21 47 8c27 -20 70 -38 135 -38c68 0 164 36 164 144v71c0 5 -3 6 -6 2c-34 -54 -108 -87 -175 -87c-139 0 -252 120 -252 268c0 147 113 267 252 267c67 0 141 -33 175 -87c3 -4 6 -3 6 2zM297 60c99 0 181 87 181 198
c0 110 -82 197 -181 197s-182 -87 -182 -197c0 -111 83 -198 182 -198z" />
    <glyph glyph-name="gcommaaccent" unicode="&#x123;" horiz-adv-x="628" 
d="M371 805c4 -11 -8 -22 -26 -33c-26 -16 -37 -38 -35 -67c0 -3 2 -5 5 -5c18 -3 31 -19 31 -41v-23c0 -24 -17 -41 -41 -41h-10c-24 0 -41 17 -41 41v49c0 67 24 105 74 126c21 8 39 4 43 -6zM478 440v39c0 21 14 36 34 36c21 0 36 -15 36 -36v-475
c0 -144 -128 -214 -234 -214c-71 0 -142 24 -176 55c-10 9 -17 30 -6 45c10 14 30 21 47 8c27 -20 70 -38 135 -38c68 0 164 36 164 144v71c0 5 -3 6 -6 2c-34 -54 -108 -87 -175 -87c-139 0 -252 120 -252 268c0 147 113 267 252 267c67 0 141 -33 175 -87c3 -4 6 -3 6 2z
M297 60c99 0 181 87 181 198c0 110 -82 197 -181 197s-182 -87 -182 -197c0 -111 83 -198 182 -198z" />
    <glyph glyph-name="gdotaccent" unicode="&#x121;" horiz-adv-x="628" 
d="M360 663c0 -28 -20 -48 -47 -48s-47 20 -47 48s20 48 47 48s47 -20 47 -48zM478 440v39c0 21 14 36 34 36c21 0 36 -15 36 -36v-475c0 -144 -128 -214 -234 -214c-71 0 -142 24 -176 55c-10 9 -17 30 -6 45c10 14 30 21 47 8c27 -20 70 -38 135 -38c68 0 164 36 164 144
v71c0 5 -3 6 -6 2c-34 -54 -108 -87 -175 -87c-139 0 -252 120 -252 268c0 147 113 267 252 267c67 0 141 -33 175 -87c3 -4 6 -3 6 2zM297 60c99 0 181 87 181 198c0 110 -82 197 -181 197s-182 -87 -182 -197c0 -111 83 -198 182 -198z" />
    <glyph glyph-name="h" unicode="h" 
d="M150 704v-255c0 -5 3 -6 5 -2c20 29 79 78 153 78c115 0 188 -93 188 -208v-281c0 -21 -15 -36 -36 -36c-20 0 -34 15 -34 36v281c0 77 -52 138 -128 138c-77 0 -148 -61 -148 -138v-281c0 -21 -15 -36 -36 -36c-20 0 -34 15 -34 36v668c0 21 15 36 36 36
c20 0 34 -15 34 -36z" />
    <glyph glyph-name="hbar" unicode="&#x127;" horiz-adv-x="587" 
d="M327 525c115 0 188 -93 188 -208v-281c0 -21 -15 -36 -36 -36c-20 0 -34 15 -34 36v281c0 77 -52 138 -128 138c-77 0 -148 -61 -148 -138v-281c0 -21 -15 -36 -36 -36c-20 0 -34 15 -34 36v542c0 3 -2 5 -5 5h-48c-21 0 -36 15 -36 35s15 35 36 35h48c3 0 5 2 5 5v46
c0 21 15 36 36 36c20 0 34 -15 34 -36v-46c0 -3 2 -5 5 -5h124c21 0 36 -15 36 -35s-15 -35 -36 -35h-124c-3 0 -5 -2 -5 -5v-129c0 -5 3 -6 5 -2c20 29 79 78 153 78z" />
    <glyph glyph-name="i" unicode="i" horiz-adv-x="230" 
d="M150 704v-46c0 -21 -15 -36 -35 -36s-35 15 -35 36v46c0 21 15 36 35 36s35 -15 35 -36zM150 479v-443c0 -21 -15 -36 -35 -36s-35 15 -35 36v443c0 21 15 36 35 36s35 -15 35 -36z" />
    <glyph glyph-name="dotlessi" unicode="&#x131;" horiz-adv-x="226" 
d="M148 479v-443c0 -21 -15 -36 -35 -36s-35 15 -35 36v443c0 21 15 36 35 36s35 -15 35 -36z" />
    <glyph glyph-name="iacute" unicode="&#xed;" horiz-adv-x="226" 
d="M215 682l-70 -67c-12 -11 -22 -15 -38 -15c-23 0 -30 16 -16 36l56 86c10 15 24 19 40 11l21 -10c20 -9 23 -25 7 -41zM148 479v-443c0 -21 -15 -36 -35 -36s-35 15 -35 36v443c0 21 15 36 35 36s35 -15 35 -36z" />
    <glyph glyph-name="icircumflex" unicode="&#xee;" horiz-adv-x="226" 
d="M177 614l-38 34c-14 13 -28 13 -42 0l-38 -34c-11 -10 -22 -14 -37 -14c-23 0 -29 17 -13 37l62 77c10 12 21 17 36 17h24c15 0 26 -5 36 -17l62 -77c16 -20 15 -37 -3 -37h-12c-15 0 -26 4 -37 14zM148 479v-443c0 -21 -15 -36 -35 -36s-35 15 -35 36v443
c0 21 15 36 35 36s35 -15 35 -36z" />
    <glyph glyph-name="idieresis" unicode="&#xef;" horiz-adv-x="226" 
d="M68 648c0 -28 -19 -48 -45 -48s-45 20 -45 48c0 27 19 47 45 47s45 -20 45 -47zM244 648c0 -28 -19 -48 -45 -48s-45 20 -45 48c0 27 19 47 45 47s45 -20 45 -47zM148 479v-443c0 -21 -15 -36 -35 -36s-35 15 -35 36v443c0 21 15 36 35 36s35 -15 35 -36z" />
    <glyph glyph-name="i.loclTRK" horiz-adv-x="226" 
d="M164 648c0 -28 -20 -48 -47 -48s-47 20 -47 48s20 48 47 48s47 -20 47 -48zM148 479v-443c0 -21 -15 -36 -35 -36s-35 15 -35 36v443c0 21 15 36 35 36s35 -15 35 -36z" />
    <glyph glyph-name="igrave" unicode="&#xec;" horiz-adv-x="226" 
d="M103 615l-70 67c-16 16 -13 32 7 41l21 10c16 8 30 4 40 -11l56 -86c14 -20 7 -36 -16 -36c-16 0 -26 4 -38 15zM148 479v-443c0 -21 -15 -36 -35 -36s-35 15 -35 36v443c0 21 15 36 35 36s35 -15 35 -36z" />
    <glyph glyph-name="ij" unicode="&#x133;" horiz-adv-x="458" 
d="M150 704v-46c0 -21 -15 -36 -35 -36s-35 15 -35 36v46c0 21 15 36 35 36s35 -15 35 -36zM308 658v46c0 21 15 36 35 36s35 -15 35 -36v-46c0 -21 -15 -36 -35 -36s-35 15 -35 36zM150 479v-443c0 -21 -15 -36 -35 -36s-35 15 -35 36v443c0 21 15 36 35 36s35 -15 35 -36z
M308 -62v541c0 21 15 36 35 36s35 -15 35 -36v-541c0 -108 -65 -133 -126 -138c-21 -1 -37 14 -37 34v2c0 20 14 32 33 35c29 4 60 9 60 67z" />
    <glyph glyph-name="imacron" unicode="&#x12b;" horiz-adv-x="226" 
d="M271 634c0 -20 -17 -34 -41 -34h-234c-24 0 -41 12 -41 36c0 15 17 31 41 31h234c24 0 41 -14 41 -33zM148 479v-443c0 -21 -15 -36 -35 -36s-35 15 -35 36v443c0 21 15 36 35 36s35 -15 35 -36z" />
    <glyph glyph-name="iogonek" unicode="&#x12f;" horiz-adv-x="226" 
d="M117 600c-27 0 -47 20 -47 48s20 48 47 48s47 -20 47 -48s-20 -48 -47 -48zM186 -140c8 -17 0 -30 -13 -37c-62 -34 -182 -23 -182 79c0 63 43 105 88 127l-1 7v443c0 21 15 36 35 36s35 -15 35 -36v-443c0 -21 -15 -36 -35 -36l-7 1c-47 -39 -53 -82 -42 -107
c17 -38 70 -32 89 -24c13 5 27 2 33 -10z" />
    <glyph glyph-name="j" unicode="j" horiz-adv-x="228" 
d="M78 658v46c0 21 15 36 35 36s35 -15 35 -36v-46c0 -21 -15 -36 -35 -36s-35 15 -35 36zM78 -62v541c0 21 15 36 35 36s35 -15 35 -36v-541c0 -108 -65 -133 -126 -138c-21 -1 -37 14 -37 34v2c0 20 14 32 33 35c29 4 60 9 60 67z" />
    <glyph glyph-name="dotlessj" unicode="&#x237;" horiz-adv-x="229" 
d="M61 -198c-26 0 -46 13 -46 39v1c0 31 29 37 55 39c46 4 64 30 64 93v486c0 26 14 40 40 40s40 -14 40 -40v-506c0 -122 -94 -152 -153 -152z" />
    <glyph glyph-name="k" unicode="k" horiz-adv-x="515" 
d="M292 276l202 -217c14 -15 13 -36 -2 -50s-36 -12 -50 3l-203 218c-2 2 -4 2 -7 0l-79 -69c-2 -2 -3 -4 -3 -6v-119c0 -21 -15 -36 -36 -36c-20 0 -34 15 -34 36v668c0 21 15 36 36 36c20 0 34 -15 34 -36v-445c0 -4 3 -6 6 -3l290 259c16 14 37 13 50 -2s12 -36 -3 -50
l-201 -180c-2 -2 -2 -4 0 -7z" />
    <glyph glyph-name="kcommaaccent" unicode="&#x137;" horiz-adv-x="515" 
d="M292 276l202 -217c14 -15 13 -36 -2 -50s-36 -12 -50 3l-203 218c-2 2 -4 2 -7 0l-79 -69c-2 -2 -3 -4 -3 -6v-119c0 -21 -15 -36 -36 -36c-20 0 -34 15 -34 36v668c0 21 15 36 36 36c20 0 34 -15 34 -36v-445c0 -4 3 -6 6 -3l290 259c16 14 37 13 50 -2s12 -36 -3 -50
l-201 -180c-2 -2 -2 -4 0 -7zM198 -290c-4 11 8 22 26 33c26 16 37 38 35 67c0 3 -2 5 -5 5c-18 3 -31 19 -31 41v23c0 24 17 41 41 41h10c24 0 41 -17 41 -41v-49c0 -67 -24 -105 -74 -126c-21 -8 -39 -4 -43 6z" />
    <glyph glyph-name="l" unicode="l" horiz-adv-x="230" 
d="M150 704v-668c0 -21 -15 -36 -36 -36c-20 0 -34 15 -34 36v668c0 21 15 36 36 36c20 0 34 -15 34 -36z" />
    <glyph glyph-name="lacute" unicode="&#x13a;" horiz-adv-x="232" 
d="M215 902l-70 -67c-12 -11 -22 -15 -38 -15c-23 0 -30 16 -16 36l56 86c10 15 24 19 40 11l21 -10c20 -9 23 -25 7 -41zM150 704v-668c0 -21 -15 -36 -36 -36c-20 0 -34 15 -34 36v668c0 21 15 36 36 36c20 0 34 -15 34 -36z" />
    <glyph glyph-name="lcaron" unicode="&#x13e;" horiz-adv-x="397" 
d="M150 704v-668c0 -21 -15 -36 -36 -36c-20 0 -34 15 -34 36v668c0 21 15 36 36 36c20 0 34 -15 34 -36zM264 438c-11 0 -16 6 -15 18l21 219c2 21 18 35 39 35h16h10c19 -1 28 -17 22 -36l-70 -218c-5 -17 -10 -18 -23 -18z" />
    <glyph glyph-name="lcommaaccent" unicode="&#x13c;" horiz-adv-x="230" 
d="M150 704v-668c0 -21 -15 -36 -36 -36c-20 0 -34 15 -34 36v668c0 21 15 36 36 36c20 0 34 -15 34 -36zM57 -290c-4 11 8 22 26 33c26 16 37 38 35 67c0 3 -2 5 -5 5c-18 3 -31 19 -31 41v23c0 24 17 41 41 41h10c24 0 41 -17 41 -41v-49c0 -67 -24 -105 -74 -126
c-21 -8 -39 -4 -43 6z" />
    <glyph glyph-name="ldot" unicode="&#x140;" horiz-adv-x="388" 
d="M150 704v-668c0 -21 -15 -36 -36 -36c-20 0 -34 15 -34 36v668c0 21 15 36 36 36c20 0 34 -15 34 -36zM343 382v-23c0 -24 -17 -41 -41 -41h-10c-24 0 -41 17 -41 41v23c0 24 17 41 41 41h10c24 0 41 -17 41 -41z" />
    <glyph glyph-name="lslash" unicode="&#x142;" horiz-adv-x="351" 
d="M317 441c8 -18 0 -38 -19 -46l-86 -38c-3 -1 -4 -3 -4 -6v-315c0 -21 -15 -36 -36 -36c-20 0 -34 15 -34 36v282c0 4 -2 5 -6 4l-35 -16c-19 -8 -39 0 -47 18s-1 37 19 46l65 29c3 1 4 3 4 6v299c0 21 15 36 36 36c20 0 34 -15 34 -36v-265c0 -4 2 -6 6 -4l56 25
c20 9 39 0 47 -19z" />
    <glyph glyph-name="m" unicode="m" horiz-adv-x="912" 
d="M150 479v-30c0 -5 3 -6 5 -2c20 29 79 78 153 78c73 0 128 -37 160 -93c2 -4 4 -4 7 -1c39 55 101 94 174 94c115 0 193 -93 193 -208v-281c0 -21 -15 -36 -35 -36s-35 15 -35 36v281c0 76 -47 138 -123 138c-91 0 -153 -62 -153 -138v-281c0 -21 -14 -36 -35 -36h-1
c-20 0 -34 15 -34 36v281c0 77 -52 138 -128 138c-77 0 -148 -61 -148 -138v-281c0 -21 -15 -36 -36 -36c-20 0 -34 15 -34 36v443c0 21 15 36 36 36c20 0 34 -15 34 -36z" />
    <glyph glyph-name="n" unicode="n" 
d="M150 479v-30c0 -5 3 -6 5 -2c20 29 79 78 153 78c115 0 188 -93 188 -208v-281c0 -21 -15 -36 -36 -36c-20 0 -34 15 -34 36v281c0 77 -52 138 -128 138c-77 0 -148 -61 -148 -138v-281c0 -21 -15 -36 -36 -36c-20 0 -34 15 -34 36v443c0 21 15 36 36 36
c20 0 34 -15 34 -36z" />
    <glyph glyph-name="nacute" unicode="&#x144;" 
d="M384 697l-70 -67c-12 -11 -22 -15 -38 -15c-23 0 -30 16 -16 36l56 86c10 15 24 19 40 11l21 -10c20 -9 23 -25 7 -41zM150 479v-30c0 -5 3 -6 5 -2c20 29 79 78 153 78c115 0 188 -93 188 -208v-281c0 -21 -15 -36 -36 -36c-20 0 -34 15 -34 36v281
c0 77 -52 138 -128 138c-77 0 -148 -61 -148 -138v-281c0 -21 -15 -36 -36 -36c-20 0 -34 15 -34 36v443c0 21 15 36 36 36c20 0 34 -15 34 -36z" />
    <glyph glyph-name="ncaron" unicode="&#x148;" 
d="M304 698l38 34c11 10 22 14 37 14h12c18 0 19 -17 3 -37l-62 -77c-10 -12 -21 -17 -36 -17h-24c-15 0 -26 5 -36 17l-62 77c-16 20 -10 37 13 37c15 0 26 -4 37 -14l38 -34c14 -13 28 -13 42 0zM150 479v-30c0 -5 3 -6 5 -2c20 29 79 78 153 78c115 0 188 -93 188 -208
v-281c0 -21 -15 -36 -36 -36c-20 0 -34 15 -34 36v281c0 77 -52 138 -128 138c-77 0 -148 -61 -148 -138v-281c0 -21 -15 -36 -36 -36c-20 0 -34 15 -34 36v443c0 21 15 36 36 36c20 0 34 -15 34 -36z" />
    <glyph glyph-name="ncommaaccent" unicode="&#x146;" 
d="M150 479v-30c0 -5 3 -6 5 -2c20 29 79 78 153 78c115 0 188 -93 188 -208v-281c0 -21 -15 -36 -36 -36c-20 0 -34 15 -34 36v281c0 77 -52 138 -128 138c-77 0 -148 -61 -148 -138v-281c0 -21 -15 -36 -36 -36c-20 0 -34 15 -34 36v443c0 21 15 36 36 36
c20 0 34 -15 34 -36zM227 -290c-4 11 8 22 26 33c26 16 37 38 35 67c0 3 -2 5 -5 5c-18 3 -31 19 -31 41v23c0 24 17 41 41 41h10c24 0 41 -17 41 -41v-49c0 -67 -24 -105 -74 -126c-21 -8 -39 -4 -43 6z" />
    <glyph glyph-name="eng" unicode="&#x14b;" 
d="M306 525c115 0 188 -93 188 -208v-377c0 -106 -100 -140 -179 -140c-21 0 -33 15 -33 35c0 16 13 34 37 34c72 0 105 29 105 90v358c0 77 -52 138 -128 138c-77 0 -148 -61 -148 -138v-281c0 -21 -15 -36 -36 -36c-20 0 -34 15 -34 36v443c0 21 15 36 36 36
c20 0 34 -15 34 -36v-30c0 -5 3 -6 5 -2c20 29 79 78 153 78z" />
    <glyph glyph-name="ntilde" unicode="&#xf1;" 
d="M426 727c15 -5 21 -18 14 -37c-19 -53 -45 -75 -86 -75c-45 0 -100 40 -134 40c-19 0 -29 -7 -40 -24c-9 -16 -21 -23 -39 -18c-13 4 -18 16 -11 36c19 53 45 75 86 75c45 0 100 -40 134 -40c19 0 30 7 40 24c9 16 20 23 36 19zM150 479v-30c0 -5 3 -6 5 -2
c20 29 79 78 153 78c115 0 188 -93 188 -208v-281c0 -21 -15 -36 -36 -36c-20 0 -34 15 -34 36v281c0 77 -52 138 -128 138c-77 0 -148 -61 -148 -138v-281c0 -21 -15 -36 -36 -36c-20 0 -34 15 -34 36v443c0 21 15 36 36 36c20 0 34 -15 34 -36z" />
    <glyph glyph-name="o" unicode="o" horiz-adv-x="583" 
d="M543 257c0 -148 -113 -267 -252 -267s-251 119 -251 267s112 268 251 268s252 -120 252 -268zM473 257c0 110 -83 198 -182 198s-181 -88 -181 -198s82 -197 181 -197s182 87 182 197z" />
    <glyph glyph-name="oacute" unicode="&#xf3;" horiz-adv-x="583" 
d="M389 697l-70 -67c-12 -11 -22 -15 -38 -15c-23 0 -30 16 -16 36l56 86c10 15 24 19 40 11l21 -10c20 -9 23 -25 7 -41zM543 257c0 -148 -113 -267 -252 -267s-251 119 -251 267s112 268 251 268s252 -120 252 -268zM473 257c0 110 -83 198 -182 198s-181 -88 -181 -198
s82 -197 181 -197s182 87 182 197z" />
    <glyph glyph-name="ocircumflex" unicode="&#xf4;" horiz-adv-x="583" 
d="M347 629l-38 34c-14 13 -28 13 -42 0l-38 -34c-11 -10 -22 -14 -37 -14c-23 0 -29 17 -13 37l62 77c10 12 21 17 36 17h24c15 0 26 -5 36 -17l62 -77c16 -20 15 -37 -3 -37h-12c-15 0 -26 4 -37 14zM543 257c0 -148 -113 -267 -252 -267s-251 119 -251 267
s112 268 251 268s252 -120 252 -268zM473 257c0 110 -83 198 -182 198s-181 -88 -181 -198s82 -197 181 -197s182 87 182 197z" />
    <glyph glyph-name="odieresis" unicode="&#xf6;" horiz-adv-x="583" 
d="M247 663c0 -28 -19 -48 -45 -48s-45 20 -45 48c0 27 19 47 45 47s45 -20 45 -47zM423 663c0 -28 -19 -48 -45 -48s-45 20 -45 48c0 27 19 47 45 47s45 -20 45 -47zM543 257c0 -148 -113 -267 -252 -267s-251 119 -251 267s112 268 251 268s252 -120 252 -268zM473 257
c0 110 -83 198 -182 198s-181 -88 -181 -198s82 -197 181 -197s182 87 182 197z" />
    <glyph glyph-name="ograve" unicode="&#xf2;" horiz-adv-x="583" 
d="M255 630l-70 67c-16 16 -13 32 7 41l21 10c16 8 30 4 40 -11l56 -86c14 -20 7 -36 -16 -36c-16 0 -26 4 -38 15zM543 257c0 -148 -113 -267 -252 -267s-251 119 -251 267s112 268 251 268s252 -120 252 -268zM473 257c0 110 -83 198 -182 198s-181 -88 -181 -198
s82 -197 181 -197s182 87 182 197z" />
    <glyph glyph-name="ohungarumlaut" unicode="&#x151;" horiz-adv-x="583" 
d="M300 689l-54 -54c-14 -14 -28 -20 -49 -20c-19 0 -19 21 -1 48l42 65c14 21 32 26 55 15c25 -12 28 -33 7 -54zM464 689l-54 -54c-15 -14 -29 -20 -50 -20c-18 0 -18 21 0 48l42 65c14 21 32 26 55 15c25 -12 28 -33 7 -54zM543 257c0 -148 -113 -267 -252 -267
s-251 119 -251 267s112 268 251 268s252 -120 252 -268zM473 257c0 110 -83 198 -182 198s-181 -88 -181 -198s82 -197 181 -197s182 87 182 197z" />
    <glyph glyph-name="omacron" unicode="&#x14d;" horiz-adv-x="583" 
d="M448 649c0 -20 -17 -34 -41 -34h-234c-24 0 -41 12 -41 36c0 15 17 31 41 31h234c24 0 41 -14 41 -33zM543 257c0 -148 -113 -267 -252 -267s-251 119 -251 267s112 268 251 268s252 -120 252 -268zM473 257c0 110 -83 198 -182 198s-181 -88 -181 -198s82 -197 181 -197
s182 87 182 197z" />
    <glyph glyph-name="oslash" unicode="&#xf8;" horiz-adv-x="591" 
d="M523 486l-45 -53c-2 -2 -2 -5 0 -7c35 -46 56 -105 56 -169c0 -148 -113 -267 -252 -267c-51 0 -99 16 -138 44c-3 2 -5 1 -7 -1l-42 -49c-13 -16 -35 -18 -50 -4c-15 13 -16 33 -3 49l45 53c2 2 2 4 0 7c-35 45 -56 104 -56 168c0 148 112 268 251 268
c51 0 99 -16 139 -44c2 -2 5 -2 7 1l42 49c13 16 35 18 50 4c15 -13 16 -33 3 -49zM101 257c0 -42 12 -81 32 -112c2 -3 5 -4 7 -1l236 276c2 3 1 5 -1 7c-28 18 -59 28 -93 28c-99 0 -181 -88 -181 -198zM282 60c99 0 182 87 182 197c0 42 -12 81 -33 113c-2 3 -4 3 -7 0
l-235 -276c-2 -2 -2 -5 1 -7c27 -17 59 -27 92 -27z" />
    <glyph glyph-name="otilde" unicode="&#xf5;" horiz-adv-x="583" 
d="M431 727c15 -5 21 -18 14 -37c-19 -53 -45 -75 -86 -75c-45 0 -100 40 -134 40c-19 0 -29 -7 -40 -24c-9 -16 -21 -23 -39 -18c-13 4 -18 16 -11 36c19 53 45 75 86 75c45 0 100 -40 134 -40c19 0 30 7 40 24c9 16 20 23 36 19zM543 257c0 -148 -113 -267 -252 -267
s-251 119 -251 267s112 268 251 268s252 -120 252 -268zM473 257c0 110 -83 198 -182 198s-181 -88 -181 -198s82 -197 181 -197s182 87 182 197z" />
    <glyph glyph-name="oe" unicode="&#x153;" horiz-adv-x="1189" 
d="M736 525c140 0 257 -109 257 -243v-16c0 -20 -15 -36 -36 -36h-402c-3 0 -5 -2 -4 -5c14 -94 93 -165 195 -165c70 0 111 25 142 49c16 13 33 11 46 0c11 -9 15 -31 4 -44c-32 -37 -99 -75 -192 -75c-100 0 -183 51 -229 127c-2 4 -5 4 -7 0c-45 -76 -124 -127 -215 -127
c-139 0 -251 119 -251 267s112 268 251 268c91 0 170 -51 214 -127c2 -4 5 -4 7 -1c45 77 127 128 220 128zM295 60c99 0 182 87 182 197s-83 198 -182 198s-181 -88 -181 -198s82 -197 181 -197zM558 300h356c4 0 6 2 5 6c-21 86 -96 149 -183 149s-162 -63 -183 -149
c-1 -4 1 -6 5 -6z" />
    <glyph glyph-name="p" unicode="p" horiz-adv-x="628" 
d="M115 -200c-20 0 -35 15 -35 36v643c0 21 15 36 36 36c20 0 34 -15 34 -36v-39c0 -5 3 -6 6 -2c34 54 108 87 175 87c139 0 252 -120 252 -267c0 -148 -113 -268 -252 -268c-67 0 -141 33 -175 87c-3 4 -6 3 -6 -2v-239c0 -21 -15 -36 -35 -36zM331 455
c-99 0 -181 -87 -181 -197c0 -111 82 -198 181 -198s182 87 182 198c0 110 -83 197 -182 197z" />
    <glyph glyph-name="thorn" unicode="&#xfe;" horiz-adv-x="591" 
d="M290 638c139 0 252 -120 252 -268s-113 -267 -252 -267c-68 0 -130 29 -175 75c-3 3 -6 2 -6 -2v-140c0 -21 -15 -36 -36 -36c-20 0 -34 15 -34 36v668c0 21 15 36 36 36c20 0 34 -15 34 -36v-139c0 -5 3 -6 6 -3c45 47 107 76 175 76zM290 173c99 0 182 87 182 197
s-83 198 -182 198s-181 -88 -181 -198s82 -197 181 -197z" />
    <glyph glyph-name="q" unicode="q" horiz-adv-x="628" 
d="M513 -200c-20 0 -35 15 -35 36v239c0 5 -3 6 -6 2c-34 -54 -108 -87 -175 -87c-139 0 -252 120 -252 268c0 147 113 267 252 267c67 0 141 -33 175 -87c3 -4 6 -3 6 2v39c0 21 14 36 34 36c21 0 36 -15 36 -36v-643c0 -21 -15 -36 -35 -36zM297 455
c-99 0 -182 -87 -182 -197c0 -111 83 -198 182 -198s181 87 181 198c0 110 -82 197 -181 197z" />
    <glyph glyph-name="r" unicode="r" horiz-adv-x="375" 
d="M150 480v-51c0 -9 4 -13 12 -3c37 46 90 92 160 99c25 2 45 -7 45 -32c0 -21 -15 -31 -37 -37c-157 -42 -180 -113 -180 -163v-257c0 -21 -15 -36 -35 -36s-35 15 -35 36v443c0 21 15 36 35 36s35 -15 35 -35z" />
    <glyph glyph-name="racute" unicode="&#x155;" horiz-adv-x="371" 
d="M215 697l-70 -67c-12 -11 -22 -15 -38 -15c-23 0 -30 16 -16 36l56 86c10 15 24 19 40 11l21 -10c20 -9 23 -25 7 -41zM150 480v-51c0 -9 4 -13 12 -3c37 46 90 92 160 99c25 2 45 -7 45 -32c0 -21 -15 -31 -37 -37c-157 -42 -180 -113 -180 -163v-257
c0 -21 -15 -36 -35 -36s-35 15 -35 36v443c0 21 15 36 35 36s35 -15 35 -35z" />
    <glyph glyph-name="rcaron" unicode="&#x159;" horiz-adv-x="375" 
d="M207 698l38 34c11 10 22 14 37 14h12c18 0 19 -17 3 -37l-62 -77c-10 -12 -21 -17 -36 -17h-24c-15 0 -26 5 -36 17l-62 77c-16 20 -10 37 13 37c15 0 26 -4 37 -14l38 -34c14 -13 28 -13 42 0zM150 480v-51c0 -9 4 -13 12 -3c37 46 90 92 160 99c25 2 45 -7 45 -32
c0 -21 -15 -31 -37 -37c-157 -42 -180 -113 -180 -163v-257c0 -21 -15 -36 -35 -36s-35 15 -35 36v443c0 21 15 36 35 36s35 -15 35 -35z" />
    <glyph glyph-name="rcommaaccent" unicode="&#x157;" horiz-adv-x="371" 
d="M150 480v-51c0 -9 4 -13 12 -3c37 46 90 92 160 99c25 2 45 -7 45 -32c0 -21 -15 -31 -37 -37c-157 -42 -180 -113 -180 -163v-257c0 -21 -15 -36 -35 -36s-35 15 -35 36v443c0 21 15 36 35 36s35 -15 35 -35zM44 -290c-4 11 8 22 26 33c26 16 37 38 35 67c0 3 -2 5 -5 5
c-18 3 -31 19 -31 41v23c0 24 17 41 41 41h10c24 0 41 -17 41 -41v-49c0 -67 -24 -105 -74 -126c-21 -8 -39 -4 -43 6z" />
    <glyph glyph-name="s" unicode="s" horiz-adv-x="456" 
d="M48 58c-17 19 -17 39 0 54c13 11 31 12 44 0c26 -25 70 -55 127 -55c75 0 125 36 125 81c0 38 -36 67 -120 89c-138 37 -189 73 -189 151c0 77 74 147 176 147c70 0 114 -21 145 -44c18 -13 18 -34 7 -49c-10 -14 -31 -18 -48 -7c-23 14 -53 32 -104 32
c-65 0 -106 -43 -106 -79c0 -34 23 -59 137 -89c123 -33 169 -77 169 -154c0 -80 -75 -145 -192 -145c-76 0 -138 33 -171 68z" />
    <glyph glyph-name="sacute" unicode="&#x15b;" horiz-adv-x="456" 
d="M327 697l-70 -67c-12 -11 -22 -15 -38 -15c-23 0 -30 16 -16 36l56 86c10 15 24 19 40 11l21 -10c20 -9 23 -25 7 -41zM48 58c-17 19 -17 39 0 54c13 11 31 12 44 0c26 -25 70 -55 127 -55c75 0 125 36 125 81c0 38 -36 67 -120 89c-138 37 -189 73 -189 151
c0 77 74 147 176 147c70 0 114 -21 145 -44c18 -13 18 -34 7 -49c-10 -14 -31 -18 -48 -7c-23 14 -53 32 -104 32c-65 0 -106 -43 -106 -79c0 -34 23 -59 137 -89c123 -33 169 -77 169 -154c0 -80 -75 -145 -192 -145c-76 0 -138 33 -171 68z" />
    <glyph glyph-name="scaron" unicode="&#x161;" horiz-adv-x="456" 
d="M247 698l38 34c11 10 22 14 37 14h12c18 0 19 -17 3 -37l-62 -77c-10 -12 -21 -17 -36 -17h-24c-15 0 -26 5 -36 17l-62 77c-16 20 -10 37 13 37c15 0 26 -4 37 -14l38 -34c14 -13 28 -13 42 0zM48 58c-17 19 -17 39 0 54c13 11 31 12 44 0c26 -25 70 -55 127 -55
c75 0 125 36 125 81c0 38 -36 67 -120 89c-138 37 -189 73 -189 151c0 77 74 147 176 147c70 0 114 -21 145 -44c18 -13 18 -34 7 -49c-10 -14 -31 -18 -48 -7c-23 14 -53 32 -104 32c-65 0 -106 -43 -106 -79c0 -34 23 -59 137 -89c123 -33 169 -77 169 -154
c0 -80 -75 -145 -192 -145c-76 0 -138 33 -171 68z" />
    <glyph glyph-name="scedilla" unicode="&#x15f;" horiz-adv-x="456" 
d="M411 135c0 -70 -57 -128 -150 -142l-47 -121c-7 -18 -21 -23 -39 -15l-18 8c-19 9 -24 24 -11 41l66 84c-73 2 -132 34 -164 68c-17 19 -17 39 0 54c13 11 31 12 44 0c26 -25 70 -55 127 -55c75 0 125 36 125 81c0 38 -36 67 -120 89c-138 37 -189 73 -189 151
c0 77 74 147 176 147c70 0 114 -21 145 -44c18 -13 18 -34 7 -49c-10 -14 -31 -18 -48 -7c-23 14 -53 32 -104 32c-65 0 -106 -43 -106 -79c0 -34 23 -59 137 -89c123 -33 169 -77 169 -154z" />
    <glyph glyph-name="scommaaccent" unicode="&#x219;" horiz-adv-x="440" 
d="M45 52c-22 15 -20 45 1 63c14 12 31 11 47 2c33 -21 96 -46 140 -46c88 0 99 43 99 64c0 44 -35 61 -110 79c-128 31 -197 67 -197 152s88 138 188 138c65 0 115 -25 146 -47c21 -15 20 -43 3 -60l-1 -1c-14 -14 -34 -14 -51 -3c-22 15 -71 34 -112 34
c-62 0 -95 -28 -95 -61c0 -31 33 -59 137 -84c75 -18 171 -42 171 -152c0 -81 -77 -134 -186 -134c-62 0 -137 26 -180 56zM154 -290c-4 11 8 22 26 33c26 16 37 38 35 67c0 3 -2 5 -5 5c-18 3 -31 19 -31 41v23c0 24 17 41 41 41h10c24 0 41 -17 41 -41v-49
c0 -67 -24 -105 -74 -126c-21 -8 -39 -4 -43 6z" />
    <glyph glyph-name="germandbls" unicode="&#xdf;" horiz-adv-x="561" 
d="M490 556c0 -89 -59 -145 -124 -177c-8 -4 -7 -9 1 -11c89 -23 166 -76 166 -175c0 -117 -91 -187 -238 -194c-19 -1 -32 12 -32 30v3c0 16 12 28 29 30c101 9 162 53 162 131c0 73 -60 116 -157 133c-20 4 -34 16 -34 34v3c0 16 9 28 23 34c72 32 125 79 125 154
c0 70 -53 118 -131 118c-85 0 -146 -65 -146 -167v-461c0 -24 -16 -41 -38 -41c-23 0 -39 17 -39 41v460c0 141 88 236 227 236c126 0 206 -79 206 -181z" />
    <glyph glyph-name="t" unicode="t" horiz-adv-x="297" 
d="M246 445h-59c-3 0 -5 -2 -5 -5v-305c0 -33 6 -64 40 -60c26 3 42 -10 43 -34c1 -28 -26 -41 -59 -41c-49 0 -94 23 -94 102v338c0 3 -2 5 -5 5h-61c-21 0 -36 15 -36 35s15 35 36 35h61c3 0 5 2 5 5v95c0 22 16 35 35 35s35 -13 35 -35v-95c0 -3 2 -5 5 -5h59
c21 0 36 -15 36 -35s-15 -35 -36 -35z" />
    <glyph glyph-name="tbar" unicode="&#x167;" horiz-adv-x="295" 
d="M246 445h-59c-3 0 -5 -2 -5 -5v-103h43c21 0 36 -15 36 -36c0 -20 -15 -34 -36 -34h-43v-132c0 -33 6 -64 40 -60c26 3 42 -10 43 -34c1 -28 -26 -41 -59 -41c-49 0 -94 23 -94 102v165h-47c-21 0 -36 15 -36 36c0 20 15 34 36 34h47v103c0 3 -2 5 -5 5h-61
c-21 0 -36 15 -36 35s15 35 36 35h61c3 0 5 2 5 5v95c0 22 16 35 35 35s35 -13 35 -35v-95c0 -3 2 -5 5 -5h59c21 0 36 -15 36 -35s-15 -35 -36 -35z" />
    <glyph glyph-name="tcaron" unicode="&#x165;" horiz-adv-x="295" 
d="M251 583c-11 0 -16 6 -15 18l11 119c2 21 13 30 34 30h16c19 -1 30 -15 22 -36l-45 -113c-7 -18 -10 -18 -23 -18zM245 445h-59c-3 0 -5 -2 -5 -5v-305c0 -33 6 -64 40 -60c26 3 42 -10 43 -34c1 -28 -26 -41 -59 -41c-49 0 -94 23 -94 102v338c0 3 -2 5 -5 5h-61
c-21 0 -36 15 -36 35s15 35 36 35h61c3 0 5 2 5 5v95c0 22 16 35 35 35s35 -13 35 -35v-95c0 -3 2 -5 5 -5h59c21 0 36 -15 36 -35s-15 -35 -36 -35z" />
    <glyph glyph-name="tcedilla" unicode="&#x163;" horiz-adv-x="295" 
d="M246 445h-59c-3 0 -5 -2 -5 -5v-305c0 -33 6 -64 40 -60c26 3 42 -10 43 -34c1 -28 -26 -41 -59 -41h-7l-50 -128c-7 -18 -21 -23 -39 -15l-18 8c-19 9 -24 24 -11 41l80 102c-29 13 -49 41 -49 94v338c0 3 -2 5 -5 5h-61c-21 0 -36 15 -36 35s15 35 36 35h61
c3 0 5 2 5 5v95c0 22 16 35 35 35s35 -13 35 -35v-95c0 -3 2 -5 5 -5h59c21 0 36 -15 36 -35s-15 -35 -36 -35z" />
    <glyph glyph-name="uni021B" unicode="&#x21b;" horiz-adv-x="297" 
d="M246 445h-59c-3 0 -5 -2 -5 -5v-305c0 -33 6 -64 40 -60c26 3 42 -10 43 -34c1 -28 -26 -41 -59 -41c-49 0 -94 23 -94 102v338c0 3 -2 5 -5 5h-61c-21 0 -36 15 -36 35s15 35 36 35h61c3 0 5 2 5 5v95c0 22 16 35 35 35s35 -13 35 -35v-95c0 -3 2 -5 5 -5h59
c21 0 36 -15 36 -35s-15 -35 -36 -35zM91 -290c-4 11 8 22 26 33c26 16 37 38 35 67c0 3 -2 5 -5 5c-18 3 -31 19 -31 41v23c0 24 17 41 41 41h10c24 0 41 -17 41 -41v-49c0 -67 -24 -105 -74 -126c-21 -8 -39 -4 -43 6z" />
    <glyph glyph-name="u" unicode="u" 
d="M451 515c20 0 35 -15 35 -36v-281c0 -115 -93 -208 -208 -208s-208 93 -208 208v281c0 21 15 36 36 36c20 0 34 -15 34 -36v-281c0 -76 62 -138 138 -138s138 62 138 138v281c0 21 15 36 35 36z" />
    <glyph glyph-name="uacute" unicode="&#xfa;" 
d="M380 697l-70 -67c-12 -11 -22 -15 -38 -15c-23 0 -30 16 -16 36l56 86c10 15 24 19 40 11l21 -10c20 -9 23 -25 7 -41zM451 515c20 0 35 -15 35 -36v-281c0 -115 -93 -208 -208 -208s-208 93 -208 208v281c0 21 15 36 36 36c20 0 34 -15 34 -36v-281
c0 -76 62 -138 138 -138s138 62 138 138v281c0 21 15 36 35 36z" />
    <glyph glyph-name="ucircumflex" unicode="&#xfb;" 
d="M338 629l-38 34c-14 13 -28 13 -42 0l-38 -34c-11 -10 -22 -14 -37 -14c-23 0 -29 17 -13 37l62 77c10 12 21 17 36 17h24c15 0 26 -5 36 -17l62 -77c16 -20 15 -37 -3 -37h-12c-15 0 -26 4 -37 14zM451 515c20 0 35 -15 35 -36v-281c0 -115 -93 -208 -208 -208
s-208 93 -208 208v281c0 21 15 36 36 36c20 0 34 -15 34 -36v-281c0 -76 62 -138 138 -138s138 62 138 138v281c0 21 15 36 35 36z" />
    <glyph glyph-name="udieresis" unicode="&#xfc;" 
d="M238 663c0 -28 -19 -48 -45 -48s-45 20 -45 48c0 27 19 47 45 47s45 -20 45 -47zM414 663c0 -28 -19 -48 -45 -48s-45 20 -45 48c0 27 19 47 45 47s45 -20 45 -47zM451 515c20 0 35 -15 35 -36v-281c0 -115 -93 -208 -208 -208s-208 93 -208 208v281c0 21 15 36 36 36
c20 0 34 -15 34 -36v-281c0 -76 62 -138 138 -138s138 62 138 138v281c0 21 15 36 35 36z" />
    <glyph glyph-name="ugrave" unicode="&#xf9;" 
d="M246 630l-70 67c-16 16 -13 32 7 41l21 10c16 8 30 4 40 -11l56 -86c14 -20 7 -36 -16 -36c-16 0 -26 4 -38 15zM451 515c20 0 35 -15 35 -36v-281c0 -115 -93 -208 -208 -208s-208 93 -208 208v281c0 21 15 36 36 36c20 0 34 -15 34 -36v-281c0 -76 62 -138 138 -138
s138 62 138 138v281c0 21 15 36 35 36z" />
    <glyph glyph-name="uhungarumlaut" unicode="&#x171;" 
d="M291 689l-54 -54c-14 -14 -28 -20 -49 -20c-19 0 -19 21 -1 48l42 65c14 21 32 26 55 15c25 -12 28 -33 7 -54zM455 689l-54 -54c-15 -14 -29 -20 -50 -20c-18 0 -18 21 0 48l42 65c14 21 32 26 55 15c25 -12 28 -33 7 -54zM451 515c20 0 35 -15 35 -36v-281
c0 -115 -93 -208 -208 -208s-208 93 -208 208v281c0 21 15 36 36 36c20 0 34 -15 34 -36v-281c0 -76 62 -138 138 -138s138 62 138 138v281c0 21 15 36 35 36z" />
    <glyph glyph-name="umacron" unicode="&#x16b;" 
d="M439 649c0 -20 -17 -34 -41 -34h-234c-24 0 -41 12 -41 36c0 15 17 31 41 31h234c24 0 41 -14 41 -33zM451 515c20 0 35 -15 35 -36v-281c0 -115 -93 -208 -208 -208s-208 93 -208 208v281c0 21 15 36 36 36c20 0 34 -15 34 -36v-281c0 -76 62 -138 138 -138
s138 62 138 138v281c0 21 15 36 35 36z" />
    <glyph glyph-name="uogonek" unicode="&#x173;" 
d="M451 515c20 0 35 -15 35 -36v-281c0 -114 -91 -206 -205 -208c-36 -35 -40 -73 -30 -96c17 -38 70 -32 89 -24c13 5 27 2 33 -10c8 -17 0 -30 -13 -37c-62 -34 -182 -23 -182 79c0 41 18 72 43 96c-87 25 -151 105 -151 200v281c0 21 15 36 36 36c20 0 34 -15 34 -36
v-281c0 -76 62 -138 138 -138s138 62 138 138v281c0 21 15 36 35 36z" />
    <glyph glyph-name="uring" unicode="&#x16f;" 
d="M385 695c0 -55 -49 -100 -104 -100s-104 45 -104 100s49 100 104 100s104 -45 104 -100zM331 695c0 27 -23 50 -50 50s-50 -23 -50 -50s23 -50 50 -50s50 23 50 50zM451 515c20 0 35 -15 35 -36v-281c0 -115 -93 -208 -208 -208s-208 93 -208 208v281c0 21 15 36 36 36
c20 0 34 -15 34 -36v-281c0 -76 62 -138 138 -138s138 62 138 138v281c0 21 15 36 35 36z" />
    <glyph glyph-name="v" unicode="v" horiz-adv-x="517" 
d="M262 132l153 362c8 19 27 27 45 19c19 -8 27 -28 19 -47l-188 -445c-6 -15 -19 -23 -32 -22c-14 -1 -27 7 -33 22l-188 445c-8 19 0 39 19 47c18 8 37 0 45 -19l154 -362c1 -4 5 -4 6 0z" />
    <glyph glyph-name="w" unicode="w" horiz-adv-x="768" 
d="M539 136l126 357c7 20 26 29 44 22c20 -7 29 -26 22 -46l-157 -446c-5 -14 -15 -22 -27 -24c-17 -4 -34 4 -41 21l-119 279c-1 4 -5 4 -6 0l-119 -279c-7 -17 -24 -25 -41 -21c-11 2 -22 10 -27 24l-157 446c-7 20 2 39 22 46c18 7 37 -2 44 -22l126 -358c1 -4 5 -4 6 0
l116 272c6 14 19 22 33 22s27 -8 33 -22l115 -272c2 -4 6 -4 7 1z" />
    <glyph glyph-name="wacute" unicode="&#x1e83;" horiz-adv-x="768" 
d="M479 697l-70 -67c-12 -11 -22 -15 -38 -15c-23 0 -30 16 -16 36l56 86c10 15 24 19 40 11l21 -10c20 -9 23 -25 7 -41zM539 136l126 357c7 20 26 29 44 22c20 -7 29 -26 22 -46l-157 -446c-5 -14 -15 -22 -27 -24c-17 -4 -34 4 -41 21l-119 279c-1 4 -5 4 -6 0l-119 -279
c-7 -17 -24 -25 -41 -21c-11 2 -22 10 -27 24l-157 446c-7 20 2 39 22 46c18 7 37 -2 44 -22l126 -358c1 -4 5 -4 6 0l116 272c6 14 19 22 33 22s27 -8 33 -22l115 -272c2 -4 6 -4 7 1z" />
    <glyph glyph-name="wcircumflex" unicode="&#x175;" horiz-adv-x="768" 
d="M437 629l-38 34c-14 13 -28 13 -42 0l-38 -34c-11 -10 -22 -14 -37 -14c-23 0 -29 17 -13 37l62 77c10 12 21 17 36 17h24c15 0 26 -5 36 -17l62 -77c16 -20 15 -37 -3 -37h-12c-15 0 -26 4 -37 14zM539 136l126 357c7 20 26 29 44 22c20 -7 29 -26 22 -46l-157 -446
c-5 -14 -15 -22 -27 -24c-17 -4 -34 4 -41 21l-119 279c-1 4 -5 4 -6 0l-119 -279c-7 -17 -24 -25 -41 -21c-11 2 -22 10 -27 24l-157 446c-7 20 2 39 22 46c18 7 37 -2 44 -22l126 -358c1 -4 5 -4 6 0l116 272c6 14 19 22 33 22s27 -8 33 -22l115 -272c2 -4 6 -4 7 1z" />
    <glyph glyph-name="wdieresis" unicode="&#x1e85;" horiz-adv-x="768" 
d="M337 663c0 -28 -19 -48 -45 -48s-45 20 -45 48c0 27 19 47 45 47s45 -20 45 -47zM513 663c0 -28 -19 -48 -45 -48s-45 20 -45 48c0 27 19 47 45 47s45 -20 45 -47zM539 136l126 357c7 20 26 29 44 22c20 -7 29 -26 22 -46l-157 -446c-5 -14 -15 -22 -27 -24
c-17 -4 -34 4 -41 21l-119 279c-1 4 -5 4 -6 0l-119 -279c-7 -17 -24 -25 -41 -21c-11 2 -22 10 -27 24l-157 446c-7 20 2 39 22 46c18 7 37 -2 44 -22l126 -358c1 -4 5 -4 6 0l116 272c6 14 19 22 33 22s27 -8 33 -22l115 -272c2 -4 6 -4 7 1z" />
    <glyph glyph-name="wgrave" unicode="&#x1e81;" horiz-adv-x="768" 
d="M345 630l-70 67c-16 16 -13 32 7 41l21 10c16 8 30 4 40 -11l56 -86c14 -20 7 -36 -16 -36c-16 0 -26 4 -38 15zM539 136l126 357c7 20 26 29 44 22c20 -7 29 -26 22 -46l-157 -446c-5 -14 -15 -22 -27 -24c-17 -4 -34 4 -41 21l-119 279c-1 4 -5 4 -6 0l-119 -279
c-7 -17 -24 -25 -41 -21c-11 2 -22 10 -27 24l-157 446c-7 20 2 39 22 46c18 7 37 -2 44 -22l126 -358c1 -4 5 -4 6 0l116 272c6 14 19 22 33 22s27 -8 33 -22l115 -272c2 -4 6 -4 7 1z" />
    <glyph glyph-name="x" unicode="x" horiz-adv-x="516" 
d="M473 459l-168 -198c-2 -2 -2 -4 0 -7l168 -198c13 -15 9 -38 -8 -50c-16 -12 -35 -8 -49 8l-154 180c-3 3 -5 3 -8 0l-154 -180c-14 -16 -33 -20 -49 -8c-17 12 -21 35 -8 50l167 198c2 3 2 5 0 7l-167 198c-13 15 -9 38 8 50c16 12 35 8 49 -8l154 -179c3 -3 5 -3 8 0
l154 179c14 16 33 20 49 8c17 -12 21 -35 8 -50z" />
    <glyph glyph-name="y" unicode="y" 
d="M416 198v281c0 21 15 36 35 36s35 -15 35 -36v-475c0 -144 -128 -214 -224 -214c-61 0 -122 24 -156 55c-10 9 -17 30 -6 45c10 14 30 21 47 8c27 -20 60 -38 115 -38c58 0 154 36 154 144v30c0 5 -3 6 -6 3c-36 -29 -82 -47 -132 -47c-115 0 -208 93 -208 208v281
c0 21 15 36 36 36c20 0 34 -15 34 -36v-281c0 -76 62 -138 138 -138s138 62 138 138z" />
    <glyph glyph-name="yacute" unicode="&#xfd;" 
d="M380 697l-70 -67c-12 -11 -22 -15 -38 -15c-23 0 -30 16 -16 36l56 86c10 15 24 19 40 11l21 -10c20 -9 23 -25 7 -41zM416 198v281c0 21 15 36 35 36s35 -15 35 -36v-475c0 -144 -128 -214 -224 -214c-61 0 -122 24 -156 55c-10 9 -17 30 -6 45c10 14 30 21 47 8
c27 -20 60 -38 115 -38c58 0 154 36 154 144v30c0 5 -3 6 -6 3c-36 -29 -82 -47 -132 -47c-115 0 -208 93 -208 208v281c0 21 15 36 36 36c20 0 34 -15 34 -36v-281c0 -76 62 -138 138 -138s138 62 138 138z" />
    <glyph glyph-name="ycircumflex" unicode="&#x177;" 
d="M338 629l-38 34c-14 13 -28 13 -42 0l-38 -34c-11 -10 -22 -14 -37 -14c-23 0 -29 17 -13 37l62 77c10 12 21 17 36 17h24c15 0 26 -5 36 -17l62 -77c16 -20 15 -37 -3 -37h-12c-15 0 -26 4 -37 14zM416 198v281c0 21 15 36 35 36s35 -15 35 -36v-475
c0 -144 -128 -214 -224 -214c-61 0 -122 24 -156 55c-10 9 -17 30 -6 45c10 14 30 21 47 8c27 -20 60 -38 115 -38c58 0 154 36 154 144v30c0 5 -3 6 -6 3c-36 -29 -82 -47 -132 -47c-115 0 -208 93 -208 208v281c0 21 15 36 36 36c20 0 34 -15 34 -36v-281
c0 -76 62 -138 138 -138s138 62 138 138z" />
    <glyph glyph-name="ydieresis" unicode="&#xff;" 
d="M238 663c0 -28 -19 -48 -45 -48s-45 20 -45 48c0 27 19 47 45 47s45 -20 45 -47zM414 663c0 -28 -19 -48 -45 -48s-45 20 -45 48c0 27 19 47 45 47s45 -20 45 -47zM416 198v281c0 21 15 36 35 36s35 -15 35 -36v-475c0 -144 -128 -214 -224 -214c-61 0 -122 24 -156 55
c-10 9 -17 30 -6 45c10 14 30 21 47 8c27 -20 60 -38 115 -38c58 0 154 36 154 144v30c0 5 -3 6 -6 3c-36 -29 -82 -47 -132 -47c-115 0 -208 93 -208 208v281c0 21 15 36 36 36c20 0 34 -15 34 -36v-281c0 -76 62 -138 138 -138s138 62 138 138z" />
    <glyph glyph-name="ygrave" unicode="&#x1ef3;" 
d="M246 630l-70 67c-16 16 -13 32 7 41l21 10c16 8 30 4 40 -11l56 -86c14 -20 7 -36 -16 -36c-16 0 -26 4 -38 15zM416 198v281c0 21 15 36 35 36s35 -15 35 -36v-475c0 -144 -128 -214 -224 -214c-61 0 -122 24 -156 55c-10 9 -17 30 -6 45c10 14 30 21 47 8
c27 -20 60 -38 115 -38c58 0 154 36 154 144v30c0 5 -3 6 -6 3c-36 -29 -82 -47 -132 -47c-115 0 -208 93 -208 208v281c0 21 15 36 36 36c20 0 34 -15 34 -36v-281c0 -76 62 -138 138 -138s138 62 138 138z" />
    <glyph glyph-name="z" unicode="z" horiz-adv-x="502" 
d="M103 515h334c5 0 10 -1 14 -2c4 -2 8 -4 11 -7c16 -13 17 -34 4 -50l-315 -380c-3 -3 -2 -6 2 -6h271c21 0 36 -15 36 -36c0 -20 -15 -34 -36 -34h-352c-21 0 -36 15 -36 36c0 7 2 14 5 19l4 5l315 379c2 3 1 6 -3 6h-254c-21 0 -36 15 -36 36c0 20 15 34 36 34z" />
    <glyph glyph-name="zacute" unicode="&#x17a;" horiz-adv-x="502" 
d="M350 697l-70 -67c-12 -11 -22 -15 -38 -15c-23 0 -30 16 -16 36l56 86c10 15 24 19 40 11l21 -10c20 -9 23 -25 7 -41zM103 515h334c5 0 10 -1 14 -2c4 -2 8 -4 11 -7c16 -13 17 -34 4 -50l-315 -380c-3 -3 -2 -6 2 -6h271c21 0 36 -15 36 -36c0 -20 -15 -34 -36 -34
h-352c-21 0 -36 15 -36 36c0 7 2 14 5 19l4 5l315 379c2 3 1 6 -3 6h-254c-21 0 -36 15 -36 36c0 20 15 34 36 34z" />
    <glyph glyph-name="zcaron" unicode="&#x17e;" horiz-adv-x="502" 
d="M270 698l38 34c11 10 22 14 37 14h12c18 0 19 -17 3 -37l-62 -77c-10 -12 -21 -17 -36 -17h-24c-15 0 -26 5 -36 17l-62 77c-16 20 -10 37 13 37c15 0 26 -4 37 -14l38 -34c14 -13 28 -13 42 0zM103 515h334c5 0 10 -1 14 -2c4 -2 8 -4 11 -7c16 -13 17 -34 4 -50
l-315 -380c-3 -3 -2 -6 2 -6h271c21 0 36 -15 36 -36c0 -20 -15 -34 -36 -34h-352c-21 0 -36 15 -36 36c0 7 2 14 5 19l4 5l315 379c2 3 1 6 -3 6h-254c-21 0 -36 15 -36 36c0 20 15 34 36 34z" />
    <glyph glyph-name="zdotaccent" unicode="&#x17c;" horiz-adv-x="502" 
d="M298 663c0 -28 -20 -48 -47 -48s-47 20 -47 48s20 48 47 48s47 -20 47 -48zM103 515h334c5 0 10 -1 14 -2c4 -2 8 -4 11 -7c16 -13 17 -34 4 -50l-315 -380c-3 -3 -2 -6 2 -6h271c21 0 36 -15 36 -36c0 -20 -15 -34 -36 -34h-352c-21 0 -36 15 -36 36c0 7 2 14 5 19l4 5
l315 379c2 3 1 6 -3 6h-254c-21 0 -36 15 -36 36c0 20 15 34 36 34z" />
    <glyph glyph-name="ordfeminine" unicode="&#xaa;" horiz-adv-x="452" 
d="M344 710c17 0 30 -13 30 -31v-288c0 -18 -13 -31 -31 -31c-17 0 -29 13 -29 31v10c0 4 -3 5 -6 2c-20 -23 -54 -43 -99 -43c-91 0 -164 78 -164 175s73 175 164 175c45 0 79 -16 99 -42c3 -4 6 -3 6 2v9c0 18 13 31 30 31zM213 420c58 0 107 40 107 115s-49 115 -107 115
c-57 0 -108 -39 -108 -115s51 -115 108 -115z" />
    <glyph glyph-name="ordmasculine" unicode="&#xba;" horiz-adv-x="409" 
d="M365 534c0 -97 -73 -174 -161 -174s-160 77 -160 174c0 98 72 176 160 176s161 -78 161 -176zM305 534c0 67 -47 116 -101 116s-100 -49 -100 -116c0 -66 46 -114 100 -114s101 49 101 114z" />
    <glyph glyph-name="pi" unicode="&#x3c0;" horiz-adv-x="600" 
d="M526 445h-29c-3 0 -5 -2 -5 -5v-404c0 -21 -15 -36 -36 -36c-20 0 -34 15 -34 36v404c0 3 -2 5 -5 5h-239c-3 0 -5 -2 -5 -5v-404c0 -21 -15 -36 -36 -36c-20 0 -34 15 -34 36v404c0 3 -2 5 -5 5h-29c-21 0 -36 15 -36 36c0 20 15 34 36 34h457c21 0 36 -15 36 -36
c0 -20 -15 -34 -36 -34z" />
    <glyph glyph-name="zero" unicode="0" horiz-adv-x="622" 
d="M562 350c0 -209 -88 -360 -251 -360s-251 151 -251 360s88 360 251 360s251 -151 251 -360zM492 350c0 178 -65 290 -181 290s-181 -112 -181 -290s65 -290 181 -290s181 112 181 290z" />
    <glyph glyph-name="one" unicode="1" horiz-adv-x="383" 
d="M58 594l181 101c7 4 15 6 22 5c18 -1 30 -14 32 -32v-632c0 -21 -15 -36 -36 -36c-20 0 -34 15 -34 36v562c0 4 -3 6 -6 4l-123 -69c-18 -10 -39 -5 -49 13c-10 17 -5 38 13 48z" />
    <glyph glyph-name="two" unicode="2" horiz-adv-x="582" 
d="M179 70h297c21 0 36 -15 36 -36c0 -20 -15 -34 -36 -34h-390c-21 0 -36 15 -36 36c0 2 0 4 1 6c1 7 5 14 11 20l258 252c28 27 95 83 95 171c0 71 -52 155 -142 155c-78 0 -129 -51 -158 -80c-15 -15 -38 -13 -49 -4s-19 29 -4 49c34 45 109 105 211 105
c138 0 212 -128 212 -225c0 -120 -91 -195 -117 -221l-192 -188c-3 -3 -2 -6 3 -6z" />
    <glyph glyph-name="three" unicode="3" horiz-adv-x="523" 
d="M429 638l-158 -179c-2 -3 -1 -6 3 -7c98 -20 179 -94 179 -229c0 -169 -143 -233 -235 -233c-65 0 -113 16 -144 38c-20 14 -21 39 -3 56c12 11 27 10 41 2c22 -13 56 -26 106 -26c70 0 165 48 165 163c0 122 -84 174 -185 164c-19 -2 -36 8 -40 27c-2 13 2 25 10 33
l155 177c3 3 2 6 -3 6h-234c-21 0 -36 15 -36 36c0 20 15 34 36 34h317c21 0 36 -15 36 -36c0 -5 -1 -9 -2 -13c-2 -4 -4 -9 -8 -13z" />
    <glyph glyph-name="four" unicode="4" horiz-adv-x="644" 
d="M488 230h40c21 0 36 -15 36 -36c0 -20 -15 -34 -36 -34h-40c-3 0 -5 -2 -5 -5v-119c0 -21 -15 -36 -36 -36c-20 0 -34 15 -34 36v119c0 3 -2 5 -5 5h-322c-13 0 -24 6 -30 16c-9 12 -8 28 2 41l360 468c6 8 15 13 23 14l8 1c20 0 34 -15 34 -36v-429c0 -3 2 -5 5 -5z
M164 230h244c3 0 5 2 5 5v319c0 4 -3 5 -6 2l-246 -320c-3 -3 -1 -6 3 -6z" />
    <glyph glyph-name="five" unicode="5" horiz-adv-x="529" 
d="M158 625l-26 -159c-1 -4 2 -6 6 -4c139 57 321 -18 321 -229c0 -169 -143 -243 -235 -243c-65 0 -113 16 -144 38c-20 14 -21 39 -3 56c12 11 27 10 41 2c22 -13 56 -26 106 -26c70 0 165 58 165 173c0 187 -167 209 -277 150c-35 -19 -62 8 -56 35l38 250
c2 16 13 28 27 31c3 1 6 1 10 1h280c21 0 36 -15 36 -36c0 -20 -15 -34 -36 -34h-247c-3 0 -5 -2 -6 -5z" />
    <glyph glyph-name="six" unicode="6" horiz-adv-x="563" 
d="M382 631c-127 -30 -189 -124 -218 -218c-2 -5 1 -7 5 -4c35 22 76 36 121 36c123 0 223 -103 223 -227c0 -125 -100 -228 -223 -228s-217 92 -228 218c-12 141 46 427 306 492c22 5 40 -8 43 -28c3 -21 -9 -36 -29 -41zM290 60c85 0 153 69 153 158
c0 88 -68 157 -153 157s-153 -69 -153 -157c0 -89 68 -158 153 -158z" />
    <glyph glyph-name="seven" unicode="7" horiz-adv-x="533" 
d="M96 700h330c5 0 11 -1 17 -3c18 -8 25 -27 17 -46l-270 -630c-8 -19 -28 -27 -47 -19c-18 8 -25 27 -17 46l247 576c1 4 0 6 -4 6h-273c-21 0 -36 15 -36 36c0 20 15 34 36 34z" />
    <glyph glyph-name="eight" unicode="8" horiz-adv-x="551" 
d="M401 403c-5 -5 -4 -10 1 -14c54 -39 89 -102 89 -174c0 -120 -96 -215 -216 -215s-215 95 -215 215c0 72 34 135 88 174c5 4 6 9 1 14c-30 31 -49 74 -49 122c0 98 77 175 175 175s175 -77 175 -175c0 -47 -18 -90 -49 -122zM165 525c0 -67 53 -110 110 -110
s110 43 110 110c0 68 -52 110 -110 110s-110 -42 -110 -110zM275 65c80 0 151 61 151 150s-71 150 -151 150s-150 -60 -150 -150s70 -150 150 -150z" />
    <glyph glyph-name="nine" unicode="9" horiz-adv-x="562" 
d="M181 69c127 30 189 124 218 218c2 5 -1 7 -5 4c-35 -22 -76 -36 -121 -36c-123 0 -223 103 -223 227c0 125 100 228 223 228s217 -92 228 -218c12 -141 -46 -427 -306 -492c-22 -5 -40 8 -43 28c-3 21 9 36 29 41zM273 640c-85 0 -153 -69 -153 -158
c0 -88 68 -157 153 -157s153 69 153 157c0 89 -68 158 -153 158z" />
    <glyph glyph-name="fraction" unicode="&#x2044;" horiz-adv-x="525" 
d="M26 45l423 642c10 15 29 19 43 9s17 -27 8 -40l-423 -642c-10 -15 -29 -18 -43 -9c-14 10 -17 27 -8 40z" />
    <glyph glyph-name="onehalf" unicode="&#xbd;" horiz-adv-x="867" 
d="M148 45l423 642c10 15 29 19 43 9s17 -27 8 -40l-423 -642c-10 -15 -29 -18 -43 -9c-14 10 -17 27 -8 40zM56 627l113 69c9 5 19 6 28 2c11 -4 19 -15 19 -29v-336c0 -18 -13 -31 -31 -31c-17 0 -29 13 -29 31v278c0 4 -3 5 -6 3l-63 -37c-16 -9 -33 -5 -42 10
c-9 14 -5 31 11 40zM630 59h137c17 0 30 -13 30 -31c0 -16 -13 -28 -30 -28h-209c-19 0 -31 13 -31 30c0 4 0 8 2 11c1 4 3 8 7 12l136 130c29 28 48 52 48 90c0 36 -26 68 -70 68c-35 0 -61 -11 -80 -29c-12 -11 -28 -14 -41 -4c-14 11 -16 29 -3 44c24 26 71 48 124 48
c81 0 130 -64 130 -127c0 -59 -36 -102 -67 -133z" />
    <glyph glyph-name="onequarter" unicode="&#xbc;" horiz-adv-x="760" 
d="M132 45l423 642c10 15 29 19 43 9s17 -27 8 -40l-423 -642c-10 -15 -29 -18 -43 -9c-14 10 -17 27 -8 40zM56 628l113 69c10 5 20 6 28 2c12 -4 19 -15 19 -29v-338c0 -18 -13 -31 -31 -31c-17 0 -29 13 -29 31v280c0 4 -3 5 -6 3l-63 -38c-16 -9 -33 -5 -42 10
s-5 32 11 41zM649 144c18 0 31 -13 31 -31c0 -17 -13 -29 -31 -29c-3 0 -4 -2 -4 -5v-46c0 -18 -13 -31 -31 -31c-17 0 -29 13 -29 31v46c0 3 -2 5 -5 5h-164c-18 0 -30 12 -31 29c-1 8 1 15 7 22l198 255c6 9 16 13 26 12c15 0 26 -11 28 -26l1 -6v-221c0 -3 1 -5 4 -5z
M484 144h96c3 0 5 2 5 5v125c0 4 -3 6 -6 2l-98 -126c-2 -3 -1 -6 3 -6z" />
    <glyph glyph-name="threequarters" unicode="&#xbe;" horiz-adv-x="839" 
d="M209 45l423 642c10 15 29 19 43 9s17 -27 8 -40l-423 -642c-10 -15 -29 -18 -43 -9c-14 10 -17 27 -8 40zM270 587l-71 -80c65 -14 95 -64 95 -127c0 -67 -56 -139 -143 -139c-36 0 -63 9 -83 22c-18 11 -19 34 -3 49c13 10 22 9 31 4s36 -16 55 -16c50 0 84 41 84 80
s-25 65 -56 70c-36 6 -46 -8 -65 8c-12 11 -13 29 -2 43l73 80h-104c-18 0 -31 13 -31 31c0 17 13 29 31 29h167c18 0 31 -13 31 -31c0 -4 -1 -9 -2 -12c-2 -4 -4 -8 -7 -11zM728 144c18 0 31 -13 31 -31c0 -17 -13 -29 -31 -29c-3 0 -4 -2 -4 -5v-46c0 -18 -13 -31 -31 -31
c-17 0 -29 13 -29 31v46c0 3 -2 5 -5 5h-164c-18 0 -30 12 -31 29c-1 8 1 15 7 22l198 255c6 9 16 13 26 12c15 0 26 -11 28 -26l1 -6v-221c0 -3 1 -5 4 -5zM563 144h96c3 0 5 2 5 5v125c0 4 -3 6 -6 2l-98 -126c-2 -3 -1 -6 3 -6z" />
    <glyph glyph-name="onesuperior" unicode="&#xb9;" horiz-adv-x="270" 
d="M45 627l113 69c9 5 19 6 28 2c11 -4 19 -15 19 -29v-336c0 -18 -13 -31 -31 -31c-17 0 -29 13 -29 31v278c0 4 -3 5 -6 3l-63 -37c-16 -9 -33 -5 -42 10c-9 14 -5 31 11 40z" />
    <glyph glyph-name="twosuperior" unicode="&#xb2;" horiz-adv-x="378" 
d="M159 359h137c17 0 30 -13 30 -31c0 -16 -13 -28 -30 -28h-209c-19 0 -31 13 -31 30c0 4 0 8 2 11c1 4 3 8 7 12l136 130c29 28 48 52 48 90c0 36 -26 68 -70 68c-35 0 -61 -11 -80 -29c-12 -11 -28 -14 -41 -4c-14 11 -16 29 -3 44c24 26 71 48 124 48
c81 0 130 -64 130 -127c0 -59 -36 -102 -67 -133z" />
    <glyph glyph-name="threesuperior" unicode="&#xb3;" horiz-adv-x="340" 
d="M259 646l-71 -80c65 -14 95 -64 95 -127c0 -67 -56 -139 -143 -139c-36 0 -63 9 -83 22c-18 11 -19 34 -3 49c13 10 22 9 31 4s36 -16 55 -16c50 0 84 41 84 80s-25 65 -56 70c-36 6 -46 -8 -65 8c-12 11 -13 29 -2 43l73 80h-104c-18 0 -31 13 -31 31c0 17 13 29 31 29
h167c18 0 31 -13 31 -31c0 -4 -1 -9 -2 -12c-2 -4 -4 -8 -7 -11z" />
    <glyph glyph-name="asterisk" unicode="*" horiz-adv-x="303" 
d="M197 542l80 -36c12 -6 16 -19 10 -30l-4 -7c-7 -12 -20 -14 -31 -7l-71 51c-7 5 -12 2 -12 -7l7 -86c1 -13 -8 -23 -21 -23h-6c-13 0 -22 10 -21 23l7 86c0 9 -5 12 -12 7l-71 -51c-11 -7 -24 -4 -31 7l-4 7c-6 11 -2 24 10 29l80 37c8 4 8 10 0 14l-80 37
c-12 6 -16 19 -9 30l4 6c6 11 19 14 30 7l71 -50c7 -5 12 -2 12 7l-7 86c-1 13 8 23 21 23h6c13 0 22 -10 21 -23l-7 -86c0 -9 5 -12 12 -7l71 50c11 7 24 5 30 -7l4 -6c7 -11 3 -24 -10 -30l-79 -37c-8 -4 -8 -10 0 -14z" />
    <glyph glyph-name="backslash" unicode="\" horiz-adv-x="496" 
d="M72 782l440 -878c9 -18 1 -30 -18 -30h-18c-14 0 -23 6 -29 18l-440 878c-9 18 -1 30 18 30h18c14 0 23 -6 29 -18z" />
    <glyph glyph-name="bullet" unicode="&#x2022;" horiz-adv-x="354" 
d="M308 352c0 -72 -59 -131 -131 -131s-131 59 -131 131s59 131 131 131s131 -59 131 -131z" />
    <glyph glyph-name="colon" unicode=":" horiz-adv-x="168" 
d="M130 476v-23c0 -24 -17 -41 -41 -41h-10c-24 0 -41 17 -41 41v23c0 24 17 41 41 41h10c24 0 41 -17 41 -41zM130 64v-23c0 -24 -17 -41 -41 -41h-10c-24 0 -41 17 -41 41v23c0 24 17 41 41 41h10c24 0 41 -17 41 -41z" />
    <glyph glyph-name="comma" unicode="," horiz-adv-x="194" 
d="M39 -105c-4 11 8 22 26 33c26 16 37 38 35 67c0 3 -2 5 -5 5c-18 3 -31 19 -31 41v23c0 24 17 41 41 41h10c24 0 41 -17 41 -41v-49c0 -67 -24 -105 -74 -126c-21 -8 -39 -4 -43 6z" />
    <glyph glyph-name="ellipsis" unicode="&#x2026;" horiz-adv-x="646" 
d="M127 62v-21c0 -24 -17 -41 -41 -41h-7c-24 0 -41 17 -41 41v21c0 24 17 41 41 41h7c24 0 41 -17 41 -41zM367 62v-21c0 -24 -17 -41 -41 -41h-7c-24 0 -41 17 -41 41v21c0 24 17 41 41 41h7c24 0 41 -17 41 -41zM608 62v-21c0 -24 -17 -41 -41 -41h-8
c-24 0 -41 17 -41 41v21c0 24 17 41 41 41h8c24 0 41 -17 41 -41z" />
    <glyph glyph-name="exclam" unicode="!" horiz-adv-x="183" 
d="M47 643v29c0 16 13 28 31 28h28c18 0 31 -13 31 -31v-26l-22 -417c-1 -16 -6 -28 -23 -28s-23 12 -23 29zM138 74v-43c0 -18 -13 -31 -31 -31h-30c-18 0 -31 13 -31 31v43c0 18 13 31 31 31h30c18 0 31 -13 31 -31z" />
    <glyph glyph-name="exclamdown" unicode="&#xa1;" horiz-adv-x="183" 
d="M138 670v-43c0 -18 -13 -31 -31 -31h-30c-18 0 -31 13 -31 31v43c0 18 13 31 31 31h30c18 0 31 -13 31 -31zM47 58l22 416c0 17 6 29 23 29s22 -12 23 -28l22 -417v-26c0 -18 -13 -31 -31 -31h-28c-18 0 -31 12 -31 28v29z" />
    <glyph glyph-name="numbersign" unicode="#" horiz-adv-x="650" 
d="M630 496v-7c0 -18 -13 -31 -31 -31h-80c-6 0 -10 -3 -11 -9l-33 -192c-1 -7 2 -11 9 -11h76c18 0 31 -13 31 -31v-7c0 -18 -13 -31 -31 -31h-89c-6 0 -10 -3 -11 -9l-25 -144c-2 -14 -14 -24 -28 -24h-8c-21 0 -35 17 -32 38l22 128c1 7 -2 11 -9 11h-170
c-6 0 -10 -3 -11 -9l-25 -144c-2 -14 -14 -24 -28 -24h-8c-21 0 -35 17 -32 38l22 128c1 7 -2 11 -9 11h-68c-18 0 -31 13 -31 31v7c0 18 13 31 31 31h82c6 0 10 3 11 9l33 192c1 7 -2 11 -9 11h-77c-18 0 -31 13 -31 31v7c0 18 13 31 31 31h90c6 0 10 3 11 9l24 140
c2 14 14 24 28 24h8c21 0 35 -17 32 -38l-21 -124c-1 -7 2 -11 9 -11h170c6 0 10 3 11 9l24 140c2 14 14 24 28 24h8c21 0 35 -17 32 -38l-21 -124c-1 -7 2 -11 9 -11h66c18 0 31 -13 31 -31zM405 255l32 192c1 7 -2 11 -9 11h-170c-6 0 -10 -3 -11 -9l-32 -192
c-1 -7 2 -11 9 -11h170c6 0 10 3 11 9z" />
    <glyph glyph-name="period" unicode="." horiz-adv-x="179" 
d="M134 62v-21c0 -24 -17 -41 -41 -41h-7c-24 0 -41 17 -41 41v21c0 24 17 41 41 41h7c24 0 41 -17 41 -41z" />
    <glyph glyph-name="periodcentered" unicode="&#xb7;" horiz-adv-x="175" 
d="M133 312v-23c0 -24 -17 -41 -41 -41h-10c-24 0 -41 17 -41 41v23c0 24 17 41 41 41h10c24 0 41 -17 41 -41z" />
    <glyph glyph-name="question" unicode="?" horiz-adv-x="500" 
d="M189 195v129c0 15 11 32 33 35c112 10 176 61 176 152c0 97 -77 159 -174 159c-54 0 -101 -23 -133 -61c-12 -14 -29 -19 -45 -10c-19 11 -25 34 -11 52c45 52 116 89 189 89c135 0 244 -96 244 -229c0 -116 -85 -194 -204 -217c-3 0 -5 -2 -5 -5v-94
c0 -21 -15 -36 -36 -36c-20 0 -34 15 -34 36zM189 36v46c0 21 15 36 36 36c20 0 34 -15 34 -36v-46c0 -21 -15 -36 -36 -36c-20 0 -34 15 -34 36z" />
    <glyph glyph-name="questiondown" unicode="&#xbf;" horiz-adv-x="500" 
d="M306 519v-46c0 -21 -15 -36 -36 -36c-20 0 -34 15 -34 36v46c0 21 15 36 36 36c20 0 34 -15 34 -36zM306 360v-129c0 -15 -11 -32 -33 -35c-112 -10 -176 -61 -176 -152c0 -97 77 -159 174 -159c54 0 101 23 133 61c12 14 29 19 45 10c19 -11 25 -34 11 -52
c-45 -52 -116 -89 -189 -89c-135 0 -244 96 -244 229c0 116 85 194 204 217c3 0 5 2 5 5v94c0 21 15 36 36 36c20 0 34 -15 34 -36z" />
    <glyph glyph-name="quotedbl" unicode="&#x22;" horiz-adv-x="398" 
d="M63 438c-11 0 -16 6 -15 18l21 219c2 21 18 35 39 35h16h10c19 -1 28 -17 22 -36l-70 -218c-5 -17 -10 -18 -23 -18zM258 438c-11 0 -16 6 -15 18l21 219c2 21 18 35 39 35h16h10c19 -1 28 -17 22 -36l-70 -218c-5 -17 -10 -18 -23 -18z" />
    <glyph glyph-name="quotesingle" unicode="'" horiz-adv-x="203" 
d="M63 438c-11 0 -16 6 -15 18l21 219c2 21 18 35 39 35h16h10c19 -1 28 -17 22 -36l-70 -218c-5 -17 -10 -18 -23 -18z" />
    <glyph glyph-name="semicolon" unicode=";" horiz-adv-x="194" 
d="M156 476v-23c0 -24 -17 -41 -41 -41h-10c-24 0 -41 17 -41 41v23c0 24 17 41 41 41h10c24 0 41 -17 41 -41zM39 -105c-4 11 8 22 26 33c26 16 37 38 35 67c0 3 -2 5 -5 5c-18 3 -31 19 -31 41v23c0 24 17 41 41 41h10c24 0 41 -17 41 -41v-49c0 -67 -24 -105 -74 -126
c-21 -8 -39 -4 -43 6z" />
    <glyph glyph-name="slash" unicode="/" horiz-adv-x="496" 
d="M-16 -96l440 878c6 12 15 18 29 18h18c19 0 27 -12 18 -30l-440 -878c-6 -12 -15 -18 -29 -18h-18c-19 0 -27 12 -18 30z" />
    <glyph glyph-name="underscore" unicode="_" horiz-adv-x="644" 
d="M20 -129v1c0 18 13 31 31 31h542c18 0 31 -13 31 -31v-1c0 -18 -13 -31 -31 -31h-542c-18 0 -31 13 -31 31z" />
    <glyph glyph-name="braceleft" unicode="{" horiz-adv-x="438" 
d="M393 750c4 -15 -6 -29 -23 -34c-113 -34 -127 -100 -127 -183l1 -75c0 -78 -34 -115 -90 -136c-8 -3 -8 -7 0 -10c58 -22 90 -58 90 -136l-1 -75c0 -83 14 -149 127 -183c17 -5 26 -20 22 -36c-3 -13 -18 -21 -36 -17c-153 35 -186 128 -186 226l1 76
c0 78 -28 120 -118 120c-15 0 -26 13 -26 31c0 17 11 29 26 29c90 0 118 42 118 120l-1 76c0 98 33 191 187 226c18 4 32 -4 36 -19z" />
    <glyph glyph-name="braceright" unicode="}" horiz-adv-x="437" 
d="M44 750c4 15 18 23 36 19c154 -35 187 -128 187 -226l-1 -76c0 -78 28 -120 118 -120c15 0 26 -12 26 -29c0 -18 -11 -31 -26 -31c-90 0 -118 -42 -118 -120l1 -76c0 -98 -33 -191 -186 -226c-18 -4 -33 4 -36 17c-4 16 5 31 22 36c113 34 127 100 127 183l-1 75
c0 78 32 114 90 136c8 3 8 7 0 10c-56 21 -90 58 -90 136l1 75c0 83 -14 149 -127 183c-17 5 -27 19 -23 34z" />
    <glyph glyph-name="bracketleft" unicode="[" horiz-adv-x="396" 
d="M97 760h224c18 0 31 -13 31 -31c0 -17 -13 -29 -31 -29h-172c-6 0 -10 -3 -10 -10v-750c0 -6 4 -10 10 -10h172c18 0 31 -13 31 -31c0 -17 -13 -29 -31 -29h-224c-18 0 -31 13 -31 31v828c0 18 13 31 31 31z" />
    <glyph glyph-name="bracketright" unicode="]" horiz-adv-x="395" 
d="M74 760h224c18 0 31 -13 31 -31v-828c0 -18 -13 -31 -31 -31h-224c-18 0 -31 12 -31 29c0 18 13 31 31 31h172c6 0 10 4 10 10v750c0 7 -4 10 -10 10h-172c-18 0 -31 12 -31 29c0 18 13 31 31 31z" />
    <glyph glyph-name="parenleft" unicode="(" horiz-adv-x="365" 
d="M335 750c9 -15 2 -35 -17 -48c-131 -93 -199 -237 -199 -385s68 -292 199 -385c19 -13 26 -33 17 -48c-10 -15 -31 -18 -50 -6c-157 99 -244 267 -244 439s87 340 244 439c19 12 40 9 50 -6z" />
    <glyph glyph-name="parenright" unicode=")" horiz-adv-x="365" 
d="M30 750c10 15 31 18 50 6c157 -99 244 -267 244 -439s-87 -340 -244 -439c-19 -12 -40 -9 -50 6c-9 15 -2 35 17 48c131 93 199 237 199 385s-68 292 -199 385c-19 13 -26 33 -17 48z" />
    <glyph glyph-name="emdash" unicode="&#x2014;" horiz-adv-x="882" 
d="M825 301c0 -23 -17 -39 -41 -39h-686c-24 0 -41 17 -41 41c0 21 17 36 41 36h686c24 0 41 -16 41 -38z" />
    <glyph glyph-name="endash" unicode="&#x2013;" horiz-adv-x="512" 
d="M455 301c0 -23 -17 -39 -41 -39h-316c-24 0 -41 16 -41 39c0 22 17 38 41 38h316c24 0 41 -16 41 -38z" />
    <glyph glyph-name="hyphen" unicode="-" horiz-adv-x="392" 
d="M335 301c0 -24 -17 -41 -41 -41h-196c-24 0 -41 17 -41 41c0 23 17 40 41 40h196c24 0 41 -17 41 -40z" />
    <glyph glyph-name="softhyphen" unicode="&#xad;" horiz-adv-x="392" 
d="M335 301c0 -24 -17 -41 -41 -41h-196c-24 0 -41 17 -41 41c0 23 17 40 41 40h196c24 0 41 -17 41 -40z" />
    <glyph glyph-name="guillemotleft" unicode="&#xab;" horiz-adv-x="525" 
d="M61 285l126 165c13 17 30 21 49 10s22 -28 8 -47l-108 -146c-3 -5 -3 -9 0 -14l108 -148c14 -19 10 -37 -10 -48c-18 -11 -34 -7 -47 10l-127 169l-3 3c-11 16 -7 30 4 46zM284 285l126 165c13 17 30 21 49 10s21 -28 7 -47l-108 -146c-3 -5 -3 -9 0 -14l108 -148
c14 -19 11 -37 -10 -49c-17 -10 -33 -6 -46 11l-127 169l-3 3c-11 16 -7 30 4 46z" />
    <glyph glyph-name="guillemotright" unicode="&#xbb;" horiz-adv-x="525" 
d="M115 450l126 -165c11 -16 15 -30 4 -46l-3 -3l-127 -169c-13 -17 -29 -21 -46 -11c-21 12 -24 30 -10 49l108 148c3 5 3 9 0 14l-108 146c-14 19 -12 36 7 47s36 7 49 -10zM338 450l126 -165c11 -16 15 -30 4 -46l-3 -3l-127 -169c-13 -17 -29 -21 -47 -10
c-20 11 -24 29 -10 48l108 148c3 5 3 9 0 14l-108 146c-14 19 -11 36 8 47s36 7 49 -10z" />
    <glyph glyph-name="guilsinglleft" unicode="&#x2039;" horiz-adv-x="295" 
d="M57 285l126 165c13 17 30 21 49 10s22 -28 8 -47l-108 -146c-3 -5 -3 -9 0 -14l108 -148c14 -19 10 -37 -10 -48c-18 -11 -34 -7 -47 10l-127 169l-3 3c-11 16 -7 30 4 46z" />
    <glyph glyph-name="guilsinglright" unicode="&#x203a;" horiz-adv-x="295" 
d="M112 450l126 -165c11 -16 15 -30 4 -46l-3 -3l-127 -169c-13 -17 -29 -21 -47 -10c-20 11 -24 29 -10 48l108 148c3 5 3 9 0 14l-108 146c-14 19 -11 36 8 47s36 7 49 -10z" />
    <glyph glyph-name="quotedblbase" unicode="&#x201e;" horiz-adv-x="194" 
d="M105 105h10c24 0 41 -17 41 -41v-49c0 -67 -24 -105 -74 -126c-21 -8 -39 -4 -43 6c-4 11 8 22 26 33c26 16 37 38 35 67c0 3 -2 5 -5 5c-18 3 -31 19 -31 41v23c0 24 17 41 41 41z" />
    <glyph glyph-name="quotedblleft" unicode="&#x201c;" horiz-adv-x="393" 
d="M154 700c4 -11 -8 -22 -26 -33c-25 -16 -36 -38 -35 -67c0 -3 2 -5 5 -5c18 -3 32 -19 32 -41v-23c0 -24 -17 -41 -41 -41h-10c-24 0 -41 17 -41 41v49c0 66 23 105 73 126c21 8 39 4 43 -6zM354 700c4 -11 -8 -22 -26 -33c-25 -16 -36 -38 -35 -67c0 -3 2 -5 5 -5
c18 -3 31 -19 31 -41v-23c0 -24 -17 -41 -41 -41h-9c-24 0 -41 17 -41 41v49c0 66 23 105 73 126c21 8 39 4 43 -6z" />
    <glyph glyph-name="quotedblright" unicode="&#x201d;" horiz-adv-x="393" 
d="M39 500c-4 11 8 22 26 33c25 16 36 38 35 67c0 3 -2 5 -5 5c-18 3 -31 19 -31 41v23c0 24 17 41 41 41h9c24 0 41 -17 41 -41v-49c0 -66 -23 -105 -73 -126c-21 -8 -39 -4 -43 6zM239 500c-4 11 8 22 26 33c25 16 36 38 35 67c0 3 -2 5 -5 5c-18 3 -32 19 -32 41v23
c0 24 17 41 41 41h10c24 0 41 -17 41 -41v-49c0 -66 -23 -105 -73 -126c-21 -8 -39 -4 -43 6z" />
    <glyph glyph-name="quoteleft" unicode="&#x2018;" horiz-adv-x="193" 
d="M154 700c4 -11 -8 -22 -26 -33c-25 -16 -36 -38 -35 -67c0 -3 2 -5 5 -5c18 -3 32 -19 32 -41v-23c0 -24 -17 -41 -41 -41h-10c-24 0 -41 17 -41 41v49c0 66 23 105 73 126c21 8 39 4 43 -6z" />
    <glyph glyph-name="quoteright" unicode="&#x2019;" horiz-adv-x="193" 
d="M39 500c-4 11 8 22 26 33c25 16 36 38 35 67c0 3 -2 5 -5 5c-18 3 -32 19 -32 41v23c0 24 17 41 41 41h10c24 0 41 -17 41 -41v-49c0 -66 -23 -105 -73 -126c-21 -8 -39 -4 -43 6z" />
    <glyph glyph-name="quotesinglbase" unicode="&#x201a;" horiz-adv-x="194" 
d="M39 -105c-4 11 8 22 26 33c26 16 37 38 35 67c0 3 -2 5 -5 5c-18 3 -31 19 -31 41v23c0 24 17 41 41 41h10c24 0 41 -17 41 -41v-49c0 -67 -24 -105 -74 -126c-21 -8 -39 -4 -43 6z" />
    <glyph glyph-name="space" unicode=" " horiz-adv-x="300" 
 />
    <glyph glyph-name="uni00A0" unicode="&#xa0;" horiz-adv-x="300" 
 />
    <glyph glyph-name="florin" unicode="&#x192;" horiz-adv-x="556" 
d="M503 624c-8 -20 -23 -29 -39 -25c-9 2 -17 3 -28 3c-65 0 -94 -31 -103 -87l-15 -94c-1 -3 1 -5 4 -5h89c21 0 36 -15 36 -35s-15 -35 -36 -35h-102c-3 0 -5 -2 -6 -5l-49 -289c-17 -99 -74 -168 -185 -168c-16 0 -31 1 -44 4c-25 5 -35 31 -26 54c7 18 23 25 40 21
c9 -2 19 -3 30 -3c60 0 89 32 99 88l50 293c1 3 -1 5 -4 5h-60c-21 0 -36 15 -36 35s15 35 36 35h73c3 0 5 2 6 5l15 90c16 101 76 168 185 168c16 0 31 -2 44 -4c24 -5 34 -29 26 -51z" />
    <glyph glyph-name="cent" unicode="&#xa2;" horiz-adv-x="507" 
d="M469 78c13 -17 10 -40 -9 -51c-35 -21 -76 -33 -119 -36c-3 0 -5 -2 -5 -5v-55c0 -18 -12 -31 -27 -31c-16 0 -28 13 -28 31v57c0 3 -2 5 -5 5c-131 21 -231 131 -231 264c0 134 100 244 231 265c3 0 5 2 5 5v57c0 18 12 31 28 31s27 -13 27 -31v-55c0 -3 2 -5 5 -5
c43 -3 84 -15 119 -36c19 -11 22 -34 8 -52c-11 -15 -29 -16 -46 -7c-24 14 -51 22 -81 25c-3 0 -5 -1 -5 -5v-383c0 -4 2 -5 5 -5c30 3 57 11 81 25c17 9 35 7 47 -8zM115 257c0 -94 68 -173 161 -192c3 -1 5 1 5 4v377c0 3 -2 5 -6 4c-92 -19 -160 -99 -160 -193z" />
    <glyph glyph-name="currency" unicode="&#xa4;" horiz-adv-x="479" 
d="M370 221l38 -35c13 -12 14 -30 2 -43s-30 -14 -43 -2l-37 34c-26 -19 -57 -31 -91 -31c-35 0 -66 11 -91 31l-37 -34c-13 -12 -31 -11 -43 2s-11 31 2 43l38 35c-11 21 -18 46 -18 72v10c0 26 7 51 19 73l-39 36c-13 12 -14 30 -2 43s30 14 43 2l38 -34
c25 19 57 31 91 31s66 -11 91 -30l36 33c13 12 31 11 43 -2s11 -31 -2 -43l-38 -34c12 -22 19 -47 19 -73v-10c0 -27 -7 -52 -19 -74zM240 195c19 0 37 6 51 16c30 19 39 56 39 80v14c0 30 -11 61 -40 81c-15 10 -32 16 -51 16s-37 -6 -51 -16c-29 -20 -39 -51 -39 -81v-14
c0 -32 13 -62 39 -80c15 -10 32 -16 52 -16z" />
    <glyph glyph-name="dollar" unicode="$" horiz-adv-x="589" 
d="M551 185c0 -132 -118 -185 -227 -193c-3 0 -5 -2 -5 -5v-54c0 -18 -13 -31 -31 -31h-2c-18 0 -31 13 -31 31v55c0 3 -2 5 -5 5c-89 10 -152 47 -206 91c-19 15 -19 38 -4 53c12 12 31 16 48 3c44 -34 88 -67 162 -76c3 -1 5 1 5 4v267c0 3 -1 5 -4 6
c-108 31 -216 67 -216 183c0 122 106 180 215 186c3 0 5 1 5 5v25c0 18 13 31 31 31h2c18 0 31 -13 31 -31v-29c0 -3 2 -5 5 -5c65 -10 121 -36 162 -63c18 -12 22 -34 9 -52c-11 -15 -31 -18 -46 -7c-32 22 -74 42 -125 51c-3 1 -5 -1 -5 -4v-231c0 -3 1 -5 4 -6l4 -1
c123 -36 224 -83 224 -208zM105 524c0 -61 59 -85 144 -109c4 -1 6 0 6 4v216c0 3 -2 5 -6 4c-82 -5 -144 -43 -144 -115zM319 316v-249c0 -3 2 -5 5 -5c84 7 157 44 157 123c0 68 -44 101 -156 135c-4 1 -6 -1 -6 -4z" />
    <glyph glyph-name="Euro" unicode="&#x20ac;" horiz-adv-x="701" 
d="M132 403c1 3 -1 5 -4 5h-47c-18 0 -31 13 -31 31s13 31 31 31h59c3 0 4 1 5 4c39 138 140 238 274 238c105 0 172 -46 223 -112c11 -14 8 -32 -7 -43l-11 -8c-14 -10 -31 -7 -42 7c-44 55 -91 85 -166 85c-87 0 -157 -67 -189 -165c-1 -4 0 -6 4 -6h220
c18 0 31 -13 31 -31s-13 -31 -31 -31h-234c-3 0 -5 -2 -6 -5c-2 -16 -3 -35 -3 -52c0 -16 1 -31 2 -46c0 -3 2 -5 5 -5h236c18 0 31 -13 31 -31v-1c0 -18 -13 -31 -31 -31h-222c-4 0 -5 -2 -4 -6c30 -103 105 -172 202 -172c69 0 117 35 160 91c11 14 28 17 43 7l8 -5
c14 -11 17 -28 7 -43c-53 -70 -119 -121 -221 -121c-141 0 -246 99 -282 245c-1 3 -2 4 -5 4h-56c-18 0 -31 13 -31 31v1c0 18 13 31 31 31h45c3 0 5 2 4 5c-1 15 -1 29 -1 44c0 18 1 36 3 54z" />
    <glyph glyph-name="sterling" unicode="&#xa3;" horiz-adv-x="562" 
d="M59 364h48c3 0 5 2 5 5v103c0 142 81 238 221 238c86 0 143 -31 186 -76c17 -17 15 -42 -2 -56l-1 -1c-18 -14 -39 -11 -55 5c-33 34 -71 55 -129 55c-90 0 -141 -64 -141 -165v-103c0 -3 2 -5 5 -5h243c18 0 31 -13 31 -31v-7c0 -18 -13 -31 -31 -31h-243
c-3 0 -5 -2 -5 -5v-215c0 -3 2 -5 5 -5h319c18 0 31 -13 31 -31v-8c0 -18 -13 -31 -31 -31h-462c-14 0 -25 10 -25 23v4c0 12 7 21 18 23l62 16c3 1 4 2 4 5v219c0 3 -2 5 -5 5h-48c-18 0 -31 13 -31 31v7c0 18 13 31 31 31z" />
    <glyph glyph-name="yen" unicode="&#xa5;" horiz-adv-x="601" 
d="M558 681c19 -14 22 -38 8 -56l-189 -258c-3 -5 -1 -9 5 -9h119c18 0 31 -15 31 -33c0 -17 -13 -31 -31 -31h-154c-5 0 -7 -2 -7 -7v-92c0 -5 2 -7 7 -7h154c18 0 31 -15 31 -33c0 -17 -13 -31 -31 -31h-154c-5 0 -7 -2 -7 -7v-76c0 -24 -17 -41 -40 -41s-40 17 -40 41v76
c0 5 -2 7 -7 7h-155c-18 0 -31 15 -31 33c0 17 13 31 31 31h155c5 0 7 2 7 7v92c0 5 -2 7 -7 7h-155c-18 0 -31 15 -31 33c0 17 13 31 31 31h119c6 0 8 4 4 9l-188 257c-14 19 -10 43 9 57c19 13 42 9 56 -9l195 -266c4 -6 10 -6 14 0l194 265c14 19 38 23 57 10z" />
    <glyph glyph-name="Ohm" unicode="&#x2126;" horiz-adv-x="600" 
d="M311 678c157 0 264 -117 264 -280c0 -152 -72 -251 -132 -330h106c21 0 36 -15 36 -36c0 -19 -15 -32 -36 -32h-153c-21 0 -36 15 -36 36v18c0 7 2 13 6 18c99 123 139 206 139 324c0 127 -76 216 -194 216c-119 0 -194 -89 -194 -216c0 -118 39 -201 138 -324
c4 -5 6 -11 6 -18v-18c0 -21 -15 -36 -36 -36h-152c-21 0 -36 15 -36 36c0 19 15 32 36 32h106c-63 83 -132 178 -132 332c0 161 106 278 264 278z" />
    <glyph glyph-name="approxequal" unicode="&#x2248;" horiz-adv-x="565" 
d="M46 363c-10 11 -11 23 -1 35c28 34 69 71 124 71c37 0 67 -13 117 -34c48 -21 79 -34 113 -34s63 13 88 34c12 10 24 10 35 -2c10 -10 11 -21 1 -33c-28 -35 -69 -71 -124 -71c-37 0 -67 13 -117 34c-48 20 -79 33 -113 33s-63 -14 -88 -34c-12 -10 -24 -10 -35 1z
M47 174c-11 11 -12 22 -3 35c29 34 70 71 125 71c37 0 67 -13 117 -34c48 -21 79 -33 113 -33s63 13 88 33c12 10 24 10 35 -1c10 -10 11 -21 1 -33c-28 -35 -69 -72 -124 -72c-37 0 -67 13 -117 34c-48 21 -79 33 -113 33s-63 -14 -88 -33c-12 -10 -23 -11 -34 0z" />
    <glyph glyph-name="asciitilde" unicode="~" horiz-adv-x="587" 
d="M57 269c-11 11 -12 24 1 38c28 34 68 68 121 68c37 0 67 -13 117 -34c48 -21 79 -33 113 -33c32 0 60 12 84 30c15 12 29 12 42 -1c8 -8 7 -20 -5 -34c-28 -34 -68 -68 -121 -68c-37 0 -67 13 -117 34c-48 21 -79 33 -113 33c-32 0 -60 -13 -84 -31
c-15 -11 -27 -13 -38 -2z" />
    <glyph glyph-name="bulletoperator" unicode="&#x2219;" horiz-adv-x="205" 
d="M103 248c-29 0 -53 24 -53 53c0 28 24 52 53 52c28 0 52 -24 52 -52c0 -29 -24 -53 -52 -53z" />
    <glyph glyph-name="divide" unicode="&#xf7;" horiz-adv-x="682" 
d="M387 476v-23c0 -24 -17 -41 -41 -41h-10c-24 0 -41 17 -41 41v23c0 24 17 41 41 41h10c24 0 41 -17 41 -41zM52 291c0 22 17 38 41 38h496c24 0 41 -16 41 -38s-17 -38 -41 -38h-496c-24 0 -41 16 -41 38zM387 124v-23c0 -24 -17 -41 -41 -41h-10c-24 0 -41 17 -41 41v23
c0 24 17 41 41 41h10c24 0 41 -17 41 -41z" />
    <glyph glyph-name="divisionslash" unicode="&#x2215;" horiz-adv-x="522" 
d="M9 -96l440 878c6 12 15 18 29 18h18c19 0 27 -12 18 -30l-440 -878c-6 -12 -15 -18 -29 -18h-18c-19 0 -27 12 -18 30z" />
    <glyph glyph-name="emptyset" unicode="&#x2205;" horiz-adv-x="591" 
d="M556 463l-43 -42c-3 -3 -3 -5 -1 -8c32 -44 51 -98 51 -156c0 -148 -120 -267 -267 -267c-61 0 -117 20 -162 54c-2 2 -4 2 -7 -1l-43 -42c-15 -15 -36 -15 -50 0s-14 35 1 50l43 42c2 2 3 5 1 7c-32 44 -51 98 -51 157c0 148 120 268 268 268c60 0 116 -20 161 -55
c2 -2 5 -1 7 1l43 42c15 15 36 15 50 0s14 -35 -1 -50zM98 257c0 -39 11 -76 31 -106c2 -3 5 -3 7 -1l270 264c3 3 2 5 0 7c-32 22 -70 34 -110 34c-109 0 -198 -89 -198 -198zM493 257c0 39 -11 76 -31 106c-2 3 -5 3 -7 1l-270 -264c-2 -2 -2 -5 1 -7
c32 -21 69 -33 110 -33c108 0 197 88 197 197z" />
    <glyph glyph-name="equal" unicode="=" horiz-adv-x="634" 
d="M52 430v2c0 21 15 31 36 31h458c21 0 36 -10 36 -31v-2c0 -21 -15 -31 -36 -31h-458c-21 0 -36 10 -36 31zM52 256v2c0 21 15 31 36 31h458c21 0 36 -10 36 -31v-2c0 -21 -15 -31 -36 -31h-458c-21 0 -36 10 -36 31z" />
    <glyph glyph-name="greater" unicode="&#x3e;" horiz-adv-x="716" 
d="M607 352c0 -23 -11 -39 -36 -51l-386 -191c-28 -14 -47 -5 -47 21c0 23 9 37 29 47l342 168c8 4 8 10 0 14l-342 167c-20 10 -29 24 -29 47v6c0 22 19 28 47 14l386 -191c25 -12 36 -28 36 -51z" />
    <glyph glyph-name="greaterequal" unicode="&#x2265;" horiz-adv-x="576" 
d="M523 352c0 -23 -11 -39 -36 -51l-386 -191c-28 -14 -47 -5 -47 21c0 23 9 37 29 47l342 168c8 4 8 10 0 14l-342 167c-20 10 -29 24 -29 47v6c0 22 19 28 47 14l386 -191c25 -12 36 -28 36 -51zM51 33c0 22 17 33 41 33h390c24 0 41 -11 41 -33s-17 -33 -41 -33h-390
c-24 0 -41 11 -41 33z" />
    <glyph glyph-name="increment" unicode="&#x2206;" horiz-adv-x="673" 
d="M367 688l283 -645c2 -4 3 -9 3 -14c0 -17 -13 -29 -31 -29h-570l-8 1l-7 2c-15 7 -21 24 -14 40l288 645c5 12 16 19 28 19c4 0 8 -1 13 -3c7 -3 13 -9 15 -16zM335 595l-236 -529c-2 -4 0 -6 4 -6h467c4 0 6 2 4 6l-232 529c-2 4 -5 4 -7 0z" />
    <glyph glyph-name="infinity" unicode="&#x221e;" horiz-adv-x="854" 
d="M422 201l-45 -51c-41 -49 -91 -76 -159 -76c-101 0 -173 68 -173 176s72 176 173 176c68 0 118 -27 159 -76l45 -51c3 -4 7 -4 10 0l45 51c42 48 91 76 159 76c101 0 173 -68 173 -176s-72 -176 -173 -176c-68 0 -118 27 -159 76l-45 51c-3 4 -7 4 -10 0zM115 250
c0 -76 47 -116 102 -116c48 0 70 15 105 52l52 59c3 3 3 7 0 10l-52 59c-34 38 -57 52 -105 52c-55 0 -102 -40 -102 -116zM739 250c0 76 -47 116 -102 116c-48 0 -71 -14 -105 -52l-52 -59c-3 -3 -3 -7 0 -10l52 -59c34 -38 57 -52 105 -52c55 0 102 40 102 116z" />
    <glyph glyph-name="integral" unicode="&#x222b;" horiz-adv-x="396" 
d="M181 -41l-40 666c-7 117 78 155 154 155c19 0 38 -2 55 -6c19 -5 28 -23 24 -41c-5 -21 -24 -29 -44 -23c-13 4 -25 6 -37 6c-43 0 -80 -26 -76 -95l40 -666c7 -117 -77 -155 -154 -155c-19 0 -37 2 -54 6c-19 5 -28 23 -24 41c5 21 24 29 44 23c13 -4 25 -6 37 -6
c42 0 79 26 75 95z" />
    <glyph glyph-name="less" unicode="&#x3c;" horiz-adv-x="716" 
d="M109 352c0 23 11 39 36 51l386 191c28 14 47 8 47 -14v-6c0 -23 -9 -37 -29 -47l-342 -167c-8 -4 -8 -10 0 -14l342 -168c20 -10 29 -24 29 -47c0 -26 -19 -35 -47 -21l-386 191c-25 12 -36 28 -36 51z" />
    <glyph glyph-name="lessequal" unicode="&#x2264;" horiz-adv-x="576" 
d="M52 352c0 23 11 39 36 51l386 191c28 14 47 8 47 -14v-6c0 -23 -9 -37 -29 -47l-342 -167c-8 -4 -8 -10 0 -14l342 -168c20 -10 29 -24 29 -47c0 -26 -19 -35 -47 -21l-386 191c-25 12 -36 28 -36 51zM524 33c0 -22 -17 -33 -41 -33h-390c-24 0 -41 11 -41 33
s17 33 41 33h390c24 0 41 -11 41 -33z" />
    <glyph glyph-name="logicalnot" unicode="&#xac;" horiz-adv-x="696" 
d="M96 398h498c23 0 40 -17 40 -41v-206c0 -24 -17 -41 -40 -41s-40 17 -40 41v161c0 6 -3 10 -10 10h-448c-24 0 -41 16 -41 38s17 38 41 38z" />
    <glyph glyph-name="uni00B5" unicode="&#xb5;" 
d="M424 208v281c0 21 15 36 36 36c20 0 34 -15 34 -36v-443c0 -21 -15 -36 -36 -36c-20 0 -34 15 -34 36v30c0 5 -3 6 -5 2c-20 -29 -79 -78 -153 -78c-45 0 -83 14 -113 46c-3 4 -6 2 -6 -2v-158c0 -21 -15 -36 -35 -36s-35 15 -35 36v591h1v12c0 21 15 36 36 36
c20 0 34 -15 34 -36v-281c0 -77 52 -138 128 -138c77 0 148 61 148 138z" />
    <glyph glyph-name="minus" unicode="&#x2212;" horiz-adv-x="682" 
d="M52 291c0 22 17 38 41 38h496c24 0 41 -16 41 -38s-17 -38 -41 -38h-496c-24 0 -41 16 -41 38z" />
    <glyph glyph-name="multiply" unicode="&#xd7;" horiz-adv-x="678" 
d="M399 269l205 -200c17 -17 17 -41 0 -58c-16 -16 -39 -16 -56 1l-206 201c-2 2 -5 2 -7 0l-206 -202c-17 -16 -41 -16 -58 1c-16 16 -15 40 2 56l205 201c2 2 2 4 0 7l-205 200c-17 17 -17 41 0 58c16 16 39 16 56 -1l206 -201c2 -3 5 -3 7 0l206 201c17 17 41 17 58 0
c16 -16 15 -40 -2 -56l-205 -201c-2 -2 -2 -5 0 -7z" />
    <glyph glyph-name="notequal" unicode="&#x2260;" horiz-adv-x="579" 
d="M519 399h-138c-3 0 -5 -1 -6 -3l-79 -101c-2 -3 -1 -6 3 -6h220c21 0 36 -10 36 -31v-2c0 -21 -15 -31 -36 -31h-273c-3 0 -5 -1 -6 -3l-102 -131c-13 -16 -31 -11 -43 1c-12 13 -11 27 2 43l65 84c3 3 1 6 -3 6h-98c-21 0 -36 10 -36 31v2c0 21 15 31 36 31h152
c2 0 4 1 6 3l78 101c3 3 1 6 -3 6h-233c-21 0 -36 10 -36 31v2c0 21 15 31 36 31h287c2 0 4 1 6 3l89 115c13 16 31 11 43 -1c12 -13 11 -27 -2 -43l-53 -68c-2 -3 -1 -6 3 -6h85c21 0 36 -10 36 -31v-2c0 -21 -15 -31 -36 -31z" />
    <glyph glyph-name="partialdiff" unicode="&#x2202;" horiz-adv-x="531" 
d="M138 671c3 20 21 33 43 28c260 -65 318 -350 306 -491c-11 -126 -105 -218 -228 -218s-223 103 -223 228c0 124 100 227 223 227c45 0 86 -14 121 -36c4 -3 7 -1 5 4c-29 94 -91 187 -218 217c-20 5 -32 20 -29 41zM259 60c85 0 153 69 153 158c0 88 -68 157 -153 157
s-153 -69 -153 -157c0 -89 68 -158 153 -158z" />
    <glyph glyph-name="percent" unicode="%" horiz-adv-x="701" 
d="M615 658l-475 -649c-10 -14 -28 -17 -42 -7s-17 28 -6 42l475 649c10 14 28 17 42 7s17 -28 6 -42zM184 390c-84 0 -149 67 -149 149v10c0 82 67 151 150 151c84 0 149 -67 149 -149v-10c0 -82 -67 -151 -150 -151zM185 442c52 0 90 41 90 96v14c0 55 -39 97 -91 97
s-90 -41 -90 -97v-14c0 -54 39 -96 91 -96zM516 -4c-84 0 -149 67 -149 149v10c0 82 67 151 150 151c84 0 149 -67 149 -149v-10c0 -82 -67 -151 -150 -151zM517 48c52 0 90 41 90 96v14c0 55 -39 97 -91 97s-90 -41 -90 -97v-14c0 -54 39 -96 91 -96z" />
    <glyph glyph-name="perthousand" unicode="&#x2030;" horiz-adv-x="1056" 
d="M617 658l-475 -649c-10 -14 -28 -17 -42 -7s-17 28 -6 42l475 649c10 14 28 17 42 7s17 -28 6 -42zM186 390c-84 0 -149 67 -149 149v10c0 82 67 151 150 151c84 0 149 -67 149 -149v-10c0 -82 -67 -151 -150 -151zM187 442c52 0 90 41 90 96v14c0 55 -39 97 -91 97
s-90 -41 -90 -97v-14c0 -54 39 -96 91 -96zM518 -4c-84 0 -149 67 -149 149v10c0 82 67 151 150 151c84 0 149 -67 149 -149v-10c0 -82 -67 -151 -150 -151zM872 -4c-84 0 -149 67 -149 149v10c0 82 67 151 150 151c84 0 149 -67 149 -149v-10c0 -82 -67 -151 -150 -151z
M519 48c52 0 90 41 90 96v14c0 55 -39 97 -91 97s-90 -41 -90 -97v-14c0 -54 39 -96 91 -96zM873 48c52 0 90 41 90 96v14c0 55 -39 97 -91 97s-90 -41 -90 -97v-14c0 -54 39 -96 91 -96z" />
    <glyph glyph-name="plus" unicode="+" horiz-adv-x="594" 
d="M87 388h165c5 0 7 2 7 7v163c0 21 15 36 36 36h2c21 0 36 -15 36 -36v-163c0 -5 2 -7 7 -7h165c21 0 36 -15 36 -36s-15 -36 -36 -36h-165c-5 0 -7 -2 -7 -7v-163c0 -21 -15 -36 -36 -36h-2c-21 0 -36 15 -36 36v163c0 5 -2 7 -7 7h-165c-21 0 -36 15 -36 36s15 36 36 36
z" />
    <glyph glyph-name="plusminus" unicode="&#xb1;" horiz-adv-x="682" 
d="M130 388h165c5 0 7 2 7 7v163c0 21 15 36 36 36h2c21 0 36 -15 36 -36v-163c0 -5 2 -7 7 -7h165c21 0 36 -15 36 -36s-15 -36 -36 -36h-165c-5 0 -7 -2 -7 -7v-163c0 -21 -15 -36 -36 -36h-2c-21 0 -36 15 -36 36v163c0 5 -2 7 -7 7h-165c-21 0 -36 15 -36 36
s15 36 36 36zM548 0h-418c-21 0 -36 15 -36 36s15 36 36 36h418c21 0 36 -15 36 -36s-15 -36 -36 -36z" />
    <glyph glyph-name="product" unicode="&#x220f;" horiz-adv-x="614" 
d="M533 630h-29c-3 0 -5 -2 -5 -5v-589c0 -21 -15 -36 -36 -36c-20 0 -34 15 -34 36v589c0 3 -2 5 -5 5h-239c-3 0 -5 -2 -5 -5v-589c0 -21 -15 -36 -36 -36c-20 0 -34 15 -34 36v589c0 3 -2 5 -5 5h-29c-21 0 -36 15 -36 36c0 20 15 34 36 34h457c21 0 36 -15 36 -36
c0 -20 -15 -34 -36 -34z" />
    <glyph glyph-name="radical" unicode="&#x221a;" horiz-adv-x="541" 
d="M187 404l111 -303c2 -5 6 -5 8 0l176 575c5 16 19 25 35 24c24 -2 37 -24 29 -49l-188 -618c-6 -20 -23 -33 -44 -33h-16c-19 0 -35 11 -42 29l-129 321c-1 4 -4 5 -8 3l-52 -29c-20 -11 -41 -5 -50 15l-2 4c-8 17 -1 35 15 45l81 44c31 17 64 4 76 -28z" />
    <glyph glyph-name="summation" unicode="&#x2211;" horiz-adv-x="553" 
d="M475 635h-310c-8 0 -14 -5 -8 -12l221 -234c14 -15 11 -40 -2 -54l-225 -254c-6 -7 -2 -12 6 -12h318c18 0 31 -13 31 -31v-7c0 -18 -13 -31 -31 -31h-398c-32 0 -53 32 -32 58l248 297c4 5 4 9 0 14l-249 272c-19 21 -2 59 30 59h401c18 0 31 -13 31 -31v-3
c0 -18 -13 -31 -31 -31z" />
    <glyph glyph-name="lozenge" unicode="&#x25ca;" horiz-adv-x="565" 
d="M506 273l-186 -252c-10 -14 -24 -21 -41 -21h-3c-17 0 -31 7 -41 21l-185 252c-15 21 -15 47 0 67l185 244c10 13 24 20 41 20h3c17 0 31 -7 41 -20l185 -243c16 -21 16 -47 1 -68zM443 313l-157 204c-4 6 -10 6 -14 0l-158 -204c-3 -5 -3 -9 0 -14l158 -213
c4 -6 10 -6 14 0l157 213c3 5 3 9 0 14z" />
    <glyph glyph-name="ampersand" unicode="&#x26;" horiz-adv-x="593" 
d="M641 73c-12 -17 -32 -20 -49 -8c-27 18 -51 36 -74 53c-58 -77 -139 -128 -246 -128c-106 0 -207 59 -230 165c-23 103 20 209 133 258c-61 76 -52 111 -51 142c3 67 70 155 193 155c93 0 150 -43 183 -86c14 -18 7 -41 -13 -52c-16 -9 -33 -3 -44 12
c-25 31 -61 56 -126 56c-79 0 -122 -50 -123 -87c-2 -42 -6 -101 305 -334c18 35 32 73 40 108c4 19 19 31 38 29c21 -2 35 -20 30 -42c-9 -45 -27 -92 -52 -137l77 -55c17 -12 21 -32 9 -49zM272 60c81 0 143 39 189 100c-110 82 -184 146 -235 197
c-98 -30 -134 -105 -116 -187c15 -67 82 -110 162 -110z" />
    <glyph glyph-name="asciicircum" unicode="^" horiz-adv-x="428" 
d="M242 742l157 -281c8 -15 4 -33 -12 -41c-15 -9 -32 -3 -40 13l-129 232c-2 3 -5 3 -7 0l-130 -233c-9 -16 -26 -20 -42 -12c-15 9 -18 26 -10 41l158 283c5 10 15 16 25 16c9 1 18 -3 25 -10z" />
    <glyph glyph-name="at" unicode="@" horiz-adv-x="953" 
d="M634 490c16 0 28 -10 28 -26v-237c0 -46 17 -93 69 -93c57 0 130 40 130 182c0 164 -171 342 -380 342c-210 0 -382 -182 -382 -384c0 -203 170 -382 390 -382c93 0 161 20 232 58c10 6 20 -5 25 -13s1 -28 -10 -34c-72 -41 -151 -65 -247 -65c-256 0 -446 197 -446 436
s193 438 438 438s436 -187 436 -396c0 -170 -93 -238 -195 -238c-77 0 -105 58 -105 84c0 3 -3 4 -5 1c-27 -40 -70 -83 -147 -83c-109 0 -198 95 -198 210c0 116 89 210 198 210c52 0 110 -27 137 -68c2 -3 5 -2 5 1v31c0 16 11 26 27 26zM465 135c77 0 142 69 142 155
s-65 155 -142 155c-78 0 -143 -69 -143 -155s65 -155 143 -155z" />
    <glyph glyph-name="bar" unicode="|" horiz-adv-x="225" 
d="M80 -167v914c0 19 14 33 33 33s32 -14 32 -33v-914c0 -19 -14 -33 -33 -33s-32 14 -32 33z" />
    <glyph glyph-name="brokenbar" unicode="&#xa6;" horiz-adv-x="229" 
d="M82 403v344c0 19 14 33 33 33s32 -14 32 -33v-344c0 -19 -14 -33 -33 -33s-32 14 -32 33zM82 -167v344c0 19 14 33 33 33s32 -14 32 -33v-344c0 -19 -14 -33 -33 -33s-32 14 -32 33z" />
    <glyph glyph-name="copyright" unicode="&#xa9;" horiz-adv-x="800" 
d="M400 -10c-199 0 -360 161 -360 360c0 198 161 360 360 360c198 0 360 -162 360 -360c0 -199 -162 -360 -360 -360zM400 51c164 0 298 134 298 299c0 164 -134 298 -298 298c-165 0 -299 -134 -299 -298c0 -165 134 -299 299 -299zM513 527c18 -10 21 -32 8 -49
c-10 -12 -26 -13 -41 -6c-20 10 -42 15 -66 15c-79 0 -144 -63 -144 -139c0 -75 65 -138 144 -138c24 0 47 5 67 15c15 8 31 5 41 -7c12 -16 9 -37 -8 -47c-30 -16 -65 -26 -100 -26c-114 0 -207 91 -207 203c0 114 93 202 207 202c35 0 70 -8 99 -23z" />
    <glyph glyph-name="dagger" unicode="&#x2020;" horiz-adv-x="360" 
d="M150 31v428c0 3 -2 5 -5 5h-82c-16 0 -28 10 -28 26c0 15 12 25 28 25h82c3 0 5 2 5 5v148c0 18 12 32 30 32s30 -14 30 -32v-148c0 -3 2 -5 5 -5h82c16 0 28 -10 28 -25c0 -16 -12 -26 -28 -26h-82c-3 0 -5 -2 -5 -5v-428c0 -18 -12 -31 -30 -31s-30 13 -30 31z" />
    <glyph glyph-name="daggerdbl" unicode="&#x2021;" horiz-adv-x="384" 
d="M215 236h82c16 0 28 -10 28 -26c0 -15 -12 -25 -28 -25h-82c-3 0 -5 -2 -5 -5v-149c0 -18 -12 -31 -30 -31s-30 13 -30 31v149c0 3 -2 5 -5 5h-82c-16 0 -28 10 -28 25c0 16 12 26 28 26h82c3 0 5 2 5 5v218c0 3 -2 5 -5 5h-82c-16 0 -28 10 -28 26c0 15 12 25 28 25h82
c3 0 5 2 5 5v149c0 18 12 31 30 31s30 -13 30 -31v-149c0 -3 2 -5 5 -5h82c16 0 28 -10 28 -25c0 -16 -12 -26 -28 -26h-82c-3 0 -5 -2 -5 -5v-218c0 -3 2 -5 5 -5z" />
    <glyph glyph-name="degree" unicode="&#xb0;" horiz-adv-x="381" 
d="M190 390c-84 0 -149 67 -149 149v10c0 82 67 151 150 151c84 0 149 -67 149 -149v-10c0 -82 -67 -151 -150 -151zM191 442c52 0 90 41 90 96v14c0 55 -39 97 -91 97s-90 -41 -90 -97v-14c0 -54 39 -96 91 -96z" />
    <glyph glyph-name="estimated" unicode="&#x212e;" horiz-adv-x="640" 
d="M576 290h-409c-3 0 -5 -2 -5 -5v-188c0 -3 1 -5 3 -7c42 -40 93 -61 155 -61c84 0 146 33 197 110c7 12 20 15 32 8c10 -6 12 -20 4 -32c-62 -88 -127 -125 -233 -125c-171 0 -280 133 -280 300c0 168 109 300 280 300c159 0 269 -112 280 -275c1 -14 -9 -25 -24 -25z
M167 329h307c3 0 5 2 5 5v149c0 3 -1 5 -3 6c-45 42 -97 63 -157 63c-61 0 -112 -22 -154 -62c-2 -2 -3 -4 -3 -7v-149c0 -3 2 -5 5 -5z" />
    <glyph glyph-name="uni2113" unicode="&#x2113;" horiz-adv-x="475" 
d="M416 96c16 -14 19 -38 3 -54c-27 -27 -69 -54 -131 -54c-103 0 -155 60 -155 166v33c0 4 -3 5 -6 3l-24 -15c-21 -12 -45 -1 -55 21c-8 18 2 37 21 47s39 23 61 37c2 1 3 3 3 6v184c0 92 14 208 145 208c93 0 137 -65 137 -144c0 -101 -87 -210 -198 -288
c-2 -1 -3 -3 -3 -6v-84c0 -60 27 -93 80 -93c29 0 51 12 68 27c17 16 37 20 54 6zM214 514v-167c0 -4 3 -6 6 -3c65 57 117 127 117 192c0 40 -18 69 -58 69c-52 0 -65 -46 -65 -91z" />
    <glyph glyph-name="paragraph" unicode="&#xb6;" horiz-adv-x="596" 
d="M307 700h169c24 0 41 -17 41 -41v-623c0 -24 -17 -36 -35 -36s-30 12 -30 36v552c0 21 -13 36 -31 36c-19 0 -32 -15 -32 -36v-517c0 -98 -59 -134 -130 -134c-25 0 -53 4 -73 15s-31 29 -23 47c9 21 33 24 51 16c14 -6 32 -8 45 -8c31 0 65 19 65 64v183
c0 18 -13 31 -31 31h-29c-146 0 -229 64 -229 201c0 149 99 214 272 214z" />
    <glyph glyph-name="registered" unicode="&#xae;" horiz-adv-x="530" 
d="M245 261c-125 0 -225 100 -225 225c0 123 100 225 225 225c123 0 225 -102 225 -225c0 -125 -102 -225 -225 -225zM245 299c102 0 186 84 186 187c0 102 -84 186 -186 186c-103 0 -187 -84 -187 -186c0 -103 84 -187 187 -187zM342 377c-1 -8 -8 -16 -20 -16
c-16 0 -34 20 -34 61c0 34 -23 34 -37 34h-50v-77c0 -8 -9 -18 -18 -18c-13 0 -19 10 -19 18v204c0 9 6 19 19 19h80c38 0 71 -33 71 -71c0 -26 -13 -50 -30 -61c12 -12 23 -20 23 -48c0 -11 0 -20 7 -26c6 -5 9 -11 8 -19zM203 493h61c17 0 31 13 31 38c0 18 -13 35 -31 35
h-61v-73z" />
    <glyph glyph-name="section" unicode="&#xa7;" horiz-adv-x="652" 
d="M503 143c-4 -2 -4 -5 -1 -7c43 -25 71 -59 71 -110c0 -120 -140 -166 -259 -166c-102 0 -197 22 -260 65c-18 13 -22 35 -10 51c10 18 33 19 56 8c61 -30 133 -55 214 -55c87 0 179 25 179 97c0 62 -78 81 -206 109c-138 30 -242 58 -242 156c0 62 38 114 114 142
c4 1 4 4 0 6c-47 23 -76 56 -76 108c0 92 83 163 253 163c100 0 166 -27 202 -50c22 -13 20 -38 8 -49c-14 -16 -37 -11 -56 -3c-24 10 -76 35 -154 35c-126 0 -173 -42 -173 -88c0 -54 100 -83 182 -101c132 -30 266 -60 266 -172c0 -70 -46 -114 -108 -139zM125 299
c0 -53 100 -82 182 -100l28 -6c109 -22 196 20 196 89c0 50 -51 72 -137 93l-13 3l-4 1c-21 5 -47 9 -79 9c-126 0 -173 -43 -173 -89z" />
    <glyph glyph-name="trademark" unicode="&#x2122;" horiz-adv-x="635" 
d="M68 700h158c13 0 24 -11 24 -24s-11 -24 -24 -24h-56v-215c0 -13 -11 -24 -24 -24s-23 11 -23 24v215h-55c-13 0 -24 11 -24 24s11 24 24 24zM546 700c18 0 28 -17 28 -34v-229c0 -13 -11 -24 -24 -24c-12 0 -23 11 -23 24v179l-63 -96c-8 -12 -18 -19 -32 -19
c-15 0 -25 8 -32 19l-63 96v-179c0 -13 -11 -24 -24 -24c-12 0 -23 11 -23 24v229c0 17 10 34 28 34c12 0 20 -2 30 -17l84 -126l84 126c10 15 18 17 30 17z" />
    <glyph glyph-name="acute" unicode="&#xb4;" horiz-adv-x="281" 
d="M240 682l-70 -67c-12 -11 -22 -15 -38 -15c-23 0 -30 16 -16 36l56 86c10 15 24 19 40 11l21 -10c20 -9 23 -25 7 -41z" />
    <glyph glyph-name="breve" unicode="&#x2d8;" horiz-adv-x="432" 
d="M325 733h18c13 0 21 -8 18 -21c-14 -71 -69 -112 -145 -112s-131 41 -145 112c-3 13 5 21 18 21h18c12 0 18 -5 23 -16c14 -33 42 -53 86 -53s72 20 86 53c5 11 11 16 23 16z" />
    <glyph glyph-name="caron" unicode="&#x2c7;" horiz-adv-x="380" 
d="M209 683l38 34c11 10 22 14 37 14h12c18 0 19 -17 3 -37l-62 -77c-10 -12 -21 -17 -36 -17h-24c-15 0 -26 5 -36 17l-62 77c-16 20 -10 37 13 37c15 0 26 -4 37 -14l38 -34c14 -13 28 -13 42 0z" />
    <glyph glyph-name="cedilla" unicode="&#xb8;" horiz-adv-x="328" 
d="M111 -143l-18 8c-19 9 -24 24 -11 41l81 104h41l-54 -138c-7 -18 -21 -23 -39 -15z" />
    <glyph glyph-name="circumflex" unicode="&#x2c6;" horiz-adv-x="380" 
d="M247 614l-38 34c-14 13 -28 13 -42 0l-38 -34c-11 -10 -22 -14 -37 -14c-23 0 -29 17 -13 37l62 77c10 12 21 17 36 17h24c15 0 26 -5 36 -17l62 -77c16 -20 15 -37 -3 -37h-12c-15 0 -26 4 -37 14z" />
    <glyph glyph-name="dieresis" unicode="&#xa8;" horiz-adv-x="406" 
d="M160 648c0 -28 -19 -48 -45 -48s-45 20 -45 48c0 27 19 47 45 47s45 -20 45 -47zM336 648c0 -28 -19 -48 -45 -48s-45 20 -45 48c0 27 19 47 45 47s45 -20 45 -47z" />
    <glyph glyph-name="dotaccent" unicode="&#x2d9;" horiz-adv-x="234" 
d="M164 648c0 -28 -20 -48 -47 -48s-47 20 -47 48s20 48 47 48s47 -20 47 -48z" />
    <glyph glyph-name="grave" unicode="`" horiz-adv-x="275" 
d="M103 615l-70 67c-16 16 -13 32 7 41l21 10c16 8 30 4 40 -11l56 -86c14 -20 7 -36 -16 -36c-16 0 -26 4 -38 15z" />
    <glyph glyph-name="hungarumlaut" unicode="&#x2dd;" horiz-adv-x="435" 
d="M227 674l-54 -54c-14 -14 -28 -20 -49 -20c-19 0 -19 21 -1 48l42 65c14 21 32 26 55 15c25 -12 28 -33 7 -54zM391 674l-54 -54c-15 -14 -29 -20 -50 -20c-18 0 -18 21 0 48l42 65c14 21 32 26 55 15c25 -12 28 -33 7 -54z" />
    <glyph glyph-name="macron" unicode="&#xaf;" horiz-adv-x="456" 
d="M386 634c0 -20 -17 -34 -41 -34h-234c-24 0 -41 12 -41 36c0 15 17 31 41 31h234c24 0 41 -14 41 -33z" />
    <glyph glyph-name="ogonek" unicode="&#x2db;" horiz-adv-x="286" 
d="M117 -106c17 -38 70 -32 89 -24c13 5 27 2 33 -10c8 -17 0 -30 -13 -37c-62 -34 -182 -23 -182 79c0 86 82 133 135 144l17 -21c-80 -43 -93 -100 -79 -131z" />
    <glyph glyph-name="ring" unicode="&#x2da;" horiz-adv-x="348" 
d="M278 680c0 -55 -49 -100 -104 -100s-104 45 -104 100s49 100 104 100s104 -45 104 -100zM224 680c0 27 -23 50 -50 50s-50 -23 -50 -50s23 -50 50 -50s50 23 50 50z" />
    <glyph glyph-name="tilde" unicode="&#x2dc;" horiz-adv-x="456" 
d="M369 712c15 -5 21 -18 14 -37c-19 -53 -45 -75 -86 -75c-45 0 -100 40 -134 40c-19 0 -29 -7 -40 -24c-9 -16 -21 -23 -39 -18c-13 4 -18 16 -11 36c19 53 45 75 86 75c45 0 100 -40 134 -40c19 0 30 7 40 24c9 16 20 23 36 19z" />
    <glyph glyph-name="acute.case" horiz-adv-x="281" 
d="M241 862l-70 -67c-12 -11 -22 -15 -38 -15c-23 0 -30 16 -16 36l56 86c10 15 24 19 40 11l21 -10c20 -9 23 -25 7 -41z" />
    <glyph glyph-name="breve.case" horiz-adv-x="432" 
d="M325 913h18c13 0 21 -8 18 -21c-14 -71 -69 -112 -145 -112s-131 41 -145 112c-3 13 5 21 18 21h18c12 0 18 -5 23 -16c14 -33 42 -53 86 -53s72 20 86 53c5 11 11 16 23 16z" />
    <glyph glyph-name="caron.case" horiz-adv-x="380" 
d="M209 863l38 34c11 10 22 14 37 14h12c18 0 19 -17 3 -37l-62 -77c-10 -12 -21 -17 -36 -17h-24c-15 0 -26 5 -36 17l-62 77c-16 20 -10 37 13 37c15 0 26 -4 37 -14l38 -34c14 -13 28 -13 42 0z" />
    <glyph glyph-name="circumflex.case" horiz-adv-x="380" 
d="M247 794l-38 34c-14 13 -28 13 -42 0l-38 -34c-11 -10 -22 -14 -37 -14c-23 0 -29 17 -13 37l62 77c10 12 21 17 36 17h24c15 0 26 -5 36 -17l62 -77c16 -20 15 -37 -3 -37h-12c-15 0 -26 4 -37 14z" />
    <glyph glyph-name="dieresis.case" horiz-adv-x="406" 
d="M160 828c0 -28 -19 -48 -45 -48s-45 20 -45 48c0 27 19 47 45 47s45 -20 45 -47zM336 828c0 -28 -19 -48 -45 -48s-45 20 -45 48c0 27 19 47 45 47s45 -20 45 -47z" />
    <glyph glyph-name="dotaccent.case" horiz-adv-x="234" 
d="M164 828c0 -28 -20 -48 -47 -48s-47 20 -47 48s20 48 47 48s47 -20 47 -48z" />
    <glyph glyph-name="grave.case" horiz-adv-x="275" 
d="M102 795l-70 67c-16 16 -13 32 7 41l21 10c16 8 30 4 40 -11l56 -86c14 -20 7 -36 -16 -36c-16 0 -26 4 -38 15z" />
    <glyph glyph-name="hungarumlaut.case" horiz-adv-x="435" 
d="M227 854l-54 -54c-14 -14 -28 -20 -49 -20c-19 0 -19 21 -1 48l42 65c14 21 32 26 55 15c25 -12 28 -33 7 -54zM391 854l-54 -54c-15 -14 -29 -20 -50 -20c-18 0 -18 21 0 48l42 65c14 21 32 26 55 15c25 -12 28 -33 7 -54z" />
    <glyph glyph-name="macron.case" horiz-adv-x="456" 
d="M386 814c0 -20 -12 -34 -36 -34h-244c-21 0 -36 14 -36 34c0 19 15 33 36 33h244c24 0 36 -14 36 -33z" />
    <glyph glyph-name="ring.case" horiz-adv-x="348" 
d="M278 880c0 -55 -49 -100 -104 -100s-104 45 -104 100s49 100 104 100s104 -45 104 -100zM224 880c0 27 -23 50 -50 50s-50 -23 -50 -50s23 -50 50 -50s50 23 50 50z" />
    <glyph glyph-name="tilde.case" horiz-adv-x="456" 
d="M369 892c15 -5 21 -18 14 -37c-19 -53 -45 -75 -86 -75c-45 0 -100 40 -134 40c-19 0 -29 -7 -40 -24c-9 -16 -21 -23 -39 -18c-13 4 -18 16 -11 36c19 53 45 75 86 75c45 0 100 -40 134 -40c19 0 30 7 40 24c9 16 20 23 36 19z" />
    <glyph glyph-name="commaaccentcomb" unicode="&#x326;" horiz-adv-x="0" 
d="M71 -290c-4 11 8 22 26 33c26 16 37 38 35 67c0 3 -2 5 -5 5c-18 3 -31 19 -31 41v23c0 24 17 41 41 41h10c24 0 41 -17 41 -41v-49c0 -67 -24 -105 -74 -126c-21 -8 -39 -4 -43 6z" />
    <glyph glyph-name="firsttonechinese" unicode="&#x2c9;" horiz-adv-x="456" 
d="M386 667c0 -20 -12 -34 -36 -34h-244c-21 0 -36 14 -36 34c0 19 15 33 36 33h244c24 0 36 -14 36 -33z" />
    </font>
</defs>
</svg>
